<?xml version="1.0" encoding="UTF-8"?>
<svg id="b" data-name="Camada 2" xmlns="http://www.w3.org/2000/svg" viewBox="0 0 180.29 34.16">
  <g id="c" data-name="Camada 2">
    <g>
      <g>
        <path d="M51.65,27.78h.06c1.6,0,2.86-.4,3.76-1.16.91-.77,1.44-1.88,1.58-3.33.02-.12,0-.22-.08-.3-.05-.05-.1-.08-.17-.1-.02,0-.05-.01-.08-.01,0,0-.01,0-.02,0l-.83-.04h0c-1.1.06-2.1.52-2.84,1.24-.03.04-.07.08-.11.11-.01.01-.03.03-.04.04-.34.3-.75.45-1.22.45-.56,0-1.01-.21-1.36-.62-.35-.41-.53-.94-.53-1.58v-1.39c0-.1.05-.15.15-.15h6.85c.1,0,.19-.04.26-.11.07-.07.11-.16.11-.26v-4.09c0-1.51-.49-2.72-1.47-3.64-.98-.92-2.32-1.38-4.01-1.38s-3.03.46-4.01,1.38c-.98.92-1.47,2.13-1.47,3.64v6.29c0,1.55.49,2.77,1.47,3.67.98.9,2.32,1.35,4.01,1.35ZM49.76,16.75c0-.64.17-1.17.53-1.58.35-.41.81-.62,1.36-.62s1.04.2,1.39.61c.35.4.53.93.53,1.59v1.39c0,.1-.05.15-.15.15h-3.5c-.11,0-.15-.05-.15-.15v-1.39Z"/>
        <path d="M59.79,14.42v10.26c0,1.87,1.45,3.41,3.28,3.54.08,0,.16-.04.22-.1.06-.06.06-.21.06-.26v-13.45c0-.08.04-.13.1-.15.02,0,.03,0,.05,0h0s.05,0,.07-.01h1.66s.06.01.09.01h.99c.1,0,.15.05.15.15v10.26c0,1.87,1.45,3.41,3.28,3.54.08,0,.16-.04.22-.1.05-.06.06-.21.06-.26v-13.45c0-.08.04-.13.1-.15.02,0,.03,0,.05,0h0c.07,0,.14-.02.21-.03,1.09-.22,1.94-1.14,2.06-2.26-.01-.06-.05-.12-.09-.17-.07-.07-.16-.11-.26-.11h-1.92c-.1,0-.15-.05-.15-.15v-.62c0-.78.14-1.36.43-1.74,0,0,0,0,0-.01.11-.14.24-.26.39-.35.91-.56,1.52-1.58,1.52-2.75,0-.05-.01-.18-.07-.24-.06-.06-.16-.11-.26-.11h-.25c-1.86-.02-3.21.35-4.06,1.12-.37.33-.65.76-.86,1.3-.27.7-.41,1.58-.41,2.64v.77c0,.05-.01.09-.04.12h0s-.03.03-.06.03c0,0-.01,0-.02.01h-.87s-.04,0-.06,0h-1.92c-.1,0-.15-.05-.15-.15v-.62c0-.78.14-1.36.43-1.74,0,0,0,0,0-.01.11-.14.24-.26.39-.35.91-.56,1.52-1.58,1.52-2.75,0-.05-.01-.18-.07-.24-.06-.06-.16-.11-.26-.11h-.25c-1.86-.02-3.21.35-4.06,1.12-.37.33-.65.76-.86,1.3-.27.7-.41,1.58-.41,2.64v.77c0,.05-.01.09-.04.12h0s-.03.03-.06.03c-.81.44-1.37,1.28-1.42,2.26,0,.08.04.15.1.21.07.07.16.11.26.11h.99c.1,0,.15.05.15.15Z"/>
        <path d="M34.03,26.35c1.04.96,2.39,1.43,4.04,1.43s3.1-.51,4.17-1.53c1.06-1.02,1.6-2.38,1.6-4.08V6.2c0-.1-.04-.19-.11-.26,0,0-.01-.01-.02-.02-.07-.06-.17-.08-.27-.07-1.8.19-3.2,1.72-3.2,3.57v12.81c0,.73-.2,1.31-.6,1.77-.4.45-.93.68-1.57.68s-1.16-.23-1.55-.68c-.29-.34-.48-.75-.55-1.24h0c0-.05-.01-.1-.02-.15-.24-1.64-1.57-2.93-3.24-3.08-.09,0-.18.01-.24.07-.09.08-.13.17-.13.29v2.29c0,1.7.53,3.05,1.58,4.08.04.04.07.07.11.1Z"/>
      </g>
      <g>
        <path d="M84.21,6.08h-5.3c-.1,0-.19.04-.26.11s-.11.16-.11.26v20.95c0,.1.04.19.11.26s.16.11.26.11h5.3c1.78,0,3.2-.54,4.26-1.61,1.06-1.07,1.6-2.51,1.6-4.31v-9.85c0-1.8-.53-3.23-1.6-4.31-1.06-1.07-2.48-1.61-4.26-1.61ZM86.47,21.64c-.02.91-.24,1.64-.67,2.19s-.97.82-1.66.82l-1.86.03c-.1,0-.15-.05-.15-.15v-15.18c0-.1.05-.15.15-.15h1.83c.72,0,1.3.27,1.72.82s.64,1.29.64,2.22v9.42Z"/>
        <path d="M101.65,26.66c.98-.91,1.47-2.14,1.47-3.69v-6.23c0-1.12-.27-2.08-.8-2.87-.19-.29-.42-.55-.69-.8-.99-.92-2.34-1.38-4.06-1.38s-3.04.46-4.03,1.38c-.99.92-1.49,2.14-1.49,3.67v6.23c0,1.55.49,2.78,1.47,3.69.98.91,2.33,1.37,4.04,1.37s3.09-.45,4.08-1.37ZM96.18,24.29c-.35-.4-.53-.94-.53-1.6v-5.7c0-.66.18-1.19.53-1.6.35-.4.82-.6,1.39-.6s1.05.21,1.41.62c.36.41.54.94.54,1.58v5.7c0,.66-.18,1.19-.54,1.6-.36.4-.83.6-1.41.6s-1.04-.2-1.39-.6Z"/>
        <path d="M121.98,13.1c-.69-.94-1.71-1.41-3.05-1.41-.64,0-1.28.14-1.91.43-.63.29-1.15.76-1.56,1.43-.12.14-.22.18-.28.09-.73-1.3-1.85-1.95-3.38-1.95-.5,0-1,.09-1.52.28-.52.19-.98.49-1.39.9-.04.06-.08.08-.12.06,0,0,0,0,0,0-.01,0-.02-.01-.02-.02-.76-.61-1.72-.97-2.76-.97h-.46c-.07,0-.13.01-.18.05-.03.01-.06.04-.08.06-.07.07-.11.16-.11.26v12.02c0,1.88,1.45,3.42,3.29,3.57.06-.02.12-.05.17-.1.07-.07.11-.16.11-.26v-10.3c0-.76.17-1.36.5-1.8.24-.32.55-.52.93-.6.14-.03.28-.05.44-.05.52,0,.94.22,1.26.65.32.43.48,1.04.48,1.83v7.38c.15,1.73,1.54,3.11,3.27,3.25h.01c.06-.01.12-.05.17-.1.07-.07.11-.16.11-.26v-10.3c0-.76.17-1.36.5-1.8.33-.43.79-.65,1.36-.65.54,0,.96.22,1.27.65.31.43.46,1.04.46,1.83v7.38c.15,1.73,1.54,3.11,3.27,3.25h.01c.06-.02.12-.05.17-.1.07-.07.11-.16.11-.26v-10.52c0-1.5-.28-2.7-.83-3.61-.06-.11-.13-.21-.2-.31Z"/>
        <path d="M128.27,13.73c-.22-.37-.5-.7-.83-.97,0,0,0,0,0,0,0,0-.01-.01-.02-.01-.55-.44-1.22-.72-1.95-.79-.06.01-.11.05-.16.09-.07.07-.11.16-.11.26v12.32s0,.02,0,.03c.15,1.72,1.52,3.09,3.24,3.24.09,0,.18-.04.25-.11.07-.07.11-.16.11-.26v-11.93c0-.45-.08-.87-.23-1.27-.08-.21-.18-.42-.29-.61Z"/>
        <path d="M137.86,11.69c-1.26,0-2.24.41-2.94,1.24-.06.08-.12.12-.17.11,0,0-.01,0-.01,0-.02,0-.04-.02-.05-.04-.02-.02-.05-.04-.07-.06,0,0,0,0,0,0-.01,0-.02-.01-.02-.02-.66-.53-1.47-.87-2.35-.95-.13-.02-.27-.02-.41-.02h-.38c-.06,0-.11.01-.15.03-.04.02-.07.04-.11.07-.07.07-.11.16-.11.26v12.04c0,.1,0,.19.01.29,0,.01,0,.02,0,.03.15,1.72,1.52,3.09,3.24,3.24h0c.09,0,.17-.04.23-.11.07-.07.11-.16.11-.26v-10.3c0-.76.17-1.36.5-1.8.22-.28.49-.48.82-.57.18-.05.37-.08.57-.08.58,0,1.02.21,1.33.62.31.41.46.99.46,1.74v7.35s0,.1.01.14c0,.01,0,.02,0,.03.15,1.72,1.52,3.09,3.24,3.24h0c.09,0,.17-.04.24-.11.07-.07.11-.16.11-.26v-10.67c0-1.65-.35-2.93-1.04-3.83s-1.71-1.35-3.05-1.35Z"/>
        <path d="M154.5,11.94s-.02,0-.03,0h-.11c-.2,0-.4.01-.59.04-.04,0-.08,0-.12.02-.91.13-1.74.51-2.41,1.07,0,0,0,0,0,0,0,0-.01.01-.02.02,0,0-.01,0-.02.01-.04.01-.08-.01-.12-.08-.68-.89-1.65-1.33-2.91-1.33-1.36,0-2.41.44-3.14,1.32-.74.88-1.1,2.11-1.1,3.7v6.07c0,1.45.32,2.62.95,3.5.04.06.09.12.13.18.72.9,1.78,1.35,3.16,1.35,1.26,0,2.23-.44,2.91-1.33.04-.06.08-.09.12-.08s.06.05.06.11v.34c0,.97-.11,1.75-.34,2.35-.23.6-.65,1.05-1.28,1.36-.16.08-.34.15-.53.2-.09.03-.19.05-.29.07,0,0,0,0,0,0-1.27.4-2.21,1.56-2.29,2.95h0c.02.21.14.32.37.34.23.02.57.03,1.02.03,2.23,0,3.88-.45,4.94-1.33.18-.15.34-.31.48-.48,1.01-1.21,1.52-2.93,1.52-5.16v-14.87c0-.1-.04-.19-.11-.26-.06-.06-.14-.1-.23-.11ZM151.24,22.53c0,.64-.17,1.16-.51,1.57s-.79.6-1.35.6-1.01-.2-1.36-.6c-.35-.4-.53-.93-.53-1.57v-5.55c0-.64.18-1.17.53-1.58.35-.41.81-.62,1.36-.62.18,0,.34.02.49.06.34.09.62.27.86.55.34.4.51.94.51,1.6v5.55Z"/>
        <path d="M162.32,11.69c-1.69,0-3.04.46-4.03,1.38-.14.13-.26.26-.38.4-.74.86-1.1,1.96-1.1,3.27v6.23c0,1.55.49,2.78,1.47,3.69.98.91,2.33,1.37,4.04,1.37,1.57,0,2.84-.37,3.79-1.13.1-.07.19-.15.28-.24.81-.75,1.29-1.73,1.43-2.92.03-.25.04-.5.04-.76v-6.23c0-1.53-.5-2.75-1.49-3.67-.99-.92-2.34-1.38-4.06-1.38ZM164.27,22.69c0,.66-.18,1.19-.54,1.6-.36.4-.83.6-1.41.6s-1.04-.2-1.39-.6c-.35-.4-.53-.94-.53-1.6v-5.7c0-.66.18-1.19.53-1.6.35-.4.82-.6,1.39-.6s1.05.21,1.41.62c.36.41.54.94.54,1.58v5.7Z"/>
        <path d="M179.63,21.13c-.44-.63-.96-1.12-1.55-1.46-.59-.34-1.32-.69-2.18-1.04-.72-.31-1.24-.54-1.55-.7s-.59-.37-.84-.64-.37-.6-.37-.99c0-.48.16-.88.48-1.22.32-.34.75-.51,1.29-.51s.94.17,1.28.5c.08.08.15.15.21.24,0,0,.01.01.02.02.71.93,1.83,1.53,3.09,1.53h.17s.06,0,.08,0c.07-.01.13-.05.18-.1.07-.07.11-.16.11-.26,0-1.45-.47-2.6-1.41-3.46-.74-.67-1.68-1.08-2.83-1.22-.32-.04-.65-.06-.99-.06-1.57,0-2.82.41-3.73,1.22-.92.82-1.38,1.95-1.38,3.39s.38,2.43,1.13,3.13c.75.7,1.72,1.28,2.9,1.74.81.33,1.36.57,1.67.71.31.14.6.36.87.64.27.28.4.62.4,1.04,0,.48-.15.87-.46,1.18-.31.31-.73.46-1.27.46s-1.03-.16-1.41-.5c-.06-.05-.11-.1-.15-.15,0,0,0,0,0,0-.05-.05-.09-.11-.13-.17-.74-.88-1.85-1.44-3.09-1.44h-.23s-.07,0-.11.01c-.06.02-.11.05-.16.1-.07.07-.11.16-.11.26v.22c0,1.34.49,2.41,1.46,3.19.8.65,1.82,1.03,3.07,1.14.27.02.55.04.84.04,1.65,0,2.96-.4,3.94-1.21.97-.81,1.46-1.9,1.46-3.29,0-.93-.22-1.71-.67-2.34Z"/>
      </g>
    </g>
    <path d="M18.96,24.16c0,2.62-.82,4.71-2.46,6.29-.29.28-.6.54-.93.77,1.46-1.55,2.19-3.55,2.19-6.02V.54c0-.16-.06-.29-.17-.41,0,0-.02-.02-.03-.03-.12-.09-.27-.12-.41-.11-.92.1-1.78.43-2.51.92-1.08-.39-2.28-.59-3.62-.59H2.84c-.16,0-.3.06-.41.17-.11.11-.17.25-.17.41v19.23c2.34.43,4.18,2.32,4.52,4.7,0,.07.02.15.03.22,0,0,0,0,0,.01.12.75.4,1.39.85,1.92.05.06.1.11.15.16V5.36c0-.16.08-.24.24-.24h2.82c.49,0,.93.08,1.33.24,0,.05,0,.1,0,.15v19.79c0,1.12-.31,2.03-.93,2.73-.62.7-1.43,1.05-2.42,1.05s-1.79-.35-2.39-1.05c-.45-.52-.74-1.16-.85-1.92,0,0,0,0,0-.01-.01-.07-.02-.15-.03-.22-.36-2.54-2.43-4.52-5-4.76-.13-.01-.27.02-.37.11,0,0,0,0,0,0-.14.12-.2.27-.2.44v3.54c0,2.52.76,4.55,2.26,6.11v1.94c0,.16.06.3.17.41.11.11.25.17.41.17h5.07c.31.02.62.04.95.04s.63-.01.94-.04h1.23c2.74,0,4.94-.83,6.58-2.49,1.64-1.66,2.46-3.88,2.46-6.65v-15.22c0-1.86-.37-3.47-1.11-4.83v19.52Z"/>
  </g>
</svg>