<?xml version="1.0" encoding="UTF-8"?>
<svg id="b" data-name="Camada 2" xmlns="http://www.w3.org/2000/svg" viewBox="0 0 704.25 317.02">
  <g id="c" data-name="Camada 2">
    <g>
      <g>
        <path d="M253.43,235.72h-13.86c-.6,0-.9.3-.9.9v61.2c0,.6.3.9.9.9h13.86c4.62,0,8.31-1.51,11.07-4.54,2.76-3.03,4.14-7.09,4.14-12.2v-29.52c0-5.1-1.38-9.17-4.14-12.2-2.76-3.03-6.45-4.54-11.07-4.54ZM262.15,281.71c-.06,3.48-.88,6.24-2.47,8.28-1.59,2.04-3.71,3.06-6.34,3.06l-7.92.09c-.24,0-.36-.12-.36-.36v-51.12c0-.24.12-.36.36-.36h7.92c2.76,0,4.92,1.02,6.48,3.06,1.56,2.04,2.34,4.83,2.34,8.37v28.98Z"/>
        <path d="M290.51,252.46c-4.26,0-7.66,1.28-10.21,3.83-2.55,2.55-3.82,5.87-3.82,9.94v19.44c0,4.14,1.27,7.47,3.82,9.99,2.55,2.52,5.96,3.78,10.21,3.78,3.9,0,7.07-1.04,9.5-3.1,2.43-2.07,3.88-4.87,4.37-8.42.06-.3,0-.54-.18-.72-.18-.18-.39-.27-.63-.27l-4.5-.18c-.48,0-.81.27-.99.81-.42,1.86-1.3,3.38-2.65,4.54-1.35,1.17-2.99,1.75-4.91,1.75-2.28,0-4.12-.79-5.54-2.38-1.41-1.59-2.12-3.64-2.12-6.17v-6.57c0-.24.12-.36.36-.36h20.52c.6,0,.9-.3.9-.9v-11.25c0-4.08-1.28-7.39-3.83-9.94-2.55-2.55-5.98-3.83-10.3-3.83ZM298.34,272.71c0,.24-.12.36-.36.36h-14.76c-.24,0-.36-.12-.36-.36v-6.03c0-2.58.71-4.66,2.12-6.25,1.41-1.59,3.25-2.38,5.54-2.38s4.23.8,5.67,2.38c1.44,1.59,2.16,3.68,2.16,6.25v6.03Z"/>
        <path d="M332.52,276.4c-1.59-.96-3.62-1.98-6.08-3.06-2.04-.9-3.63-1.67-4.77-2.29-1.14-.63-2.1-1.44-2.88-2.43-.78-.99-1.17-2.2-1.17-3.64,0-1.98.64-3.64,1.94-5,1.29-1.35,3.02-2.02,5.18-2.02s3.91.66,5.26,1.98c1.35,1.32,2.03,3,2.03,5.04v.54c0,.6.3.9.9.9h4.14c.6,0,.9-.3.9-.9v-.27c0-3.78-1.2-6.81-3.6-9.09-2.4-2.28-5.64-3.42-9.72-3.42s-7.22,1.11-9.59,3.33c-2.37,2.22-3.55,5.25-3.55,9.09,0,2.64.55,4.82,1.66,6.53s2.43,3.03,3.96,3.96c1.53.93,3.46,1.88,5.8,2.83,2.22.96,3.88,1.74,4.99,2.34,1.11.6,2.08,1.43,2.93,2.48.84,1.05,1.26,2.36,1.26,3.92,0,2.04-.66,3.72-1.98,5.04-1.32,1.32-3.06,1.98-5.22,1.98-2.28,0-4.13-.66-5.54-1.98-1.41-1.32-2.12-2.94-2.12-4.86v-.54c0-.6-.3-.9-.9-.9h-4.32c-.6,0-.9.3-.9.9v.63c0,3.54,1.24,6.38,3.73,8.5,2.49,2.13,5.8,3.2,9.95,3.2s7.53-1.11,9.99-3.33c2.46-2.22,3.69-5.19,3.69-8.91,0-2.58-.6-4.74-1.8-6.48-1.2-1.74-2.6-3.09-4.18-4.05Z"/>
        <path d="M348.82,234.82c-1.5,0-2.71.47-3.64,1.4-.93.93-1.39,2.15-1.39,3.64s.46,2.64,1.39,3.6c.93.96,2.14,1.44,3.64,1.44s2.62-.48,3.55-1.44c.93-.96,1.39-2.16,1.39-3.6s-.46-2.71-1.39-3.64c-.93-.93-2.12-1.4-3.55-1.4Z"/>
        <rect x="345.67" y="253.18" width="6.39" height="45.54" rx=".9" ry=".9"/>
        <path d="M387.23,253.18h-4.59c-.6,0-.9.3-.9.9v2.79c0,.18-.04.29-.13.31-.09.03-.2-.04-.31-.22-1.02-1.5-2.33-2.62-3.92-3.38-1.59-.75-3.29-1.12-5.08-1.12-3.78,0-6.77,1.25-8.96,3.73-2.19,2.49-3.29,5.84-3.29,10.04v18.99c0,4.14,1.09,7.47,3.29,9.99,2.19,2.52,5.17,3.78,8.96,3.78,1.8,0,3.49-.39,5.08-1.17,1.59-.78,2.89-1.92,3.92-3.42.12-.12.22-.15.31-.09.09.06.13.15.13.27v2.7c0,4.8-.96,8.35-2.88,10.67-1.92,2.31-5.28,3.41-10.08,3.29-.6,0-.9.3-.9.9v3.87c0,.6.3.93.9.99,6.96.3,11.92-1.21,14.89-4.54,2.97-3.33,4.46-8.21,4.46-14.62v-43.74c0-.6-.3-.9-.9-.9ZM381.74,284.86c0,2.52-.71,4.58-2.12,6.17-1.41,1.59-3.23,2.39-5.45,2.39s-4.14-.79-5.58-2.39c-1.44-1.59-2.16-3.64-2.16-6.17v-18.18c0-2.58.72-4.66,2.16-6.25,1.44-1.59,3.3-2.38,5.58-2.38s4.04.8,5.45,2.38c1.41,1.59,2.12,3.68,2.12,6.25v18.18Z"/>
        <path d="M412.56,252.55c-1.86,0-3.62.38-5.27,1.12-1.65.75-3.01,1.88-4.09,3.38-.06.18-.15.24-.27.18-.12-.06-.18-.15-.18-.27v-2.88c0-.6-.3-.9-.9-.9h-4.59c-.6,0-.9.3-.9.9v43.74c0,.6.3.9.9.9h4.59c.6,0,.9-.3.9-.9v-29.97c0-3,.68-5.37,2.03-7.11,1.35-1.74,3.22-2.61,5.62-2.61s4.06.81,5.36,2.43c1.29,1.62,1.94,3.9,1.94,6.84v30.42c0,.6.3.9.9.9h4.59c.6,0,.9-.3.9-.9v-30.96c0-4.5-1.01-8.01-3.01-10.53-2.01-2.52-4.85-3.78-8.51-3.78Z"/>
      </g>
      <path d="M325.18,102.45h.25c7.33-.04,13.05-1.81,17.16-5.31,4.15-3.54,6.56-8.61,7.22-15.22.09-.57-.03-1.02-.36-1.35-.22-.22-.47-.37-.75-.44-.11-.03-.23-.05-.36-.05-.03,0-.06-.02-.09,0l-3.79-.17h0c-5.04.25-9.6,2.36-13,5.64-.15.18-.32.35-.5.5-.07.07-.13.13-.2.19-1.56,1.37-3.42,2.06-5.59,2.06-2.55,0-4.63-.94-6.23-2.83-1.61-1.89-2.41-4.29-2.41-7.23v-6.37c0-.47.23-.71.71-.71h31.29c.47,0,.87-.16,1.2-.49.33-.33.5-.73.5-1.21v-18.69c0-6.89-2.25-12.43-6.73-16.63-4.48-4.2-10.59-6.31-18.33-6.31s-13.86,2.1-18.34,6.31c-4.48,4.2-6.73,9.74-6.73,16.63v28.74c0,7.09,2.25,12.68,6.73,16.78,4.48,4.11,10.6,6.16,18.34,6.16ZM316.54,52.03c0-2.93.79-5.33,2.41-7.22,1.6-1.89,3.68-2.83,6.23-2.83s4.77.93,6.37,2.77c1.6,1.84,2.41,4.27,2.41,7.29v6.37c0,.47-.24.71-.71.71h-16c-.48,0-.71-.24-.71-.71v-6.37Z"/>
      <path d="M362.4,41.41v46.89c0,8.55,6.61,15.57,15,16.2.35.01.74-.17,1-.46.25-.29.29-.95.29-1.18v-61.44c0-.39.16-.61.47-.68.08-.02.15-.03.24-.03h.04c.11-.01.21-.03.31-.05h7.57c.13.03.26.05.4.05h4.53c.47,0,.71.24.71.71v46.89c0,8.55,6.61,15.57,15,16.2.35.01.74-.17,1-.46.25-.29.29-.95.29-1.18v-61.44c0-.39.16-.61.47-.68.08-.02.15-.03.24-.03h.04c.33-.04.66-.08.98-.15,5-1.02,8.86-5.19,9.4-10.35-.07-.28-.22-.54-.43-.76-.33-.33-.74-.5-1.21-.5h-8.78c-.47,0-.71-.24-.71-.71v-2.83c0-3.56.65-6.2,1.94-7.96.02-.02.03-.03.04-.05.5-.66,1.09-1.2,1.8-1.61,4.17-2.55,6.97-7.23,6.97-12.57,0-.22-.05-.81-.34-1.1-.29-.29-.74-.49-1.21-.49h-1.13c-8.5-.09-14.68,1.6-18.55,5.1-1.67,1.51-2.98,3.48-3.93,5.93-1.26,3.21-1.88,7.23-1.88,12.05v3.54c0,.24-.06.42-.18.53h0c-.07.08-.15.12-.25.14-.03.02-.06.04-.1.06h-3.97c-.09-.01-.18-.03-.27-.03h-8.78c-.47,0-.71-.24-.71-.71v-2.83c0-3.56.65-6.2,1.94-7.96.02-.02.03-.03.04-.05.5-.66,1.09-1.2,1.8-1.61,4.17-2.55,6.97-7.23,6.97-12.57,0-.22-.05-.81-.34-1.1-.29-.29-.74-.49-1.21-.49h-1.13c-8.5-.09-14.68,1.6-18.55,5.1-1.67,1.51-2.98,3.48-3.93,5.93-1.26,3.21-1.88,7.23-1.88,12.05v3.54c0,.24-.06.42-.18.53h0c-.07.08-.15.12-.25.14-3.69,2.02-6.25,5.86-6.48,10.32.04.38.2.71.47.98.33.33.74.49,1.21.49h4.53c.47,0,.71.24.71.71Z"/>
      <path d="M244.69,95.9c4.76,4.37,10.91,6.55,18.48,6.55s14.19-2.34,19.05-7.01c4.86-4.67,7.3-10.87,7.3-18.62V3.84c0-.46-.17-.87-.5-1.2-.03-.03-.07-.06-.1-.08-.34-.25-.79-.36-1.22-.31-8.22.89-14.61,7.84-14.61,16.29v58.56c0,3.31-.92,6-2.76,8.08-1.84,2.08-4.23,3.11-7.15,3.11s-5.29-1.03-7.08-3.11c-1.34-1.56-2.18-3.45-2.52-5.68v-.03c-.03-.22-.06-.43-.08-.66-1.08-7.5-7.19-13.38-14.8-14.09-.4-.03-.8.07-1.1.32-.41.35-.6.78-.6,1.3v10.48c0,7.75,2.41,13.95,7.22,18.62.17.16.33.31.49.46Z"/>
      <path d="M265.18,113.37h-24.22c-.47,0-.87.16-1.2.49s-.5.74-.5,1.21v95.73c0,.47.17.87.5,1.2s.73.5,1.2.5h24.22c8.12,0,14.6-2.45,19.46-7.37,4.86-4.9,7.3-11.47,7.3-19.68v-45.03c0-8.21-2.44-14.77-7.3-19.68-4.86-4.91-11.35-7.36-19.46-7.36ZM275.51,184.45c-.09,4.15-1.11,7.49-3.05,9.99s-4.46,3.75-7.57,3.75l-8.5.14c-.47,0-.71-.23-.71-.71v-69.38c0-.47.24-.71.71-.71h8.36c3.3,0,5.92,1.25,7.85,3.75s2.91,5.88,2.91,10.13v43.04Z"/>
      <path d="M344.86,207.39c4.47-4.14,6.72-9.77,6.72-16.85v-28.46c0-5.13-1.22-9.51-3.66-13.13-.88-1.31-1.93-2.53-3.13-3.65-4.53-4.19-10.71-6.3-18.55-6.3s-13.88,2.1-18.41,6.3c-4.53,4.2-6.8,9.8-6.8,16.78v28.46c0,7.08,2.24,12.71,6.72,16.85,4.48,4.16,10.65,6.24,18.48,6.24s14.13-2.08,18.62-6.24ZM319.86,196.56c-1.6-1.84-2.41-4.28-2.41-7.3v-26.05c0-3.02.8-5.46,2.41-7.3,1.6-1.83,3.73-2.76,6.37-2.76s4.79.94,6.45,2.83c1.64,1.89,2.47,4.29,2.47,7.22v26.05c0,3.02-.83,5.46-2.47,7.3-1.66,1.84-3.8,2.76-6.45,2.76s-4.77-.92-6.37-2.76Z"/>
      <path d="M437.77,145.44c-3.16-4.3-7.81-6.44-13.94-6.44-2.93,0-5.83.66-8.71,1.98-2.88,1.32-5.26,3.49-7.15,6.51-.57.66-.99.8-1.27.42-3.31-5.95-8.46-8.92-15.44-8.92-2.27,0-4.58.42-6.94,1.27-2.36.85-4.48,2.22-6.37,4.11-.19.28-.38.38-.57.28,0,0-.02-.02-.03-.02-.05-.02-.09-.06-.1-.08-3.46-2.77-7.84-4.43-12.63-4.43h-2.1c-.31,0-.58.07-.83.22-.13.07-.25.16-.37.27-.34.33-.5.74-.5,1.21v54.94c0,8.57,6.62,15.61,15.03,16.29.29-.08.55-.23.76-.44.33-.33.49-.73.49-1.2v-47.07c0-3.49.75-6.23,2.27-8.21,1.1-1.45,2.52-2.38,4.24-2.76.62-.15,1.28-.22,1.99-.22,2.36,0,4.28.99,5.74,2.97,1.46,1.98,2.19,4.77,2.19,8.35v33.73c.7,7.9,7.03,14.2,14.96,14.84h.06c.29-.07.55-.22.77-.44.33-.33.5-.73.5-1.2v-47.07c0-3.49.76-6.23,2.27-8.21,1.5-1.98,3.59-2.97,6.23-2.97,2.45,0,4.39.99,5.81,2.97,1.42,1.98,2.12,4.77,2.12,8.35v33.73c.7,7.9,7.03,14.2,14.96,14.84h.06c.29-.08.54-.22.76-.44.33-.33.5-.73.5-1.2v-48.06c0-6.85-1.27-12.36-3.81-16.52-.29-.49-.6-.95-.93-1.4Z"/>
      <path d="M460.53,110.11c-2.93,0-5.33.94-7.22,2.83-1.89,1.89-2.83,4.29-2.83,7.22s.94,5.33,2.83,7.22c1.89,1.89,4.3,2.83,7.22,2.83s5.19-.94,7.08-2.83c1.89-1.89,2.83-4.29,2.83-7.22s-.92-5.33-2.77-7.22c-1.84-1.89-4.22-2.83-7.15-2.83Z"/>
      <path d="M466.51,148.33c-.99-1.7-2.29-3.19-3.81-4.44,0,0-.02-.02-.02-.02-.04-.02-.06-.05-.09-.07-2.49-1.99-5.56-3.29-8.92-3.6-.27.07-.51.21-.72.42-.33.33-.49.74-.49,1.21v56.31s0,.09,0,.14c.69,7.84,6.95,14.11,14.8,14.82.43,0,.8-.18,1.12-.49.32-.33.49-.73.49-1.2v-54.52c0-2.04-.36-3.98-1.03-5.79-.36-.97-.8-1.91-1.34-2.78Z"/>
      <path d="M510.34,139c-5.76,0-10.24,1.89-13.45,5.66-.28.38-.54.55-.77.49-.02,0-.05,0-.07-.03-.11-.03-.2-.09-.24-.2-.1-.1-.21-.19-.31-.27,0,0-.02-.02-.02-.02-.05-.02-.08-.06-.11-.08-3-2.41-6.7-3.97-10.74-4.33-.61-.08-1.25-.09-1.87-.09h-1.73c-.25,0-.49.05-.71.15-.18.08-.34.19-.49.34-.34.33-.5.74-.5,1.21v55c0,.44.02.88.06,1.31,0,.05,0,.09,0,.14.69,7.84,6.94,14.1,14.79,14.82h0c.42-.03.77-.2,1.07-.49.33-.33.49-.73.49-1.2v-47.07c0-3.49.75-6.23,2.27-8.21.99-1.29,2.24-2.17,3.75-2.61.8-.25,1.68-.36,2.62-.36,2.64,0,4.67.94,6.09,2.83,1.42,1.89,2.12,4.53,2.12,7.93v33.57c.02.22.03.43.05.65,0,.05,0,.09,0,.14.69,7.84,6.94,14.1,14.79,14.82h0c.42-.02.77-.19,1.08-.49.33-.33.49-.73.49-1.2v-48.77c0-7.55-1.58-13.39-4.74-17.49-3.16-4.11-7.82-6.15-13.95-6.15Z"/>
      <path d="M586.36,140.14s-.09,0-.14,0h-.5c-.92,0-1.82.06-2.7.17-.19.02-.37.04-.56.08-4.16.6-7.96,2.35-11.03,4.91,0,0-.02,0-.02.03-.03.03-.06.07-.1.08-.03.03-.06.04-.09.05-.19.06-.38-.07-.57-.35-3.11-4.06-7.55-6.09-13.31-6.09-6.23,0-11.02,2-14.37,6.01-3.36,4.02-5.03,9.66-5.03,16.92v27.75c0,6.63,1.44,11.95,4.34,15.97.2.27.4.55.61.81,3.3,4.11,8.12,6.16,14.44,6.16,5.76,0,10.19-2.03,13.31-6.1.19-.28.38-.4.57-.35s.28.22.28.49v1.57c0,4.43-.52,8.01-1.56,10.76-1.04,2.74-2.99,4.81-5.87,6.23-.73.36-1.54.67-2.43.93-.42.13-.86.25-1.31.34,0,0,0,0-.02,0-5.82,1.82-10.12,7.12-10.46,13.47v.03c.1.93.66,1.43,1.68,1.51,1.04.09,2.6.14,4.67.14,10.2,0,17.73-2.04,22.58-6.1.81-.68,1.54-1.41,2.2-2.19,4.62-5.52,6.94-13.38,6.94-23.58v-67.96c0-.47-.16-.88-.49-1.21-.29-.29-.65-.45-1.07-.48ZM571.5,188.56c0,2.93-.77,5.31-2.33,7.16-1.56,1.84-3.62,2.76-6.16,2.76s-4.63-.92-6.23-2.76c-1.6-1.84-2.41-4.23-2.41-7.16v-25.34c0-2.93.8-5.33,2.41-7.22,1.6-1.89,3.68-2.83,6.23-2.83.8,0,1.55.08,2.26.26,1.54.41,2.84,1.24,3.91,2.49,1.56,1.84,2.33,4.28,2.33,7.3v25.34Z"/>
      <path d="M622.12,139c-7.74,0-13.88,2.1-18.41,6.3-.63.59-1.21,1.19-1.76,1.83-3.36,3.95-5.04,8.94-5.04,14.95v28.46c0,7.08,2.25,12.71,6.73,16.85,4.48,4.16,10.64,6.24,18.47,6.24,7.19,0,12.98-1.71,17.34-5.15.44-.33.87-.7,1.28-1.09,3.72-3.44,5.89-7.89,6.52-13.36.13-1.12.2-2.28.2-3.49v-28.46c0-6.99-2.27-12.58-6.8-16.78-4.53-4.19-10.71-6.3-18.55-6.3ZM631.04,189.26c0,3.02-.82,5.46-2.47,7.3-1.65,1.84-3.8,2.76-6.45,2.76s-4.77-.92-6.37-2.76c-1.6-1.84-2.41-4.28-2.41-7.3v-26.05c0-3.02.8-5.46,2.41-7.3,1.6-1.83,3.73-2.76,6.37-2.76s4.79.94,6.45,2.83c1.65,1.89,2.47,4.29,2.47,7.22v26.05Z"/>
      <path d="M701.2,182.12c-2.03-2.88-4.39-5.1-7.08-6.65-2.69-1.56-6.01-3.14-9.98-4.75-3.3-1.42-5.66-2.47-7.08-3.18s-2.69-1.68-3.82-2.91c-1.13-1.23-1.7-2.74-1.7-4.53,0-2.17.73-4.04,2.19-5.6,1.46-1.55,3.42-2.33,5.88-2.33s4.31.76,5.87,2.27c.36.35.67.71.94,1.09.03.03.06.07.08.1,3.25,4.26,8.37,7.01,14.14,7.01h.77c.13,0,.25,0,.38-.04.31-.07.59-.22.82-.45.33-.33.5-.74.5-1.21,0-6.61-2.15-11.87-6.45-15.79-3.37-3.08-7.68-4.94-12.94-5.59-1.44-.19-2.96-.28-4.54-.28-7.17,0-12.87,1.86-17.07,5.59-4.2,3.74-6.31,8.9-6.31,15.51s1.73,11.09,5.17,14.3c3.45,3.21,7.86,5.85,13.24,7.93,3.68,1.51,6.23,2.6,7.65,3.26,1.42.66,2.74,1.63,3.96,2.91,1.23,1.27,1.84,2.85,1.84,4.74,0,2.18-.71,3.96-2.12,5.38-1.42,1.42-3.35,2.12-5.81,2.12s-4.7-.75-6.45-2.27c-.25-.22-.49-.44-.71-.68,0,0-.02-.03-.03-.04-.23-.25-.42-.49-.6-.76-3.38-4.03-8.45-6.6-14.12-6.6h-1.03c-.17,0-.33.02-.48.07-.27.08-.51.22-.73.43-.33.33-.5.73-.5,1.2v.99c0,6.15,2.22,11.01,6.66,14.58,3.65,2.95,8.33,4.7,14.02,5.22,1.23.11,2.5.17,3.82.17,7.55,0,13.55-1.84,17.98-5.52,4.44-3.69,6.66-8.69,6.66-15.02,0-4.25-1.02-7.81-3.05-10.69Z"/>
      <path d="M168.75,215.11c0,23.29-7.32,41.97-21.94,56.03-2.61,2.5-5.36,4.77-8.25,6.83,12.99-13.75,19.5-31.6,19.5-53.56V4.85c0-1.41-.49-2.62-1.49-3.62-.08-.08-.19-.17-.31-.25-1.04-.78-2.38-1.08-3.68-.94-8.21.89-15.8,3.8-22.3,8.21-9.57-3.5-20.29-5.27-32.18-5.27H25.25c-1.43,0-2.63.5-3.62,1.49-1,1-1.49,2.2-1.49,3.62v171.21c20.87,3.82,37.19,20.66,40.23,41.8.08.67.16,1.33.25,1.98,0,.04,0,.07.01.09,1.02,6.72,3.55,12.41,7.58,17.08.44.51.89.98,1.35,1.45V47.71c0-1.42.71-2.13,2.13-2.13h25.14c4.34,0,8.29.73,11.85,2.17-.01.44-.03.88-.03,1.32v176.2c0,9.95-2.77,18.04-8.3,24.29-5.55,6.25-12.72,9.37-21.52,9.37s-15.91-3.11-21.3-9.37c-4.03-4.67-6.56-10.36-7.58-17.08-.01-.03-.01-.05-.01-.09-.09-.65-.17-1.32-.25-1.98-3.25-22.57-21.64-40.25-44.54-42.39-1.18-.11-2.4.18-3.31.94,0,0-.01.01-.02.02-1.21,1.05-1.81,2.37-1.81,3.92v31.53c0,22.41,6.73,40.53,20.13,54.39v17.3c0,1.42.49,2.63,1.49,3.62.99,1,2.2,1.49,3.62,1.49h45.15c2.74.21,5.54.31,8.42.31s5.65-.11,8.38-.31h10.91c24.42,0,43.95-7.38,58.58-22.15,14.63-14.77,21.94-34.51,21.94-59.22V84.35c0-16.56-3.3-30.88-9.88-42.98v173.73Z"/>
    </g>
  </g>
</svg>