<?xml version="1.0" encoding="UTF-8"?>
<svg id="a" data-name="Camada 2" xmlns="http://www.w3.org/2000/svg" viewBox="0 0 146.97 34">
  <g>
    <path d="M19.16,26.01h.06c1.59,0,2.84-.39,3.73-1.15.9-.77,1.43-1.87,1.57-3.31.02-.12,0-.22-.08-.29-.05-.05-.1-.08-.16-.1-.02,0-.05-.01-.08-.01,0,0-.01,0-.02,0l-.82-.04h0c-1.09.06-2.09.51-2.82,1.23-.03.04-.07.08-.11.11-.01.01-.03.03-.04.04-.34.3-.74.45-1.21.45-.55,0-1.01-.21-1.35-.62-.35-.41-.52-.93-.52-1.57v-1.38c0-.1.05-.15.15-.15h6.8c.1,0,.19-.03.26-.11.07-.07.11-.16.11-.26v-4.06c0-1.5-.49-2.7-1.46-3.61-.97-.91-2.3-1.37-3.98-1.37s-3.01.46-3.98,1.37c-.97.91-1.46,2.12-1.46,3.61v6.24c0,1.54.49,2.75,1.46,3.65.97.89,2.3,1.34,3.98,1.34ZM17.29,15.06c0-.64.17-1.16.52-1.57.35-.41.8-.62,1.35-.62s1.04.2,1.38.6c.35.4.52.93.52,1.58v1.38c0,.1-.05.15-.15.15h-3.48c-.1,0-.15-.05-.15-.15v-1.38Z"/>
    <path d="M27.25,12.75v10.19c0,1.86,1.44,3.38,3.26,3.52.08,0,.16-.04.22-.1.05-.06.06-.21.06-.26v-13.35c0-.08.03-.13.1-.15.02,0,.03,0,.05,0h0s.05,0,.07-.01h1.64s.06.01.09.01h.98c.1,0,.15.05.15.15v10.19c0,1.86,1.44,3.38,3.26,3.52.08,0,.16-.04.22-.1.05-.06.06-.21.06-.26v-13.35c0-.08.03-.13.1-.15.02,0,.03,0,.05,0h0c.07,0,.14-.02.21-.03,1.09-.22,1.93-1.13,2.04-2.25-.01-.06-.05-.12-.09-.16-.07-.07-.16-.11-.26-.11h-1.91c-.1,0-.15-.05-.15-.15v-.62c0-.77.14-1.35.42-1.73,0,0,0,0,0-.01.11-.14.24-.26.39-.35.91-.55,1.51-1.57,1.51-2.73,0-.05-.01-.18-.07-.24-.06-.06-.16-.11-.26-.11h-.25c-1.85-.02-3.19.35-4.03,1.11-.36.33-.65.76-.85,1.29-.27.7-.41,1.57-.41,2.62v.77c0,.05-.01.09-.04.11h0s-.03.03-.06.03c0,0-.01,0-.02.01h-.86s-.04,0-.06,0h-1.91c-.1,0-.15-.05-.15-.15v-.62c0-.77.14-1.35.42-1.73,0,0,0,0,0-.01.11-.14.24-.26.39-.35.91-.55,1.51-1.57,1.51-2.73,0-.05-.01-.18-.07-.24-.06-.06-.16-.11-.26-.11h-.25c-1.85-.02-3.19.35-4.03,1.11-.36.33-.65.76-.85,1.29-.27.7-.41,1.57-.41,2.62v.77c0,.05-.01.09-.04.11h0s-.03.03-.06.03c-.8.44-1.36,1.27-1.41,2.24,0,.08.04.15.1.21.07.07.16.11.26.11h.98c.1,0,.15.05.15.15Z"/>
    <path d="M1.68,24.59c1.03.95,2.37,1.42,4.02,1.42s3.08-.51,4.14-1.52c1.06-1.02,1.59-2.36,1.59-4.05V4.59c0-.1-.04-.19-.11-.26,0,0-.01-.01-.02-.02-.07-.06-.17-.08-.26-.07-1.79.19-3.17,1.7-3.17,3.54v12.72c0,.72-.2,1.3-.6,1.76-.4.45-.92.67-1.55.67s-1.15-.22-1.54-.67c-.29-.34-.47-.75-.55-1.23h0c0-.05-.01-.1-.02-.15-.23-1.63-1.56-2.91-3.22-3.06-.09,0-.17.01-.24.07-.09.08-.13.17-.13.28v2.28c0,1.68.52,3.03,1.57,4.05.04.03.07.07.11.1Z"/>
  </g>
  <g>
    <path d="M51.58,4.42h-5.26c-.1,0-.19.03-.26.11s-.11.16-.11.26v20.8c0,.1.04.19.11.26s.16.11.26.11h5.26c1.76,0,3.17-.53,4.23-1.6,1.06-1.06,1.59-2.49,1.59-4.28v-9.78c0-1.78-.53-3.21-1.59-4.28-1.06-1.07-2.46-1.6-4.23-1.6ZM53.83,19.86c-.02.9-.24,1.63-.66,2.17s-.97.81-1.64.81l-1.85.03c-.1,0-.15-.05-.15-.15V7.65c0-.1.05-.15.15-.15h1.82c.72,0,1.29.27,1.71.81s.63,1.28.63,2.2v9.35Z"/>
    <path d="M68.89,24.84c.97-.9,1.46-2.12,1.46-3.66v-6.18c0-1.11-.26-2.07-.8-2.85-.19-.29-.42-.55-.68-.79-.98-.91-2.33-1.37-4.03-1.37s-3.01.46-4,1.37c-.98.91-1.48,2.13-1.48,3.65v6.18c0,1.54.49,2.76,1.46,3.66.97.9,2.31,1.36,4.02,1.36s3.07-.45,4.05-1.36ZM63.46,22.49c-.35-.4-.52-.93-.52-1.59v-5.66c0-.66.17-1.19.52-1.59.35-.4.81-.6,1.38-.6s1.04.21,1.4.62c.36.41.54.93.54,1.57v5.66c0,.66-.18,1.19-.54,1.59-.36.4-.83.6-1.4.6s-1.04-.2-1.38-.6Z"/>
    <path d="M89.08,11.38c-.69-.93-1.7-1.4-3.03-1.4-.64,0-1.27.14-1.89.43-.63.29-1.14.76-1.55,1.42-.12.14-.22.17-.28.09-.72-1.29-1.84-1.94-3.35-1.94-.49,0-.99.09-1.51.28-.51.18-.97.48-1.38.89-.04.06-.08.08-.12.06,0,0,0,0,0,0-.01,0-.02-.01-.02-.02-.75-.6-1.7-.96-2.74-.96h-.46c-.07,0-.13.01-.18.05-.03.01-.06.03-.08.06-.07.07-.11.16-.11.26v11.93c0,1.86,1.44,3.39,3.26,3.54.06-.02.12-.05.17-.1.07-.07.11-.16.11-.26v-10.23c0-.76.16-1.35.49-1.78.24-.32.55-.52.92-.6.14-.03.28-.05.43-.05.51,0,.93.22,1.25.65.32.43.48,1.04.48,1.81v7.33c.15,1.72,1.53,3.08,3.25,3.22h.01c.06-.01.12-.05.17-.1.07-.07.11-.16.11-.26v-10.23c0-.76.16-1.35.49-1.78.33-.43.78-.65,1.35-.65.53,0,.95.22,1.26.65.31.43.46,1.04.46,1.81v7.33c.15,1.72,1.53,3.08,3.25,3.22h.01c.06-.02.12-.05.17-.1.07-.07.11-.16.11-.26v-10.44c0-1.49-.28-2.68-.83-3.59-.06-.11-.13-.21-.2-.3Z"/>
    <path d="M94.02,3.71c-.64,0-1.16.21-1.57.62-.41.41-.62.93-.62,1.57s.21,1.16.62,1.57c.41.41.93.62,1.57.62s1.13-.21,1.54-.62c.41-.41.62-.93.62-1.57s-.2-1.16-.6-1.57c-.4-.41-.92-.62-1.55-.62Z"/>
    <path d="M95.32,12.01c-.22-.37-.5-.69-.83-.96,0,0,0,0,0,0,0,0-.01-.01-.02-.01-.54-.43-1.21-.72-1.94-.78-.06.01-.11.05-.16.09-.07.07-.11.16-.11.26v12.23s0,.02,0,.03c.15,1.7,1.51,3.07,3.22,3.22.09,0,.17-.04.24-.11.07-.07.11-.16.11-.26v-11.84c0-.44-.08-.87-.22-1.26-.08-.21-.17-.41-.29-.6Z"/>
    <path d="M104.85,9.99c-1.25,0-2.23.41-2.92,1.23-.06.08-.12.12-.17.11,0,0-.01,0-.01,0-.02,0-.04-.02-.05-.04-.02-.02-.05-.04-.07-.06,0,0,0,0,0,0-.01,0-.02-.01-.02-.02-.65-.52-1.46-.86-2.33-.94-.13-.02-.27-.02-.41-.02h-.38c-.06,0-.11.01-.15.03-.04.02-.07.04-.11.07-.07.07-.11.16-.11.26v11.95c0,.1,0,.19.01.29,0,.01,0,.02,0,.03.15,1.7,1.51,3.06,3.21,3.22h0c.09,0,.17-.04.23-.11.07-.07.11-.16.11-.26v-10.23c0-.76.16-1.35.49-1.78.22-.28.49-.47.81-.57.17-.05.37-.08.57-.08.57,0,1.02.21,1.32.62.31.41.46.98.46,1.72v7.29s0,.09.01.14c0,.01,0,.02,0,.03.15,1.7,1.51,3.06,3.21,3.22h0c.09,0,.17-.04.23-.11.07-.07.11-.16.11-.26v-10.6c0-1.64-.34-2.91-1.03-3.8s-1.7-1.34-3.03-1.34Z"/>
    <path d="M121.36,10.23s-.02,0-.03,0h-.11c-.2,0-.4.01-.59.04-.04,0-.08,0-.12.02-.9.13-1.73.51-2.4,1.07,0,0,0,0,0,0,0,0-.01.01-.02.02,0,0-.01,0-.02.01-.04.01-.08-.01-.12-.08-.68-.88-1.64-1.32-2.89-1.32-1.35,0-2.4.43-3.12,1.31-.73.87-1.09,2.1-1.09,3.68v6.03c0,1.44.31,2.6.94,3.47.04.06.09.12.13.18.72.89,1.76,1.34,3.14,1.34,1.25,0,2.21-.44,2.89-1.32.04-.06.08-.09.12-.08s.06.05.06.11v.34c0,.96-.11,1.74-.34,2.34-.23.59-.65,1.05-1.28,1.35-.16.08-.33.15-.53.2-.09.03-.19.05-.28.07,0,0,0,0,0,0-1.27.4-2.2,1.55-2.27,2.93h0c.02.21.14.32.37.33.23.02.56.03,1.02.03,2.22,0,3.85-.44,4.91-1.32.18-.15.33-.31.48-.48,1-1.2,1.51-2.91,1.51-5.12v-14.77c0-.1-.03-.19-.11-.26-.06-.06-.14-.1-.23-.1ZM118.13,20.75c0,.64-.17,1.15-.51,1.55s-.79.6-1.34.6-1-.2-1.35-.6c-.35-.4-.52-.92-.52-1.55v-5.51c0-.64.17-1.16.52-1.57.35-.41.8-.62,1.35-.62.17,0,.34.02.49.06.33.09.62.27.85.54.34.4.51.93.51,1.59v5.51Z"/>
    <path d="M129.13,9.99c-1.68,0-3.01.46-4,1.37-.14.13-.26.26-.38.4-.73.86-1.1,1.94-1.1,3.25v6.18c0,1.54.49,2.76,1.46,3.66.97.9,2.31,1.36,4.01,1.36,1.56,0,2.82-.37,3.77-1.12.1-.07.19-.15.28-.24.81-.75,1.28-1.71,1.42-2.9.03-.24.04-.5.04-.76v-6.18c0-1.52-.49-2.73-1.48-3.65-.98-.91-2.33-1.37-4.03-1.37ZM131.07,20.91c0,.66-.18,1.19-.54,1.59-.36.4-.83.6-1.4.6s-1.04-.2-1.38-.6c-.35-.4-.52-.93-.52-1.59v-5.66c0-.66.17-1.19.52-1.59.35-.4.81-.6,1.38-.6s1.04.21,1.4.62c.36.41.54.93.54,1.57v5.66Z"/>
    <path d="M146.31,19.35c-.44-.63-.95-1.11-1.54-1.45-.58-.34-1.31-.68-2.17-1.03-.72-.31-1.23-.54-1.54-.69s-.58-.37-.83-.63-.37-.59-.37-.98c0-.47.16-.88.48-1.22.32-.34.74-.51,1.28-.51s.94.16,1.28.49c.08.08.15.15.2.24,0,0,.01.01.02.02.71.92,1.82,1.52,3.07,1.52h.17s.06,0,.08,0c.07-.01.13-.05.18-.1.07-.07.11-.16.11-.26,0-1.44-.47-2.58-1.4-3.43-.73-.67-1.67-1.07-2.81-1.21-.31-.04-.64-.06-.99-.06-1.56,0-2.8.4-3.71,1.21-.91.81-1.37,1.93-1.37,3.37s.38,2.41,1.12,3.11c.75.7,1.71,1.27,2.88,1.72.8.33,1.35.56,1.66.71.31.14.59.35.86.63.27.28.4.62.4,1.03,0,.47-.15.86-.46,1.17-.31.31-.73.46-1.26.46s-1.02-.16-1.4-.49c-.06-.05-.11-.1-.15-.15,0,0,0,0,0,0-.05-.05-.09-.11-.13-.16-.73-.88-1.84-1.43-3.07-1.43h-.22s-.07,0-.1.01c-.06.02-.11.05-.16.09-.07.07-.11.16-.11.26v.22c0,1.34.48,2.39,1.45,3.17.79.64,1.81,1.02,3.05,1.13.27.02.54.04.83.04,1.64,0,2.94-.4,3.91-1.2.96-.8,1.45-1.89,1.45-3.26,0-.92-.22-1.7-.66-2.32Z"/>
  </g>
</svg>