<?xml version="1.0" encoding="UTF-8"?>
<svg id="Camada_1" data-name="Camada 1" xmlns="http://www.w3.org/2000/svg" viewBox="0 0 1920 483.68">
  <defs>
    <style>
      .cls-1 {
        fill: #878788;
      }

      .cls-2 {
        fill: #141414;
      }

      .cls-3 {
        fill: #0c0c0c;
      }
    </style>
  </defs>
  <polygon id="Mesa" points="1471.61 406.39 448.39 406.39 0 483.68 1920 483.68 1471.61 406.39"/>
  <path id="Corpo" d="M1170.6,437.1c1.58-1.24,3.42-3.42,5.24-6.84,1.3-2.44,2.2-4.94,3.2-7.51,2.02-5.2,2.25-9.86,2.03-15.26-.18-4.3-.26-8.18-1.58-12.33l-4.13-13.07s0-.03-.02-.04l-12.29-31.64-8.73-21.3s-.02-.05-.03-.08l-1.64-6.03s-.02-.06-.03-.1l-4.48-11.18s-.02-.06-.03-.09c-.9-3.38-2.07-6.64-3.95-9.91-.07-.12-.1-.26-.09-.4.62-7.33-3.07-13.46-5.44-19.92-.02-.05-.03-.1-.04-.16-.57-4.36-1.31-8.77-2.48-13.12-3.95-14.77-8.98-28.67-16.99-41.91-2.52-4.45-5.65-8.23-9.44-11.73-.13-.12-.2-.28-.22-.45-.39-3.5-3.25-5.59-6.86-5.76-.07,0-.14-.02-.21-.04l-17.21-6.08c-.1-.04-.2-.1-.27-.17-2.51-2.48-5.97-3.96-9.71-2.67-.09.03-.18.05-.28.04-2.5-.11-5.2-.5-7.49-1.45l-5.82-2.4c-4.13-1.71-7.59-2.92-12.05-3.81-10.44-2.08-15.59-6.83-19.18-7.24-3.03-.34-5.27-1.31-7.84-2.88-3.78-2.3-7.89,1.11-14.1-4.58-.03-.02-.06-.05-.08-.07,0,0-.21-22.49-.38-23.51-3.64-22.74-19.14-39.15-39.35-39.15-21.58,0-37.5,15.69-39.42,40.73h0c-.3,3.32-.31,6.67.11,9.97.52,4.03-.28,8.76-.34,12.61,0,.03,0,.06,0,.08-.13,3-4.62,3.63-6.85,3.55-2.62-.1-5.14,2.59-7.12,3.22-.06.02-.11.03-.17.03-5.24.54-8.54,2.06-12.74,4.95-3.62,2.5-9.19,4.31-13.7,4.68-4.21.33-7.79,1.33-10.47,4.38-.09.1-.21.18-.35.22l-5.05,1.51c-4.7,1.4-8.48,2.55-13.58,2.37-1.32-.05-3.76,1.46-5.14,1.95l-18.67,6.75c-.08.03-.17.04-.26.04-3.87-.03-6.45,2.69-6.74,6.22-.01.18-.1.36-.23.48-3.91,3.55-7.3,7.09-10.05,11.38-7.11,10.45-12.22,21.31-16.81,32.96-1.69,4.29-5.11,8.1-7.05,11.86-2.88,5.58-5.57,9.51-5.18,16.13.2,3.27-4.17,6.95-5.41,9.88l-2.77,6.51s-.02.05-.04.08l-7.36,12.75c-.04.08-.07.16-.09.24l-.44,2.9c-.01.08-.04.16-.08.23l-9.11,23.69-18.54,38.88s-.02.05-.03.07l-3.05,8.7c-2.94,8.38-4.47,19.46-1.26,27.44l3.57,8.92c7.28,17.5,404.37,23.73,426.38,6.46ZM820.73,394l-4.98-2.72c-.39-.2-.52-.67-.28-1.03l9.43-17.54c.39-.6,5.62-.09,5.66.61l.96,20.27c.02.35-.23.66-.58.74-1.67.35-8.96.3-10.2-.32ZM1106.59,390.92l-1.65,1.81c-.21.23-.69-.05-1.08-.37-.34-.29-.86-.24-1.12.12h0c-.38.52-9.52.41-9.66-.21-.37-1.69-.57-3.54-.42-5.41l.71-9.38c.05-.72,9.03-.74,9.39-.1l4.66,10.16c.23.42.55,1.54.61,1.89.16,1,.04-.12-1.44,1.5Z"/>
  <g id="Notebook">
    <path class="cls-3" d="M1092.97,444.53c-1.02,6.84-5.9,9.44-12.53,9.57-4.67.13-237.09-.31-246.22-.51s-8.62-19.77-9.85-25.7c0,0-5.92-118.27-5-125.68,2.13-11.55,18.54-6.95,26.57-6.99,4.68.19,8.54.99,13.3.86,6.8-.17,13.84.55,20.51.46,8.96-.28,18.07-.56,26.82-.26,8.58.14,17.25-.34,25.85-.32,8.88.09,17.91.27,26.8.34,14.31-.07,28.53-.88,42.83-.54,7.87.06,15.71.08,23.55.84,9.28.9,19.53.88,28.86,1.04,6.37.22,11.4,1.16,18.28,1.19,3.66-.04,10.19-1.54,13.78-1.28,5.02.47,13.5,2.93,14.29,5.15s-6.32,134.91-7.85,141.82Z"/>
    <path class="cls-2" d="M1079.53,294.55c7.76.32,17.64-.88,20.78,1.77,1.03.87.67,2.81.65,4.71,0,.82.19,7.28-1.27,6.68-3.86-1.57-1.32-6.95-5.36-6.98-9.69-.14-266.89-4.63-270.13-4.03-2.33.43-4.01,7.78-4.75,7.36-.91-.52-.27-4.9-.2-8,.06-2.56,1.97-3.36,3.12-3.57,2.38-.44,246.92,2.07,257.15,2.06Z"/>
  </g>
  <path id="Cabeça" class="cls-1" d="M1019.01,98.23c-.18.63-.38,1.23-.63,1.81,0,.01-.01.02-.01.04-.93,3.15-3.18,11.89-2.8,13.59.39,1.7.49,13.2-.88,14.06-.82.51-.35,2.74.03,4.77.12.31.18.66.19.91l-.04-.04c.05.31.1.6.13.88l.02-.05c.02.18.02.38.02.57.02.4,0,.74-.09.98h0c-.16.8-.49,1.54-1.03,2.11-.97,1.02-2.2,1.61-3.55,1.25-.21-.06-.36-.13-.35-.31-.08,0-.17,0-.25-.01-.52.08-.92.05-1.07-.17-.04,1.91-1.36,4.01-1.33,5.28.02.62-.35,1.03-.49,1.57l-.38,1.4-.41,1.76c-.18.76-.43,1.37-.72,2.07-.38.96-.41,1.99-1.01,2.87-.23.35-.66.94-.68,1.32-.04.71-.3,1.07-.63,1.63-.14.23-.24.77-.36,1.01l-.54,1.12c-.29.63-.35,1.27-.87,1.75-.33.3-1.48,3.39-2.71,4.44l-.31.26c-.2,1.01-.91,1.76-1.48,2.64-.26.4-.31.78-.72,1.09-.72.55-.92,1.58-1.43,2.28l-1.06,1.44-.9,1.16-1.82,2.18c-.25.3-.68.31-.9.78-.25.54-.82.97-1.2,1.37-.04.04-.14.1-.14.15-.02.26-.28.3-.48.48l-.86.78-.42.41c-.67.64-1.36,1.29-2.19,1.81l-.76.76c-1.16.94-2.47,1.59-3.83,2.09l-3.42,1.28-1.46.46-2.08.56c-.34.09-.63.13-1.02.17l-2.47.25-4.68.02-3.17-.28c-.26-.02-.55-.08-.7-.26-.17.08-.48,0-.67,0h-.21c-.05.01-.13-.02-.05-.11l-.29-.04c-.83-.12-1.83-.4-2.52-.82-.07.02-.19.06-.27.04l-1.51-.54c-.17-.06-.25-.15-.26-.29h-.27c-.13,0-.19-.09-.28-.14l-.28-.14c-.28.15-.42-.21-.6-.29-.93-.37-2.11-.97-2.96-1.66l-2.9-2.34c-1.15-.93-2.06-1.94-2.99-3.08l-3.04-3.71-1.41-1.49-2.22-3.3-.92-1.56-1.47-2.26-.97-1.65c-1.1-1.87-2.04-3.71-3.04-5.65l-1.03-2-1.25-3.23c-.19-1.14-.5-2.13-.81-3.22l-1.24-4.41-.91-3.24-.2-1.17c-.61-1.22-.88-2.43-1.03-3.8-.1-.99-.11-2.09-.75-2.91l-1.97.45c-1.63-.03-2.97-.82-4.13-1.87-1.48-1.34-2.3-3.07-2.35-5.09-.03-1.27-.41-2.44-.54-3.7l-.45-4.47c-.11-2.57-.39-4.98-.95-7.5-.38-1.7-.71-3.39-.79-5.14l-.21-4.71-.27-5.84c-.09-1.95,2.51-3.8,4.46-3.08,2.18.8,2.97,2.63,3.37,2.77.13.05.4-.01.39-.15l-.12-2.51-.1-2.04c-.02-.3-.27-.67.05-.98l-.16-2.19s-.13-.13-.13-.21c0-.07.06-.16.12-.2l-.11-3.31c-.21-.17-.24-.52,0-.69-.19-.55-.12-1.23-.14-1.78-.05-.04-.13-.11-.11-.17.01-.05.06-.1.1-.12l-.2-2.6-.22-2.74-.16-2.88c-.02-.32-.18-.63.03-.86v-.66l-.04-.3c-.56-2.62.36-4.52-.06-5.28-.28-.49,0-.65.02-1.14l.11-2.5c.02-.48.17-.91.06-1.38-.38-.47-.31-1.05.02-1.53-.23-.76-.11-1.47.29-2.09.28-.44.09-.76-.07-1.13-.2-.45.32-.95.35-1.34.08-.89-.43-2.47-.2-4.86.05-.48-.13-1.04.38-1.37l-.03-.29c-.4-.38.4-.88,0-1.91.31-.18.34-.46.45-.82l.86-2.66c.15-.49.17-.97.48-1.34-.02-.14-.02-.39.01-.54.11-.52.17-1.11.57-1.49-.01-.17.04-.31.07-.46.03-.16.01-.35.11-.52.06-.1.2-.17.34-.15l.16-.39c-.08-.37-.05-.82.37-.88.01-.1.08-.17.13-.24.11-.21.18-.44.18-.67v-.39c.01-.71-.5-2.32-.92-3.11-.32-.62.77-1.23.94-1.17v-.24c0-.37.29-.82.05-1.24-.1-.17-.25-.33-.16-.49.05-.09.23-.26.36-.24.48.08.67-.21,1.07-.32.36-.1,1.26.09,1.29-.51-.06-.2-.39-.5-.33-.77.06-.24.32-.25.46-.47l1.04-1.6c.17-.26.07-.69.11-.97-.31-.37-.61-1.05-.4-1.16.26-.14.34.27.88.68l.75-.72c.49-.11.79-.25.8-.83,0-.16-.02-.51.11-.67.97-1.08,2.24-1.87,3.58-2.28,1.65-1.54.72-2.71,1.01-3.49-.23-.06-.26-.44-.05-.7l.15-1.35c.15-1.35,1.62-3.02,2.77-3.05.11-.07.26-.15.41-.09.15.07.22.23.27.35.27.02.58.14.72.38.3.02.45.14.52.44.73.73.83,2.06.99,3.21.23.09.76.04.8-.28.07-.53-.3-.78-.5-1.37.69.42,1,.37,1.53.08.68-.38,2.01.24,2.56-.1l.76-.46c.33-.2.7-.26.73-.67.04-.46.35-1.24.13-1.72-.45-.94-.43-1.72-.11-2.66.23-.67.34-1.13,1-1.5.43-.24.8-.61,1.34-.56.49.05,1.07.06,1.56.36-.09.69.01,1.19.39,1.69l.12.34c.02.07.18.08.27.05,0-.04,0-.08-.03-.13.55-.5.57-1.26.32-1.92-.05.02-.31.02-.35-.07,0,0,.24-1.53.82-2.43.82-1.27,1.35-.41,2.21-.84.45-.23.8-.63,1.24-.82,1.42-.62,3.6-.27,5.29.04l.59-1.5c.18-.45.7-.89,1.19-.86.63.05.7.68.72,1.12.01.33.52.62.79,1.67l.58,2.2c1.17.5,1.19,1.13,1.73,1.44.2.12.29.79.08.84-.25.04-.54-.02-.66.17-.09.14-.08.38-.05.55,0,.09.05.24.17.24.53.01.23.63.82.98.2.11.34.26.35.44.07.04.24,0,.32-.03.36-.17,1.11-.01,1.11.08v.21c.01.27.29.73.67.84.33-.15.61-.36.82-.59.57-.61,1.22-.1,1.92-.11.24.01.45-.11.69-.16.2-.53,1.59-.27,1.83-1.45.54-2.58-.07-4.27,1-3.33.5-.2.83-.64,1.12-.3.09.11-.07.33-.11.45l.35.9c1.34,1.16,1.39,3.25,2.16,3.2l.1-.68c.47,0,.7.26,1.08.38.13.04.52,0,.45.23l-.11.35c-.03.1-.05.26-.03.37.02.15.06.34-.11.45l.16.45c.12.04.36.05.47-.04.47-.38.21-.89.27-1.31.07-.53.52-1,.73-1.43.21-.05.34.1.32.26l-.27,2.22c-.02.17.05.37.17.42.23.09.3-.42.96-.4.2,0,.33.14.36.37.03.1.24.19.35.18.1,0,.33-.14.37-.25.23-.61.65-.61,1.2-.7.61-.1,1.19-.39,1.79-.35,0-.42.69-.41.91-.86.39-.8.71-1.63,1.47-2.21-.11.9-.71,1.53-.59,2.27l.04.29c.22-.04.23.32.33.41.29.27.63.41.8.75.07.14-.02.37-.1.49.06.05.07.24.19.26.17.02.33.11.35.26l.05.44c.03.26.29.9.67.72l.8-.88c.06-.91.49-.89,1.15-1.48.08.01.15.31.22.35.08.04.24-.16.4.07l-1.16,1.25c-.39.41-.13,1.22.04,1.62.05.2-.15.88.22.85.98-.12,1.94-.37,2.97-.33l2.44,1.25c.73.3,1.06.89,1.48,1.44.29.38.68.67,1.02,1.05l1.04,1.16c.02.51.41.76.91.7.44.58,1.1.67,1.73.41.41-.17.86.21,1.16.26.67.1.75.34,1.08.79.13.17,1.07,1.01,1.06,1.37,0,.63-1.25,1.09-.73,2.44.67.76,1.57.42,2.22,1.08-.07.21-.15.41-.05.6.3-.16.64-.04.7.14.2.61-1.14.61-1.49,1.29.38.44.75,1.13,1.32,1.34.66.1,1.38-.62,1.87-1.01l.86-.69c.31-.24.36-.75.99-.58-.27.31-.21.63-.16.92.14,0,.27.05.33.14s.07.23.08.3c.84.82.61,2.21,1.29,2.43-.16.5-.16,1.14-.48,1.65-.19.31-.48.52-.48.99-.02,1.33-.8,2.21-.61,3.85.04.32.4.64.23,1,.18-.03.42.07.42.28v1.38c0,.08,0,.2-.04.28.08-.07.29,0,.26.08l-.08.23c-.11.34-.29.59-.6.63v.16c.1.05.15.15.17.23.02.14-.08.23-.21.23.07.14.07.34.07.49.11-.02.23.04.24.12.02.1,0,.17,0,.23l.05.51c.79.25.96,1.5.69,2.35l.03.51c.21.04.24.22.24.39,0,.2-.07.33-.13.49-.07.15-.03.4,0,.55l.2,1.52.07,1.2c.01.29.51,1.41-.05,1.41.07.08.03.3.05.39.06.02.23.02.26.09.04.09-.02.2-.07.2h-.2c0,.16.07.39,0,.53.49.34.15,1.42.86,2.28l.03.8c-.13.35-.35.83-.1,1.22.79,1.25.05,1.41.1,1.71.02.15.17.27.26.42.33.52-.02,1.05-.12,1.6-.05.32.39,1.03.14,1.23-.3.24-.47.23-.51.51-.04.24-.12.58.15.71.27.13.36.27.39.51.02.15-.05.39-.19.47-.57.32-.26.83-.3,1.2-.11.79-.1,1.35.04,2.09l-.24,1.78-.08,2.36-.21,2.07c-.07.64.14,1.27-.11,1.93-.3.83-.14,1.72-.25,2.54l-.37,2.81-.26,1.09c-.51,2.16-.52,4.3-.65,6.52l-.31,5.25c-.06,1.01-.32,1.98.02,3.07,1.31-1.03,2.56-1.72,3.83-.92.16.1.35.18.24.39,0,0,.75.22.67,1.77.1-.05.2-.08.31-.11Z"/>
</svg>