<?xml version="1.0" encoding="UTF-8"?>
<svg id="Camada_1" xmlns="http://www.w3.org/2000/svg" version="1.1" viewBox="0 0 105.95 430">
  <!-- Generator: Adobe Illustrator 30.3.0, SVG Export Plug-In . SVG Version: 2.1.3 Build 182)  -->
  <defs>
    <style>
      .st0 {
        fill: #fff;
      }

      .st1 {
        fill: #666;
      }

      .st2 {
        fill: #858585;
      }
    </style>
  </defs>
  <g>
    <path class="st1" d="M160.18,271.19H-84.79c-2.91,0-5.1,2.36-4.9,5.26l9.2,134.99c.2,2.91,2.71,5.26,5.62,5.26h225.14c2.91,0,5.42-2.36,5.62-5.26l9.2-134.99c.2-2.91-2-5.26-4.9-5.26Z"/>
    <path class="st2" d="M165.09,276.45l-.11,1.6c-.03-.83-.36-1.63-.94-2.25-.66-.71-1.59-1.11-2.56-1.11H-86.09c-.97,0-1.89.4-2.56,1.11-.57.62-.9,1.41-.93,2.24l-.11-1.59c-.2-2.9,1.99-5.26,4.9-5.26h244.97c2.91,0,5.1,2.36,4.91,5.26Z"/>
  </g>
  <path class="st0" d="M25.67,349.85c-.34-.05-.69-.02-.91.33l.04,6.64c0,.91.3,1.74.56,2.59.45,1.47,1.25,2.75,2.29,3.87v2.46c.02.4.26.68.59.94l11.71-.02c.38,0,.81-.18,1.18-.23,3.39-.51,6.2-2.29,7.89-5.29.76-1.35,1.25-2.82,1.42-4.38.1-.89.06-1.78.07-2.69l.07-6.37.05-15.7c-.19-1.42-.54-2.71-1.1-4.01-.04-.04-.18-.11-.2-.06l-.07.18c.1.51.1.96.02,1.48l-.04,12.35-.06,12.31c-.01,2.43-.99,5.59-2.68,7.31l-1.09,1.12c-.05.02-.16.05-.16.02v-.17c.92-1.07,1.51-2.32,1.9-3.67.22-.81.4-1.61.42-2.45l.07-2.96.07-14.05.07-11.85.03-5.6c-.05-.24-.29-.58-.44-.74h-.81c-.37.21-.72.32-1.1.46-.62.22-1.17.53-1.75.89-1.21-.42-2.48-.67-3.79-.75l-.95-.06h-10.77c-.41,0-.74.42-.74.8l.02,3.92.07,14.46.03,7.2c0,.31.11.42.4.48,3,.67,5.21,3.42,5.53,6.45.14.95.48,1.74,1.05,2.51l.26.04v-22.72s-.06-.58-.06-.58v-5.61c0-.12.14-.41.26-.4h4.29c.25,0,.57.14.83.18.11.02.38.15.38.3l-.03,11.95-.07,15.26c0,1.96-1.53,4.05-3.65,4.3-1.34.16-2.61-.17-3.52-1.15-.73-.78-1.15-1.74-1.29-2.8-.2-1.55-.81-2.96-1.84-4.13l-.64-.64c-1.06-.97-2.38-1.53-3.81-1.75Z"/>
</svg>