<?xml version="1.0" encoding="UTF-8"?>
<svg id="a" data-name="Camada 1" xmlns="http://www.w3.org/2000/svg" viewBox="0 0 900 900">
  <defs>
    <style>
      .b {
        fill: #fff;
      }
    </style>
  </defs>
  <path class="b" d="M653.43,309.2l-121.54-213.28c-2.94-5.15-14.6-5.4-19.38-7.85l-88.74-48.53c-.11-.11-.22-.17-.3-.17-8.32.93-43.63,21.03-43.63,21.03l-13.25,16.19-129.88,345.99c-3.92,10.18,3.07,18.77,3.07,18.77l67.7,156.87c-3.19.25-7.11,1.35-7.11,1.35-20.65,8.63-21.33,30.86-17.05,55.24,0,0,0,0,0,.01,0,.03.01.07.02.1.03.19.07.38.1.58h.01c2.38,11.93,23.82,27.48,23.82,27.48l-19.56,125.25,85.16,48.42,9.05,3.97,239.63-112.46-26.43-130.65,14.66-6.84c17.05-8.09,20.24-48.57,9.69-57.15-2.82-2.45-10.43-2.33-18.89-2.33l62.92-207.64c3.8-12.63-4.05-23.79-10.06-34.34Z"/>
  <path d="M597.99,631.77l-192.56,89.66-18.27,136.38,234.38-109.65-23.55-116.39ZM420.03,808.5l2.94-66.6,152.45-66.72,11.28,55.44-166.68,77.88Z"/>
  <path d="M390.87,726.76l-18.01,129.9-85.16-48.42,19.56-125.25,67.76,40.2c2.94,1.74,9.09,2.6,15.85,3.58Z"/>
  <path d="M320.35,470.42c-1.59,5.89-2.82,13.37-.49,19.26,0,.12.12.25.12.37l64.39,150.86s-7.97,5.64-8.83,6.62c-13.86,13.86-13.61,28.09-13.86,52.49l-78.25-44.52c-4.42-24.65-3.92-47.22,16.93-55.93,0,0,3.92-1.1,7.11-1.35l-67.7-156.87s-6.99-8.59-3.07-18.77L366.59,76.6l13.25-16.19,81.19,45.38-14.1,27.35-123.14,327.96s-1.96,3.92-3.43,9.32Z"/>
  <path d="M653.43,309.2l-121.54-213.28c-2.94-5.15-14.6-5.4-19.38-7.85l-89.04-48.69c-4.91,2.09-10.42,6.01-12.51,9.08-1.96,2.45-1.59,12.26,1.59,14.1l71.63,40.96c-10.42,10.55-17.78,18.64-22.94,32.26l-123.02,326.73c-5.52,14.47-5.27,24.78.49,38.27l62.8,147.42c-19.75,8.71-27.6,24.04-26.37,44.89.25,5.27,3.92,14.35,8.22,17.29,3.31,1.96,10.42.98,16.92-1.96l209.48-97.75c17.05-8.09,20.24-48.57,9.69-57.15-2.82-2.45-10.43-2.33-18.89-2.33l62.92-207.64c3.8-12.63-4.05-23.79-10.06-34.34ZM433.65,632.5l-26-65-42.19-95.54,118.11-313.86-.12,207.03c-1.96,1.96-3.8,4.05-5.64,6.26-1.35,1.59-2.58,3.19-3.8,4.91-2.33,3.31-4.54,6.75-6.38,10.18-.98,1.72-1.84,3.43-2.58,5.27-1.1,2.45-2.08,4.78-2.82,7.11-.61,1.84-1.23,3.56-1.72,5.4-.25.98-.37,1.84-.49,2.82-.37,1.1-.49,2.08-.61,3.19-.37,1.47-.49,3.07-.61,4.54-.12.74-.25,1.35-.25,2.08,0,.37.12.74,0,.98v1.96c0,1.35,0,2.82.12,4.17v1.1c.25,1.72.49,3.43.86,5.03.25,1.1.61,2.21.98,3.19h.12c0,.25,0,.49.12.61,0,.37.24.61.37.98.12.49.37.98.74,1.47.37.98.86,1.84,1.35,2.82,1.1,1.84,2.33,3.43,3.8,5.03,1.96,2.08,4.29,3.92,6.99,5.4.86.49,1.72.86,2.7,1.23,1.84.74,3.8,1.1,5.76,1.35.25.12.49.12.61.12,5.76.61,12.14-.49,17.78-2.94,1.47-.74,3.07-1.47,4.42-2.33,2.82-1.72,5.52-3.68,7.97-5.76,1.35-1.1,2.45-2.08,3.68-3.31,1.1-1.1,2.33-2.21,3.31-3.43,1.72-1.84,3.31-3.8,4.78-5.89,5.15-6.99,9.08-14.96,11.53-23.43.86-2.82,1.59-5.64,2.08-8.59,1.1-5.76,1.59-11.53,1.47-17.42-.86-7.24-3.43-13.25-7.73-18.15-1.1-1.23-2.33-2.33-3.56-3.43-3.92-3.07-8.71-5.52-14.47-7.11l1.1-208.01,116.64,205.44-53.11,173.06-13,49.8-132.34,61.69Z"/>
  <path d="M323.79,461.1l-3.43,9.32c1.47-5.4,3.43-9.32,3.43-9.32Z"/>
</svg>