<?xml version="1.0" encoding="UTF-8"?>
<svg id="a" data-name="Camada 1" xmlns="http://www.w3.org/2000/svg" viewBox="0 0 900 900">
  <defs>
    <style>
      .b {
        fill: #fff;
      }
    </style>
  </defs>
  <path class="b" d="M766.3,164.56v413.81c0,28.09-15.45,50.78-42.07,62.92l-480.9,219.91c-1.52.69-3.12,1.24-4.77,1.65-19.9,8.48-54.71-19.66-55.65-20.42l-.02-.02-39.92-24.41c-9.6-5.88-9.26-22.44-9.26-33.37l.16-407-.05-15.88-.09-41.57c-.04-14.38,3.83-27.99,11.46-39.87l7.01-10.94c4.78-7.24,11.07-13.93,20.28-18.02L646.59,41.03c10.89-4.83,20.22-6.49,30.76-4.89l51.3,29.8c16.15,4.78,25.22,11.84,30.27,18.71,3.17,4.32,4.75,8.58,5.5,12.15.02.22.03.45.04.67l.29,8.73h0s1.1,32.86,1.1,32.86v.05l.33,9.87-.24.11.15,15.56.21-.09Z"/>
  <path d="M208.74,413.52l.12,433.56c2.7,6.99,7.85,14.1,12.63,15.94,6.01,2.08,14.84,1.96,21.83-1.23l480.9-219.91c26.61-12.14,42.07-34.83,42.07-62.92V165.16L208.74,413.52ZM448.76,352.08l260.14-116.64c7.97-3.68,18.15,3.8,18.15,12.02l.12,132.71c0,7.6-6.26,16.8-13.25,19.87l-260.63,116.76c-3.92,1.72-13.61,2.45-14.96-.12l-5.4-10.55-.12-132.09c.86-9.69,6.75-17.91,15.94-21.95ZM406.08,727.01c0,9.2-13.12,16.19-19.62,19.13l-116.76,52.86c-3.92,1.72-11.53,2.21-14.1.61-2.94-1.96-6.5-8.95-6.5-13.61l-.12-329.56c0-9.57,6.38-17.78,14.35-21.59l124.86-55.56,13.25,2.82c2.94.74,4.66,8.71,4.66,12.63v332.25ZM569.69,650.36c0,11.04-12.39,18.4-20.97,22.32l-97.14,43.54c-3.07,1.47-11.41,1.72-12.76-.37l-6.01-10.3-.12-134.05c.98-5.52,5.52-16.43,10.18-18.52l110.63-49.18c6.38-2.94,16.31,5.03,16.31,11.65l-.12,134.91ZM686.7,596.15v.74c-.12,1.35-.25,2.58-.61,3.92v.12c-.25,1.35-.49,2.7-.98,4.05-.37,1.47-.86,2.94-1.35,4.29v.12l-49.55,22.08-31.28,13.98h-.12c-.74-1.23-1.47-2.45-2.08-3.92-.49-1.1-.86-2.33-1.35-3.56-.12-.86-.37-1.59-.49-2.45-.37-1.1-.49-2.08-.61-3.19-.24-1.59-.37-3.19-.37-4.78v-.24c0-3.31.37-6.5,1.35-9.32.86-2.94,2.33-5.52,4.17-7.48l79.84-34.95c.61,1.35,1.1,2.7,1.59,4.05.12.49.37.98.49,1.59.24.49.37,1.1.37,1.59,0,0,.12.12.12.24q.12.12,0,.25c.12.12,0,.12,0,.12.12.12.12.25.12.25v.12q.12.12,0,.25c.12.25.25.37.12.49.24.86.37,1.59.37,2.58.12.25.12.37.12.49.25,1.59.25,3.19.25,4.78,0,1.23,0,2.58-.12,3.8ZM723,528.45l-121.42,53.35v-.12c-5.15-13.49-4.17-24.9,0-35.45v-.12l122.65-53.72v.12c3.56,12.39,2.82,22.94-1.23,35.94ZM727.17,451.54v.12c-.12,1.72-.49,3.19-.98,4.78-.24,1.1-.61,2.09-1.1,3.19-.61,1.35-1.23,2.7-1.96,4.05l-120.32,53.97c-7.6-10.55-7.11-28.45,1.59-36.3l118.11-53.23c1.72,3.07,2.94,6.13,3.8,9.2.25.74.37,1.59.49,2.45.24.86.37,1.72.49,2.58.25,1.47.25,3.07.25,4.54,0,1.59-.12,3.19-.37,4.66Z"/>
  <path d="M764.45,98.07c-.49-15.09-17.78-23.67-31.64-17.42l-490.84,217.7c-19.62,8.58-32.38,36.06-32.38,54.46v45.01l283.32-126.45,273.26-121.79-1.72-51.51ZM277.42,335.4c-.25.86-.61,1.72-.86,2.45-.61,1.59-1.47,3.07-2.45,4.42-.49.74-.98,1.47-1.59,2.09-.49.61-.98,1.23-1.72,1.84-1.1,1.23-2.45,2.21-3.8,3.07-3.68,1.96-7.85,2.58-11.77.74-.61-.24-1.23-.61-1.72-.98-.98-.61-1.84-1.35-2.58-2.09-.74-.86-1.23-1.72-1.59-2.7-.49-.98-.86-1.96-.98-3.07-.49-1.72-.49-3.68-.25-5.52,0-.49.12-.98.25-1.35.24-1.84.74-3.8,1.59-5.52.24-.74.61-1.47.98-2.21.86-1.72,1.96-3.43,3.19-4.91.74-.86,1.47-1.84,2.33-2.58,1.72-1.47,3.56-2.7,5.52-3.43,2.58-1.1,9.57-1.47,11.9-.37.37.12.74.37.98.61.49.49.98,1.1,1.35,1.96.25.49.49.86.61,1.35.37.74.61,1.47.74,2.33.24.74.37,1.59.49,2.45.25,1.35.37,2.82.37,4.29,0,1.59-.12,3.07-.37,4.66-.12.86-.37,1.72-.61,2.45ZM330.16,308.05c-.37,1.59-.74,3.07-1.23,4.54-.49,1.35-1.1,2.7-1.84,4.05-.49.98-1.1,1.96-1.96,2.82-.12.25-.25.49-.49.86-.49.49-.98.98-1.47,1.47-2.94,2.82-6.62,4.78-10.55,5.27-1.47.25-2.94.25-4.42,0h-.12c-.86,0-1.59-.24-2.45-.49-.37-.12-.86-.37-1.23-.74s-.86-.74-1.23-1.23c-.74-.98-1.35-2.21-1.72-3.43-.49-1.47-.86-2.94-.98-4.66-.74-3.92-.49-7.85.37-10.06s2.33-4.54,4.17-6.87c.98-1.1,2.08-2.21,3.19-3.19,1.84-1.72,4.05-3.19,6.26-4.29.86-.49,1.72-.86,2.7-1.23,1.47-.49,3.07-.49,4.54,0,.49.12.98.25,1.47.49.25.12.61.24.86.49.37.12.61.25.86.49.37.12.61.37.86.61.61.49,1.35,1.1,1.84,1.72,1.72,1.84,2.82,4.17,2.94,6.62.12,2.33,0,4.54-.37,6.75ZM356.65,301.91c-1.96-1.35-3.43-3.19-4.29-5.15-1.72-3.92-1.59-8.71.12-13.25.37-1.1.86-2.33,1.59-3.43.49-1.1,1.23-2.21,1.96-3.19,2.94-4.17,6.99-7.36,11.65-8.34,2.94-.61,5.64-.49,7.85.49.61.25,1.23.61,1.84,1.1.61.37,1.1.86,1.47,1.47,2.08,2.21,3.07,5.64,3.07,9.93-.12,12.76-13.74,28.33-25.27,20.36Z"/>
  <path d="M133.81,362.35l-.09-41.56c-.03-14.38,3.84-28,11.47-39.87l7.01-10.95c4.77-7.23,11.06-13.93,20.28-18.01L646.59,41.64c10.88-4.83,20.22-6.49,30.76-4.89l51.3,29.8-480.29,212.77c-15.27,6.77-27.62,13.27-36.95,26.2-23.08,31.41-17.2,33.99-17.2,106.71,0,.33.02.63.03.96l.48,437.05-51.74-31.64c-9.6-5.87-9.26-22.43-9.26-33.36l.16-407-.06-15.88Z"/>
</svg>