<?xml version="1.0" encoding="UTF-8"?>
<svg id="a" data-name="Camada 1" xmlns="http://www.w3.org/2000/svg" viewBox="0 0 900 900">
  <defs>
    <style>
      .b {
        fill: #fff;
      }
    </style>
  </defs>
  <path class="b" d="M739.31,672.37c0,5.29-4.58,14.08-8.98,16.05l-72.18,32.26-14.11-7.07c-5.26-1.43-10.45-3.82-15.77-6.88,0-.01-.01-.01-.01-.01-.04-.02-.09-.05-.14-.08-.12-.07-.25-.15-.38-.22-.21-.12-.43-.26-.68-.41-2.37-1.47-6.86-4.52-11.91-8.01-5.34-3.69-11.3-7.87-16.03-11.2l10.91,44.04c2.21,9.08-.12,17.67-8.95,21.59l-68.93,31.03-16.78-6.13-54.6-30.11-17.07-7.26-36.28,17.01-13.49,79.84c-1.84,11.04-6.14,17.54-16.32,22.08l-69.66,30.42-13.46-3.25-66.72-36.8,102.9-545.17,93.58-44.64,62.55,34.91,4.6,2.88,13.77,8.63,38.39,156.62,31.92,128.87V188.19l81.19-38.27,65.37,37.9s16.25,9.6,16.54,20.15c.01.09.01.18.01.27.01,4.36.01,6.93.01,8.46v2.21s.71,453.46.71,453.46Z"/>
  <path d="M241.57,409.5l-13.37,51.36-12.84-42.98c-1.51-5.05-9.6-9.53-15.41-8.9l-39.26,4.24,36.59-30.31c9.08-7.52,16.14-18.84,18.9-30.26l12.19-50.49,12.15,42.05c2.29,7.92,8.47,12.03,17.1,11.52l37.23-2.21-35.16,27.85c-8.63,6.83-15.39,17.63-18.12,28.13Z"/>
  <path d="M514.07,178.34l-20.88,80.22-20.06-67.13c-2.36-7.89-15-14.88-24.06-13.9l-61.31,6.62,57.15-47.34c14.18-11.75,25.21-29.42,29.51-47.26l19.04-78.86,18.98,65.68c3.58,12.37,13.24,18.79,26.71,17.99l58.14-3.45-54.92,43.5c-13.47,10.67-24.04,27.54-28.31,43.93Z"/>
  <path d="M730.33,688.35l-72.18,32.26-1.01-474.35c-.02-7.55,4.83-15.42,11.56-18.46l61.67-27.8c2.69-1.21,8.22,5.1,8.22,8.17l.72,464.13c0,5.29-4.57,14.08-8.98,16.05Z"/>
  <path d="M610.03,730.77l-66.48-268.35-38.39-156.62-93.95,45.01-103.27,538.43,69.66-30.42c10.18-4.54,14.47-11.04,16.31-22.08l13.49-79.84,106.21-49.8,18.52,76.29,68.93-31.03c8.83-3.92,11.16-12.51,8.95-21.59ZM421.52,671.9l37.78-216.84,39.25,181.52-77.02,35.32Z"/>
  <polygon points="515.37 777.25 460.77 747.14 504.56 724.39 515.37 777.25"/>
  <polygon points="436.68 651.45 460.59 517.79 483.97 629.35 436.68 651.45"/>
  <polygon points="491.71 297.02 398.87 340.81 294.49 885.98 227.77 849.18 330.67 304.01 424.25 259.37 491.71 297.02"/>
  <path d="M722.04,187.74l-64.66,30.92c-8.45,4.04-13.83,12.58-13.82,21.95l.47,472.93c-9.44-2.58-18.64-8.22-28.82-15.33l-39.74-163.49V188.11l81.19-38.27,65.37,37.9Z"/>
</svg>