<?xml version="1.0" encoding="UTF-8"?>
<svg id="a" data-name="Camada 1" xmlns="http://www.w3.org/2000/svg" viewBox="0 0 900 900">
  <defs>
    <style>
      .b {
        fill: #fff;
      }
    </style>
  </defs>
  <g>
    <path class="b" d="M798.76,312.66l-.99,48.03c-25.21,10.43-41.6,30.76-42,58.3l-1.6,110.86c-1.02,71.07-29.41,125.16-100.49,146.42l-14.57-7.05-.02.45-7.08-3.88-55.26-30.24-.21-30.71v-14.45l-206.79,97.65s-12.58,10.47-68.11-33.3l-.07-263.29c-.21-24.64,15.04-33.27,27.5-40.08l239.6-111.64s.01,0,.03,0c1.31.24,43.36,8.19,53.34,15.66l-.1-86.26v-12.71l-44.6-24.02.37-56.3c.49-.98,26.52-14.91,30.17-16.8,9.88-5.1,29.32-8.34,43.3-3.07l50.53,26.74s42.22,11.83,50,51.95c1.47,5.84,2.23,11.89,2.3,17.93l1.58,133.93c.07,6.04,6.17,16.12,10.16,19.36,12.16,9.85,33.38-11.53,33.01,6.51Z"/>
    <path class="b" d="M290.93,775.25c-3.38-2.54-7.92-11.19-7.92-15.69l.18-109.26c.06-34.09-4.87-62.08-36.02-73.46,21.01-24.51,35.1-53.58,35.36-85.66l.87-111.83c.1-13.13,2.47-34.8,13.16-41.81l30.96-20.29-.91-57.77-15.29-7.98-57.03-31.52c-29.93,10.3-54.82,26.25-73.96,50.65-17.66,26.62-27.35,56.79-27.72,89.29l-1.59,113.69c-.37,23.19-10.55,41.7-29.68,53.85-.25,0-.37.12-.61.24-9.69,5.89-19.5,7.73-19.5,7.73v67.82l50.76,25.11.13,7-.49,115.32c0,15.7,6.26,39.24,19.26,47.09l50.16,30.17s24.12,20.39,45.3,18.37c1.75.14,3.58.17,5.47.09,20.62-.93,37.91-8.85,56.46-19.82l-.12-53.94c-11.79-4.72-26.28,10.85-37.23,2.61Z"/>
  </g>
  <path d="M652.77,629.22c-.39-20.01,43.93-18.59,44.42-65.92l1.16-109.96c.37-34.88,13.46-67.12,34.77-94.35-27.74-8.8-35.06-37.89-35.11-67.47l-.17-108.72c0-4.6-3.86-12.99-7.04-15.73-3.68-3.18-14.67-2.38-19.37-1.08l-17.57,4.87.79-55.92c22.81-16.97,59.77-27.55,78.56-11.26,14.01,12.15,20.59,30.76,20.81,49.19l1.58,133.93c.07,6.04,6.17,16.12,10.16,19.36,12.17,9.85,33.38-11.52,33.01,6.51l-.99,48.03c-25.21,10.43-41.6,30.76-42,58.3l-1.6,110.86c-1.03,71.07-29.41,125.16-100.5,146.42l-.91-47.06Z"/>
  <path d="M649.03,603.39l-31.67-17.99c14.57-10.98,27.26-25.6,27.28-44.49l.27-190.74c0-7.12,2.76-16.64,4.94-21.92l62.69,35.64c-17.74,29.42-28.08,62.44-28.09,98.11v97.37c0,22.09-11.95,41.83-35.42,44.02Z"/>
  <path d="M691.29,339.31l-45.68-25.41-2.02-38.51c-.43-8.21-12.25-16.33-21.54-19.98l-.1-86.26,34.19,14.52c11.13-3.39,16.78-5.34,28.14-6.57l.6,114.39,6.41,47.82Z"/>
  <polygon points="639.1 669.68 576.75 635.56 576.54 604.85 603.66 591.26 641.6 612.92 639.1 669.68"/>
  <path d="M627.11,272.79l-10.06-.98-240.15,112.47c-12.63,6.99-23.79,18.15-23.79,33.85l-.49,255.97c0,4.17,4.17,11.77,7.36,13.25,2.58,1.35,9.2.74,13.86-1.47l232.54-109.53c14.47-6.87,25.02-17.78,25.02-34.83l.61-258.91c0-2.45-2.58-9.44-4.91-9.81ZM534.51,450.26l-104.86,48.57-.12-37.65h.12v-.12l103.88-48.45.98,37.65ZM429.89,560.15l-.25-39.12,33.48-13.74.12,36.06-33.36,16.8ZM475.03,378.63v.12l1.1,37.16-87.45,41.33-.61-37.65,86.96-40.96ZM388.07,639.63h-.12l-.12-37.41,87.08-40.72,1.47,36.67-88.31,41.46ZM484.59,534.03l-1.1-37.29v-.12l79.6-37.04,1.1,37.65-79.6,36.79ZM555.73,440.57l-.98-37.65,18.15-8.34,1.47-.74,24.9-11.41v.12l-.37,38.27-43.17,19.75Z"/>
  <path d="M301.57,391.46l.07,263.29,38.15,21.9.06-257.12c.54-23.66,2.75-39.47,39.93-51.7l229.01-107.47c-13.95-9.42-25.37-15.31-40.12-20.62l-239.6,111.64c-12.46,6.81-27.72,15.44-27.51,40.08Z"/>
  <path d="M328.17,772.65l.12,53.94c-18.55,10.97-35.85,18.9-56.46,19.82-34.34,1.54-46.45-35.03-46.4-72.11l.16-115.24c.01-10.5-4.01-25.73-14.02-30.71-6.58-3.28-17.38-.42-27.41.96l.27-54.63c24.49-12.92,40.6-34.31,40.95-62.87l1.38-114.48c.8-66.18,33.97-115,99.86-137.83l.91,57.77-30.96,20.29c-10.7,7.01-13.06,28.68-13.16,41.81l-.88,111.83c-.25,32.08-14.35,61.15-35.35,85.67,31.15,11.38,36.08,39.37,36.02,73.46l-.18,109.26c0,4.5,4.54,13.15,7.92,15.69,10.95,8.23,25.44-7.33,37.23-2.61Z"/>
  <path d="M101.23,603.26v-67.82s9.81-1.84,19.5-7.73c.25-.12.37-.25.61-.25,19.13-12.14,29.31-30.66,29.68-53.84l1.59-113.69c.37-32.5,10.06-62.67,27.72-89.29,19.13-24.41,44.03-40.35,73.96-50.65l57.03,31.52-46.84,28.11c-4.31,2.59-8.28,5.78-11.51,9.63-24.11,28.75-38.57,63.61-39.03,102.45l-1.47,115.78c-1.35,21.1-8.22,38.27-24.65,49.3-.61.49-3.07,1.96-6.26,3.68-3.19,1.84-7.24,4.05-10.92,5.76v19.75l-.74,35.94v15.33l-68.68-33.97Z"/>
  <path d="M701.71,82.99l-19.56,5.54c-6.29,1.78-12.38,4.18-18.19,7.17l-23.45,12.06-1.23,58.01-61.94-33.36.37-56.3c.49-.98,26.52-14.92,30.17-16.8,9.88-5.1,29.31-8.34,43.29-3.07l50.53,26.74Z"/>
  <path d="M152.13,635.37l-.49,115.31c0,15.7,6.26,39.25,19.26,47.1l50.16,30.17c-5.64-20.6-8.95-40.35-8.95-64.02l.12-104.25c.12-6.5-5.15-19.62-9.81-21.1-7.61,1.59-25.75,8.59-28.23,6.79-1.86-1.35-22.05-10-22.05-10Z"/>
</svg>