<?xml version="1.0" encoding="UTF-8"?>
<svg id="a" data-name="Camada 1" xmlns="http://www.w3.org/2000/svg" viewBox="0 0 900 900">
  <defs>
    <style>
      .b {
        fill: #fff;
      }
    </style>
  </defs>
  <path class="b" d="M679.04,722.84l40.3,84.71c-12.84,8.4-26.21,14.23-42.06,19.74l-39.73-86.79-54.97,43.68,1.57-90.96-323.73,161c-5.77,3.04-14.39,2.48-20.11.54l-4.37-2.1-24.52-11.78-44.52-25.03c-8.93-5.02-16.95-15.41-16.96-27.34l-.45-463.22c0-43.28,19.46-57.66,46.63-71.5L617.57,46.41c9.08-4.16,18.16-3.52,25.95,1.22l28.17,17.15s.1.05.28.16c3.75,2.11,43.84,24.68,45.93,26.41,4.41,3.19,11.4,11.65,11.4,19.14l.61,468.02c.13,24.65-15.57,45.26-34.21,58.63l-17.89,12.15,72.7,66.73-71.47,6.82Z"/>
  <path d="M729.3,110.48c0-7.48-6.99-15.94-11.41-19.13-4.78-3.19-16.68-3.31-23.18,0l-423.14,208.87c-25.63,12.63-46.61,35.69-46.61,66.11v467.41c0,7.73,7.11,17.05,12.14,19.62,5.15,2.94,16.31,4.54,23.3.86l323.79-161.04,8.34-4.17.12-45.63c-2.7,1.35-5.27,2.82-7.73,4.29-14.96,8.83-28.21,17.78-42.07,10.06l-35.69-20.11c-9.32-5.27-16.68-15.82-16.68-27.23l-.49-94.44c0-22.2,12.63-45.13,33.73-55.93l87.45-43.66c11.9-6.01,23.79-3.68,34.83,2.94l30.29,17.78c6.5,3.8,13.12,15.33,13.12,24.16v96.16c.12,19.13-12.76,36.79-25.27,51.27l31.52,28.45c18.64-13.37,34.34-33.97,34.22-58.63l-.61-468.02ZM266.18,386.81c0-27.96,18.15-49.8,42.07-61.32l79.23-38.63c4.54-2.33,16.8-6.75,21.59-3.92l34.22,18.03c12.02,6.5,22.57,15.58,22.69,30.66l.37,93.7c.12,21.71-11.53,46.24-31.03,56.17l-90.51,45.87c-6.99,3.31-21.83,4.78-27.84,1.35l-36.18-21.22c-7.73-4.54-14.72-16.44-14.72-26.25l.12-94.44ZM420.1,731.94l-79.23,38.51c-11.53,5.52-24.41-.12-33.61-5.89l-26.25-16.31c-7.6-4.54-15.09-15.45-15.09-25.63l.37-94.56c.12-26,16.56-47.59,38.76-58.38l85-41.82c9.81-4.91,21.22-3.43,30.42,1.96l26.74,15.33c9.44,5.4,18.64,15.21,18.64,27.6l.61,93.46c.25,31.52-20.36,52.98-46.36,65.74ZM657.8,371.23l-87.2,44.4c-12.51,6.13-26.37,5.52-36.43-1.84l-28.33-16.56c-9.08-5.4-15.58-16.8-15.58-27.84l-.49-91.74c0-22.69,12.02-43.17,29.93-55.56l94.56-47.22c8.34-4.17,21.46-1.72,28.82,2.33l28.94,16.56c8.83,5.03,17.42,14.84,17.54,26.25l.37,93.46c0,21.71-12.51,47.83-32.13,57.77Z"/>
  <path d="M196.12,253.79L617.57,46.4c9.08-4.16,18.16-3.51,25.95,1.23l47.89,29.15-429.49,211.65c-56.57,22.58-51.13,68.94-51.11,83.96l.62,468.48-44.52-25.03c-8.93-5.02-16.95-15.41-16.96-27.34l-.45-463.22c0-43.28,19.46-57.66,46.63-71.5Z"/>
  <path d="M719.34,807.54c-12.84,8.4-26.21,14.23-42.06,19.74l-39.73-86.79-54.97,43.68,3.79-218.85,164.15,150.68-71.47,6.82,40.3,84.71Z"/>
  <path d="M572.77,502.75c-21.8,4.02-41.12,29.79-30.92,51.55,4.53,9.67,19.32,15.97,28.45,22.06l.4,43.83-32.51,15.95c-3.72,1.82-13.05.83-16.36-1.3-3.31-2.13-8.38-10.21-8.37-14.44l.2-94.5c.04-18.57,11.79-37.67,28.11-45.87l90.2-45.33c3.34-1.68,13.76-.19,16.53,2.13,3.23,2.71,6.8,10.34,6.84,15.42l.7,85.65c.16,20.13-7.92,38.53-24.19,51.1l-30.22-28.1,27.57-49.77c4.97-8.97,1.37-27.15-9.33-28.9-16.64-2.73-28.29,12.79-35.15,25.79l-11.97-5.27Z"/>
  <path d="M678.16,219.39c0-3.92-4.17-10.79-6.87-12.88-2.7-2.08-12.02-2.82-15.21-1.23l-93.95,47.46c-16.93,8.46-25.63,30.42-25.51,48.2v89.29c0,5.15,3.92,12.88,7.48,15.33,2.94,2.21,13.86,3.68,17.42,1.72l91.74-46.24c14.84-7.6,25.51-27.84,25.39-44.64l-.49-97.01ZM625.3,269.19c.61-1.47,1.35-2.94,2.21-4.17s1.84-2.21,2.82-3.07c.61-.61,1.47-1.1,2.33-1.59,1.72-.98,3.8-1.84,5.76-2.21.98-.25,1.84-.37,2.58-.37h.25c.49,0,.98,0,1.35.12.37-.12.61,0,.86.12.37.12.74.37.98.61.24.25.49.49.74.86.12.12.37.49.49.74,1.72,2.94,2.58,7.85,1.84,10.67-2.58,10.43-12.14,19.75-21.34,14.23-4.05-2.33-3.43-9.81-.86-15.94ZM567.41,304.39c0-1.1.12-2.33.37-3.68.24-1.23.61-2.45,1.1-3.68.37-1.1.86-2.08,1.35-3.07.37-.86.86-1.72,1.47-2.45.37-.61.74-1.23,1.23-1.72.98-1.23,1.96-2.21,3.07-2.94,2.33-1.59,9.08-2.94,11.77-2.33.37.12.61.24.86.49.37.25.74.61,1.1,1.1.37.61.74,1.35.98,2.09.37.98.61,1.96.86,3.07.37,2.21.37,4.42,0,6.26-.49,2.08-1.23,4.05-2.21,6.01-.86,1.84-2.09,3.56-3.43,5.03-3.8,4.29-9.08,6.38-14.1,3.8-.49-.37-.98-.61-1.47-.98-.49-.37-.98-.86-1.35-1.23-.61-.86-1.1-1.84-1.23-2.94-.25-.86-.37-1.84-.37-2.82ZM649.09,318.49c0,.12,0,.25-.12.49-.12.24-.25.49-.37.86v.12c-.12.25-.24.49-.49.86v.12c-.25.25-.37.49-.61.86-.49.61-.98,1.23-1.59,1.72-.49.61-1.1.98-1.47,1.23l-66.6,32.99c-2.7,1.35-10.18.98-9.93-.86v-.12c.12-1.23.74-2.7,1.59-4.17.74-1.47,1.59-2.82,2.58-3.92l71.5-35.32,4.05,3.31,1.35,1.1c.12.12.25.25.12.49v.24Z"/>
  <path d="M454.57,572.38c0-4.42-5.4-12.02-9.08-14.23-3.07-1.59-12.63-1.47-16.56.49l-81.93,40.96c-20.85,10.42-34.34,27.6-34.34,52.13l-.37,88.67c0,6.26,4.17,15.33,8.22,18.03,3.56,2.7,14.47,3.07,19.26.74l78.13-38.63c21.1-10.55,37.04-28.58,36.92-54.33l-.25-93.83ZM339.53,667.8c-.74-2.82-.86-5.52-.49-8.1.12-.98.37-1.96.61-2.82.25-1.1.49-2.08.98-2.94.25-.98.74-1.96,1.35-2.82.37-.61.74-1.23,1.23-1.84,1.1-1.96,2.7-3.68,4.42-5.27.98-.98,2.08-1.96,3.31-2.7,2.21-1.84,4.78-3.19,7.36-4.05.49-.12.98-.12,1.59-.12,1.96-.12,4.54.61,6.87,1.72.98.49,1.96,1.1,2.82,1.72h.12c.49.37.86.74,1.1.98.24.37.49.74.74.98.12.24.24.49.24.74v.12c.12.12.12.25.12.37v.12c.12.24.12.49.12.74l.12.24v.12c0,.61,0,1.23-.12,1.84,0,.61-.12,1.1-.25,1.59,0,.49-.12,1.1-.37,1.59-.74,2.45-2.08,4.54-3.56,4.54-.25.12-.49.12-.74,0l-10.92-4.42c-.25-.12-.37-.12-.61-.12s-.49.12-.74.24c-.12,0-.37.12-.49.37-.12.12-.37.25-.49.49-.37.37-.74.98-1.23,1.47-.49.74-.98,1.72-1.47,2.58-.74,1.59-1.72,3.19-2.7,4.78-.61,1.1-1.35,2.08-2.08,3.07-.37.49-.74.98-1.23,1.47-.86.98-1.72,1.72-2.7,2.21-.86.61-1.84.98-2.94,1.1ZM425.87,665.34l-.12.12c-.25.61-.49,1.1-.74,1.72-1.35,3.07-2.82,6.01-4.42,8.83-1.47,2.45-2.94,4.78-4.66,7.11-3.68,5.15-7.85,9.69-12.39,13.86-1.96,1.84-4.17,3.43-6.38,5.15-2.21,1.59-4.54,3.07-6.99,4.42-1.23.86-2.58,1.47-3.92,2.08-2.21,1.23-4.42,2.21-6.75,3.19-11.9,5.15-26.12,5.15-35.69-7.36-1.1-1.59-2.58-7.11-2.58-8.95.12-2.21,5.76-4.54,7.97-3.8.25.25.49.37.61.49.49.49,1.1,1.1,1.84,1.72.61.61,1.35,1.23,2.08,1.72,1.47,1.1,3.19,2.09,5.03,2.94,1.59.74,3.19,1.35,4.91,1.84.74.12,1.47.37,2.33.49,2.94.49,5.76.49,8.34-.12,4.54-1.1,8.46-2.58,12.14-4.42,1.84-.86,3.56-1.96,5.15-3.07,1.23-.74,2.33-1.59,3.43-2.58,2.21-1.84,4.29-3.68,6.13-5.76,2.33-2.33,4.29-4.66,5.89-7.11,2.94-4.05,5.27-8.22,7.48-11.9.74-1.23,1.47-2.45,1.96-3.56,1.23-2.21,2.33-4.17,3.43-5.64.49-.86.98-1.47,1.47-1.96,1.72-1.96,3.31-2.45,5.03-.74.74.74,1.59,1.72,2.45,3.31-.86,2.7-1.96,5.4-3.07,7.97ZM427.71,625.36c-.37,0-.86-.12-1.35-.25-2.58-.49-6.38-2.08-8.95-2.45-.98-.24-1.84-.37-2.33,0v.12l-16.93,18.89c-.49-1.1-.86-2.21-1.1-3.31-.25-.86-.49-1.84-.49-2.7-.12-.74-.12-1.47-.12-2.21,0-1.47.12-3.07.49-4.42.98-3.92,2.94-7.6,5.64-10.67.61-.74,1.1-1.23,1.72-1.72,2.33-2.33,5.03-4.17,7.85-5.4.61-.49,1.35-.74,2.08-.86,2.94-1.1,5.76-1.47,8.59-1.1.86.12,1.96.49,3.19,1.23.24.12.49.37.86.61h.12c.74.49,1.47,1.1,1.96,1.59.37.37.74.74.98.98.37.37.49.61.61.86.25.37.37.61.25.98v.24l-1.72,8.83c-.12.49-.61.74-1.35.74Z"/>
  <path d="M454.69,330.51c0-4.66-5.4-13.25-9.44-14.96-3.56-1.47-12.63-1.1-16.07.49l-78.86,39.74c-18.76,9.57-37.53,25.02-37.65,48.45l-.37,97.87c0,4.54,4.91,12.39,8.34,14.72,2.94,2.08,12.76,3.07,16.44,1.35l84.63-41.09c20.36-9.69,33.24-28.58,33.12-52.13l-.12-94.44ZM400.24,383.5c0-.12,0-.24.12-.37.12-.37.12-.86.25-1.35.12-.37.25-.86.37-1.23.25-.86.61-1.72.98-2.58.25-.74.61-1.47,1.1-2.09,1.35-2.58,3.31-4.78,5.52-6.25.74-.61,1.59-1.1,2.45-1.47.25-.12.37-.24.61-.24.74-.37,1.59-.61,2.45-.74,1.84-.25,6.75.12,8.34.49.37.12.61.25.74.61.25.37.37.74.49,1.1.24.98.49,2.33.49,3.68.12.98.12,2.08.12,3.07,0,1.72-.25,3.56-.74,5.4-.37,1.1-.74,2.08-1.23,3.19-1.84,3.8-4.78,7.24-7.97,9.32-.86.61-1.84,1.1-2.82,1.35-2.58.86-5.27.61-7.73-1.35h-.12c-3.31-2.58-4.05-6.5-3.43-10.55ZM347.01,404.22c.61-1.1,1.72-2.45,3.07-3.8.61-.61,1.35-1.23,2.08-1.84.37-.37.74-.61,1.1-.86.61-.49,1.23-.86,1.84-1.35.61-.37,1.35-.74,1.96-.98,2.58-1.23,5.15-1.72,7.11-.74,6.5,3.56,4.54,14.35,1.84,18.89-.61,1.23-1.84,2.58-3.31,3.92-.74.61-1.47,1.35-2.33,1.96-2.94,2.21-6.38,3.92-9.32,3.8-.74,0-1.47,0-2.09-.25-.86-.37-1.47-.86-2.08-1.35-.49-.49-.98-1.1-1.23-1.72-2.45-4.42-.49-12.14,1.35-15.7ZM425.87,441.02c-.37,2.33-6.01,4.29-7.97,3.07-3.19-1.84-6.26-3.31-9.2-4.17-.86-.37-1.59-.49-2.33-.74-3.92-1.1-7.73-1.47-11.28-1.1-.61,0-1.23.12-1.72.25-3.43.49-6.75,1.47-9.93,3.19-1.59.74-3.07,1.59-4.54,2.58-1.96,1.47-3.8,2.94-5.64,4.54-1.96,1.72-3.8,3.68-5.52,5.64-1.72,1.96-3.56,4.17-5.27,6.5-1.72,2.33-3.31,4.78-5.03,7.36-1.59,2.58-3.19,5.27-4.78,8.09l-2.7,4.78c-.86,1.59-6.87-1.23-8.46-2.58,9.44-25.27,25.76-42.56,49.92-52.37,5.15-1.35,10.06-1.72,14.6-1.35,1.23.12,2.33.37,3.43.49,2.33.49,4.29,1.1,6.26,1.84.98.37,1.84.74,2.7,1.35.61.37,1.35.86,1.96,1.35.61.37,1.23.86,1.72,1.35.98.86,1.84,1.84,2.33,2.7.49.74.98,1.59,1.1,2.45.61,1.47.74,3.07.37,4.78Z"/>
</svg>