<?xml version="1.0" encoding="UTF-8"?>
<svg id="a" data-name="Camada 1" xmlns="http://www.w3.org/2000/svg" viewBox="0 0 900 900">
  <defs>
    <style>
      .b {
        fill: #fff;
      }
    </style>
  </defs>
  <path d="M711.97,671.63c-54.08,34.33-146.45,86.62-204,101.4-34.38,8.83-70.87-10.74-81.88-45.38-26.71-84.06,12.37-173.87,92.06-212.28,58.93-28.4,114.54-57.15,170.44-91.14,19.66-11.95,38.91-22.62,60.52-29.6,30.16-9.74,58.7,6.66,66.02,38.87,12.12,53.34,2.36,111.72-25.54,160.03-18.89,32.7-46.13,58.11-77.61,78.1ZM763.63,602.44l.09-47.84c.01-6.21-7.86-16.86-13.41-18.93-5.57-2.08-16.59-.86-21.64,2.83-11.43,8.35-18.58,21.24-18.43,35.27l.53,50.66c.05,5.2,8.72,14.16,13.61,15.84,17.3,5.93,39.2-14.66,39.25-37.84ZM666.19,680.2c7.84-8.2,13.47-20.86,13.44-31.03l-.13-47.18c-.04-14.04-14.43-23.47-28.07-18.97-15.41,5.08-24.63,21.31-24.79,37.36l-.45,44.54c-.09,9.05,5.65,18.71,13.69,22.12,7.7,3.27,18.79,1.03,26.3-6.83ZM567.1,734.72c18.61-8.34,24.48-25.18,24.73-42.18l.57-38.27c.13-8.67-6.09-19.22-13.14-22.41-8.32-3.76-19.52-1.73-26.81,5.15-8.53,8.05-14.68,22.16-14.63,33.68l.22,44.3c.03,5.41,4.99,15.14,9.19,18.11,3.68,2.6,15.3,3.66,19.86,1.62Z"/>
  <path d="M446.98,773.57c-56.79-12.33-118.07-61.56-129.2-118.82,11.85,5.15,23.6,10.39,35.13,11.56,15.22,1.55,29.1-9.23,35.33-23,11.96-26.46,5.84-61.93-18.19-80.19-16.54-12.57-34.46-21.45-52.67-32.26,17.6-33.96,47.75-56.99,83.89-67.13l94.82-26.59c39.6-11.11,78.73-27.61,109.89-54.86,17.27-15.1,31.8-32.51,46.95-49.68,6.7-7.59,13.81-14.7,25.22-9.31l76.23,35.96c15.12,7.13,28.64,16.73,41.47,27.2-45.15-12.8-75.65,6.09-113.49,28.55-53.42,31.71-105.7,60.73-162.47,86.62-81.56,37.19-126.92,122.64-110.2,211.32,4.67,24.76,18.66,42.86,37.29,60.63Z"/>
  <path d="M523.81,417.59c-18.02-74.71-51.35-140.13-103.09-194.59-48.85-50.93-107.6-89.94-180.88-88.6,51.99-26.21,84.16-46.66,144.52-27.59,105.44,33.32,190.03,159.56,214.1,268.37-22.16,16.84-44.84,29.04-74.65,42.41Z"/>
  <path d="M114.32,408.43c-11.74-7.93-24.7-22.89-26.59-39.8-7.96-70.94,215.74-159.46,294.97-164.89,29.37,23.35,52.11,49.61,73.7,82.78-117.45-2.25-248.41,41.82-342.08,121.91Z"/>
  <path d="M336.87,650.73l-119.55-68.91c-34.58-19.93-68.28-37.71-100.22-61.85-45.96-34.73-36.85-74.97-36.16-131.09,15.54,21.26,30,37.63,52.16,50.24l217.6,123.79c24.96,14.2,35.97,39.85,30.43,67.51-1.66,8.3-9.07,18.29-15.04,21.36-7.68,3.95-20.71,3.86-29.22-1.04Z"/>
  <path d="M308.68,525.13l-46.53-25.27c25.99-55.9,80.95-78.5,141.6-89.32,34.79-6.2,65.55-15.05,98.41-28.56l9.67,39.52-109.69,30.58c-39.82,11.1-72.61,32.47-93.46,73.06Z"/>
  <path d="M727.63,334.21c-16.86-8.72-34.08-16.68-50.91-21.4-10.42-2.92-15.85-4.43-20-14.47-6.21-15.06-19.27-24.03-34.57-23.14-14.3.83-22.94,12.47-31.96,30.66-17.26-33.05-33.66-62.71-52.67-93.34,18.24,5.64,33.25,11.6,47.98,19.96l172.59,97.92c14.13,8.02,24.11,20.12,30.19,35.17l-60.65-31.36Z"/>
  <path d="M242.66,229.96l-77.79,38.54c.56-27.33,5.66-56.28,19.14-80.32,16.92-30.19,47.3-47.01,81.21-40.29-16.11,23.88-21.51,51.05-22.56,82.06Z"/>
  <path d="M326.92,708.8l-36.96-22.2c-21.7-19.48-39.6-41.63-43.19-74.15l56.54,32.15c5.68,23.24,12.83,39.7,23.61,64.2Z"/>
  <path d="M653.1,316.54l-45.14,49.49-13.58-46.68,17.81-27.72c6.49-10.1,25.94-5.19,30.69,4.37l10.22,20.54Z"/>
  <path class="b" d="M763.63,602.44c-.05,23.17-21.95,43.76-39.25,37.84-4.9-1.68-13.56-10.64-13.61-15.84l-.53-50.66c-.15-14.04,7-26.92,18.43-35.27,5.06-3.69,16.07-4.91,21.64-2.83,5.54,2.07,13.42,12.71,13.41,18.93l-.09,47.84ZM752.93,609.84c1.84-18.59,2.29-41.26-1.78-60.76-1.24-4.75-16.49-3.73-19.62-.04-3.12,3.69-9.91,11.94-10.02,17.2l-1.08,51.47c-.07,3.52,3.2,9.67,5.67,11.58,8.45,6.54,25.73-8.33,26.83-19.45Z"/>
  <path class="b" d="M567.1,734.72c-4.55,2.04-16.18.98-19.86-1.62-4.2-2.97-9.16-12.7-9.19-18.11l-.22-44.3c-.06-11.51,6.1-25.63,14.63-33.68,7.29-6.88,18.48-8.91,26.81-5.15,7.05,3.19,13.27,13.73,13.14,22.41l-.57,38.27c-.25,17-6.13,33.84-24.73,42.18ZM582.1,698.75l.07-46.74c0-4.04-4.12-11.5-7.65-12.24-11.78-2.47-26.18,12.58-26.08,30.15l.26,44.51c.02,3.24,3.23,9.65,5.91,11.14,9.36,5.2,27.46-9.63,27.49-26.82Z"/>
  <path class="b" d="M666.19,680.2c-7.52,7.86-18.6,10.1-26.3,6.83-8.03-3.41-13.78-13.06-13.69-22.12l.45-44.54c.16-16.05,9.37-32.28,24.79-37.36,13.64-4.49,28.03,4.94,28.07,18.97l.13,47.18c.03,10.17-5.6,22.83-13.44,31.03ZM670.28,645.94l-.17-41.12c-.01-3.2-3.41-9.67-6.03-11.41s-11.13-.77-13.83,1.32c-7.63,5.93-14.22,18.35-14.17,28.73l.22,43.23c.02,4.22,5.16,11.36,8.49,12.28,10.43,2.9,25.55-12.76,25.47-33.03Z"/>
</svg>