<?xml version="1.0" encoding="UTF-8"?>
<svg id="a" data-name="Camada 1" xmlns="http://www.w3.org/2000/svg" viewBox="0 0 900 900">
  <defs>
    <style>
      .b {
        fill: #fff;
      }
    </style>
  </defs>
  <path d="M446.43,823.39c-16.32,9.32-28.57,4.83-42.38-3.29l-287.01-168.8,413.92-235.41c18.09-10.29,36.76-10.62,53.25,1.17l268.86,156.82,5.48,8.73c1.21,1.93-3.84,6.5-6.47,8.01l-405.67,232.77ZM447.81,666.46l260.21-149.4-136.86-81.01c-13.67-8.09-22.24-9.69-36.89-1.38l-362.67,205.66c-2.56,1.45-7.37,8.71-5.65,10.77,1.29,1.54,4.64,4.46,6.77,5.69l143.95,83.68,131.14-74.01ZM565.37,734.56l129.66-74.16,5.82-9.17c1.32-2.08-4.18-7.53-6.57-8.94l-76.21-44.7c-7.15-4.2-16.03-4.24-23.15-.19l-134.53,77.16c-2.47,3.34-5.2,7.39-5.65,10.07-.36,2.14,4.46,6.13,6.39,7.27l78.89,46.63c5.89,3.48,18.6.51,25.35-3.98Z"/>
  <path d="M131.33,697.35c-13.98-8.18-17.7-20.21-11.68-32.84l283.17,166.46c11.59,6.82,28.92,12.17,41.75,4.81l413.27-237.05c1.97,8.4,1.94,17.92-.17,25.32l-408.54,234.75c-14.4,8.28-30.93,6.43-44.45-1.48l-273.35-159.98Z"/>
  <path class="b" d="M447.81,666.46l-131.14,74.01-143.95-83.68c-2.13-1.24-5.48-4.15-6.77-5.69-1.72-2.06,3.09-9.31,5.65-10.77l362.67-205.66c14.65-8.31,23.22-6.71,36.89,1.38l136.86,81.01-260.21,149.4ZM198.56,650.21l365.26-206.92c-6.3-7.28-12.3-8.45-19.02-4.64l-369.52,209.56c7.18,10.21,13.31,7.64,23.28,2ZM568.36,478.34l29.31-17.49-25.07-13.91-28.9,16.86,24.66,14.54ZM578.11,509.19l51.51-29.16-25.33-14.81-50.13,28.53,23.95,15.44ZM535.83,496.82l26.52-15.48-25.02-14.16-25.22,15.04,23.72,14.59ZM504.65,514.78l24.73-15.24-24.82-14.6-24.65,15.14,24.74,14.7ZM592.56,537.65l69.69-39.24-24.8-14.46-68.48,38.9,23.58,14.81ZM547.35,524.8c8.95-2.77,16.23-7.45,24.71-12.73l-26.1-14.43-23.17,14.3c4.78,4.22,18.52,14.73,24.57,12.86ZM472.73,532.1l25.28-14.46-24.85-14.67-23.45,14.41,23.02,14.72ZM668.59,532.61l25.63-15.58-23.09-14.63-27.92,15.31,25.39,14.9ZM515.22,545.31l24.18-15.35-24.43-14.18-24.39,14.4,24.65,15.12ZM441.14,550.44l23.63-14.9-22.99-14.16-25.55,14.39,24.91,14.66ZM634.99,549.6c9.7-2.76,18.93-8.96,25.56-13.8l-23.03-14.22-27.81,14.82c5.32,4.87,18.52,15.12,25.28,13.2ZM586.95,540.47l-24.34-14.67-26.82,14.46,26.11,14.79,25.05-14.59ZM484.56,563.33l23.71-15.37-24.98-14.69-24.06,15.26,25.32,14.79ZM409.65,568.64l25.17-15.23-22.67-13.58c-7.74,1.84-19.27,8.74-25.5,14.06l22.99,14.75ZM596.78,573.13l29.53-18.14-23.97-14.77-31.18,17.67,25.62,15.24ZM530.03,570.88c8.46-1.1,18.53-8.15,24.38-13.21l-24.57-13.91-23.51,14.22c5.71,4.92,17.1,13.76,23.7,12.9ZM451.75,581.02l26.09-15.26-25.11-13.86-24.75,14.48,23.77,14.63ZM378.75,585.7l23.75-14.25c-6.15-5.05-19.54-15.52-25.38-12.33l-22.11,12.09,23.74,14.48ZM497.95,590.99l25.41-14.49-24.97-14.96-23.98,15.22,23.53,14.22ZM426.96,669.43l161.76-92.57c-7.28-6.18-15.83-11.28-25.31-14.93l-162.73,92.49,26.28,15ZM446.75,584.14l-26.91-14.22-24.38,14.01,24.56,14.64,26.73-14.42ZM347.53,602.35l23.74-13.09-23.56-14.93-25.08,14.4c7.03,5.3,18.93,14.14,24.91,13.62ZM466.17,609.51l25.45-14.86-24.51-14.54-25.59,14.53,24.65,14.86ZM389.06,617.07l25.02-15.1-23.92-14.69-26.8,14.67,25.7,15.12ZM315.01,622.16l24.31-14.65c-6.85-5.73-18.26-14.93-24.34-13.2-8.06,2.29-15.73,7.53-23.65,12.68l23.67,15.17ZM434.56,627.73l25.43-15.47-24.53-13.83-24.92,13.97,24.03,15.33ZM357.4,634.54l25.38-14.56-25.24-14.56-24.7,15.39,24.56,13.73ZM284.57,639.93l25.04-15.38-24.57-14-24.31,13.69,23.84,15.68ZM402.51,645.56l24.9-14.66c-6.07-5.3-19.31-15.31-25.12-12.5l-25.13,12.15,25.36,15.01ZM325.51,652.6l25.2-15.16-24.3-13.81-24.64,13.61,23.74,15.35ZM252.23,655.11c10.26-1,19.1-8.11,24.27-13.06l-24.01-14.19-23.32,14.05c6.03,4.94,17.31,13.76,23.05,13.2ZM372.82,661.01c8.59-2.93,17.38-8.94,22.81-12.92l-23.27-14.16-24.69,14.21c6.05,5.73,18.52,15.13,25.15,12.87ZM295.11,668.33l24.28-12.34-24.17-15.1-23.92,14.33c5.4,5.77,18.18,15.96,23.81,13.1ZM221.19,675.59l24.79-15.2-25.02-15.1-25.43,15.92,25.66,14.37ZM340.08,680.65l24.51-14-23.69-15.02-25.02,14.74,24.2,14.28ZM254.05,693.48l33.27-20.12-24.72-14.57-33.98,20.54c6.93,5.34,17.27,11.59,25.43,14.15ZM388.94,691.52l31.11-18.73-25.38-14.59-32.1,17.89,26.37,15.42ZM334.51,683.86l-26.13-14.54-48.73,28.39,23.76,15.13,51.1-28.98ZM350.99,712.89l29.84-18.43-25.49-14.82-29.92,18.11,25.57,15.13ZM319.34,730.86l24.97-15.26-24.65-14.77-28.13,16.14c8.99,5.56,20.03,11.58,27.81,13.89Z"/>
  <path class="b" d="M565.37,734.56c-6.75,4.49-19.47,7.46-25.35,3.98l-78.89-46.63c-1.93-1.14-6.75-5.12-6.39-7.27.45-2.68,3.18-6.74,5.65-10.07l134.53-77.16c7.12-4.05,15.99-4,23.15.19l76.21,44.7c2.4,1.41,7.89,6.86,6.57,8.94l-5.82,9.17-129.66,74.16ZM692.22,651.4l-86.02-50.69-143.05,82.12,86.3,50.84,142.77-82.27Z"/>
  <path d="M198.56,650.21c-9.96,5.64-16.1,8.22-23.28-2l369.52-209.56c6.72-3.81,12.71-2.64,19.02,4.64l-365.26,206.92Z"/>
  <path d="M426.96,669.43l-26.28-15,162.73-92.49c9.48,3.65,18.03,8.75,25.31,14.93l-161.76,92.57Z"/>
  <polygon points="592.56 537.65 568.98 522.84 637.46 483.95 662.25 498.41 592.56 537.65"/>
  <polygon points="578.11 509.19 554.16 493.74 604.29 465.22 629.62 480.03 578.11 509.19"/>
  <polygon points="334.51 683.86 283.41 712.84 259.66 697.71 308.38 669.32 334.51 683.86"/>
  <path d="M254.05,693.48c-8.16-2.56-18.5-8.81-25.43-14.15l33.98-20.54,24.72,14.57-33.27,20.12Z"/>
  <polygon points="388.94 691.52 362.57 676.1 394.67 658.2 420.05 672.79 388.94 691.52"/>
  <polygon points="350.99 712.89 325.42 697.77 355.34 679.65 380.83 694.47 350.99 712.89"/>
  <polygon points="596.78 573.13 571.16 557.89 602.33 540.23 626.3 555 596.78 573.13"/>
  <polygon points="568.36 478.34 543.7 463.79 572.59 446.94 597.66 460.84 568.36 478.34"/>
  <path d="M319.34,730.86c-7.78-2.32-18.82-8.33-27.81-13.89l28.13-16.14,24.65,14.77-24.97,15.26Z"/>
  <path d="M634.99,549.6c-6.76,1.92-19.96-8.32-25.28-13.2l27.81-14.82,23.03,14.22c-6.63,4.84-15.86,11.04-25.56,13.8Z"/>
  <polygon points="668.59 532.61 643.21 517.7 671.12 502.39 694.22 517.02 668.59 532.61"/>
  <polygon points="221.19 675.59 195.53 661.21 220.97 645.29 245.98 660.39 221.19 675.59"/>
  <polygon points="484.56 563.33 459.24 548.53 483.29 533.27 508.27 547.95 484.56 563.33"/>
  <polygon points="389.06 617.07 363.36 601.95 390.16 587.28 414.08 601.98 389.06 617.07"/>
  <polygon points="586.95 540.47 561.9 555.06 535.79 540.26 562.61 525.8 586.95 540.47"/>
  <path d="M402.51,645.56l-25.36-15.01,25.13-12.15c5.82-2.81,19.05,7.2,25.12,12.5l-24.9,14.66Z"/>
  <path d="M530.03,570.88c-6.61.86-17.99-7.98-23.7-12.9l23.51-14.22,24.57,13.91c-5.85,5.06-15.92,12.11-24.38,13.21Z"/>
  <polygon points="535.83 496.82 512.11 482.22 537.33 467.18 562.35 481.34 535.83 496.82"/>
  <path d="M347.53,602.35c-5.97.51-17.87-8.33-24.91-13.62l25.08-14.4,23.56,14.93-23.74,13.09Z"/>
  <polygon points="466.17 609.51 441.52 594.64 467.11 580.11 491.62 594.65 466.17 609.51"/>
  <polygon points="497.95 590.99 474.42 576.77 498.39 561.55 523.36 576.5 497.95 590.99"/>
  <polygon points="504.65 514.78 479.91 500.08 504.56 484.94 529.38 499.53 504.65 514.78"/>
  <path d="M547.35,524.8c-6.05,1.87-19.78-8.64-24.57-12.86l23.17-14.3,26.1,14.43c-8.48,5.28-15.75,9.96-24.71,12.73Z"/>
  <polygon points="434.56 627.73 410.53 612.4 435.45 598.43 459.98 612.26 434.56 627.73"/>
  <path d="M252.23,655.11c-5.75.56-17.03-8.26-23.05-13.2l23.32-14.05,24.01,14.19c-5.17,4.96-14.01,12.06-24.27,13.06Z"/>
  <path d="M372.82,661.01c-6.63,2.26-19.1-7.14-25.15-12.87l24.69-14.21,23.27,14.16c-5.42,3.97-14.21,9.98-22.81,12.92Z"/>
  <polygon points="515.22 545.31 490.57 530.19 514.97 515.79 539.4 529.96 515.22 545.31"/>
  <path d="M409.65,568.64l-22.99-14.75c6.23-5.33,17.75-12.22,25.5-14.06l22.67,13.58-25.17,15.23Z"/>
  <path d="M315.01,622.16l-23.67-15.17c7.91-5.15,15.58-10.39,23.65-12.68,6.07-1.72,17.49,7.48,24.34,13.2l-24.31,14.65Z"/>
  <polygon points="446.75 584.14 420.03 598.57 395.46 583.93 419.85 569.92 446.75 584.14"/>
  <polygon points="340.08 680.65 315.88 666.36 340.9 651.62 364.59 666.64 340.08 680.65"/>
  <polygon points="357.4 634.54 332.84 620.81 357.54 605.42 382.78 619.98 357.4 634.54"/>
  <polygon points="451.75 581.02 427.98 566.39 452.73 551.9 477.84 565.76 451.75 581.02"/>
  <polygon points="325.51 652.6 301.77 637.25 326.41 623.63 350.71 637.44 325.51 652.6"/>
  <polygon points="284.57 639.93 260.73 624.25 285.04 610.56 309.61 624.56 284.57 639.93"/>
  <path d="M295.11,668.33c-5.63,2.86-18.41-7.34-23.81-13.1l23.92-14.33,24.17,15.1-24.28,12.34Z"/>
  <polygon points="441.14 550.44 416.23 535.77 441.78 521.38 464.77 535.54 441.14 550.44"/>
  <polygon points="472.73 532.1 449.7 517.38 473.16 502.97 498.01 517.64 472.73 532.1"/>
  <path d="M378.75,585.7l-23.74-14.48,22.11-12.09c5.84-3.19,19.22,7.27,25.38,12.33l-23.75,14.25Z"/>
  <polygon points="692.22 651.4 549.45 733.66 463.15 682.83 606.2 600.7 692.22 651.4"/>
  <path d="M120.87,637.73c-4.34,2.46-12.18,4.74-13.23,2.4l-4.76-10.58.1-306.21c.25-16.4,8.22-26.45,21.93-34.24L531.22,58.09c3.07-1.74,9.93-2.05,12.42-.78,2.49,1.27,5.9,7.9,5.9,10.99l.05,309.68c0,13.88-8.68,24.47-21.51,28.62l-407.2,231.13ZM528.24,380.69l-1.61-294.27L124.71,314.51l2.15,294.29,401.38-228.11Z"/>
  <path d="M92.89,634.1c-5.78-2.17-14.37-10.4-14.37-16.76l-.12-303.03c0-16.08,8.67-31.68,22.7-39.65L503.31,46.11c9.03-5.13,19.36-3.83,25.67,2.1L116.01,283.24c-14.43,8.21-22.98,23.07-22.98,39.81l-.14,311.06Z"/>
  <path class="b" d="M528.24,380.69l-401.38,228.11-2.15-294.29,401.92-228.1,1.61,294.27ZM518.71,375.2l-.44-273.82-384.19,218.44,1.14,273.54,383.5-218.15Z"/>
  <polygon points="518.71 375.2 135.22 593.35 134.08 319.81 518.27 101.38 518.71 375.2"/>
</svg>