<?xml version="1.0" encoding="UTF-8"?>
<svg id="a" data-name="Camada 1" xmlns="http://www.w3.org/2000/svg" viewBox="0 0 900 900">
  <defs>
    <style>
      .b {
        fill: #fff;
      }
    </style>
  </defs>
  <path d="M360.94,869.4c-10.01,5.81-21.78,7.37-29.52,3.64-7.83-3.77-17-14.72-17.01-26.01l-.94-567.24c-.08-45.22,21.14-76.49,59.01-98.04l219.73-125.06c7.61-4.33,21.16-5.59,28.04-2.36,6.61,3.1,15.87,14.62,15.87,24.94l-.33,578.7c-.02,29.02-18.8,62.78-43.39,77.06l-231.45,134.38ZM335.9,278.06l.37,544.72c0,6.64,5.3,15.26,9.55,17.41s14.92,1.5,20.04-1.46l222.92-128.74c15.01-8.67,24.76-30.67,24.77-48.29l.09-559.33c0-5.51-4.61-12.82-7.94-14.98s-14.32-3.02-18.15-.86l-43.78,24.68c1.48,22.16-5.91,37.39-24.21,47.63l-91.46,51.17c-3.52,1.97-16.38,2.74-17.58-1.06l-5.67-17.99-48.94,30.24c-17.94,14.38-20.03,33.21-20.01,56.86ZM512.43,141.28c1.75-1.9-1.26-9.74-3.66-8.85-1.8.66-6.63,3.32-6.73,5.24l-.42,7.75c-.09,1.56,4.16,3.09,5.22,1.94l5.59-6.08ZM493.32,152.47l-5.18-8.05-40.42,24.99,3.34,6.99,42.26-23.94Z"/>
  <path d="M303.37,837.06c0,11.58,3.36,18.89,6.06,27.93l-39.37-23.38c-6.35-3.77-12.76-15.24-12.75-24.48l.6-590.54c.03-27.1,20.71-56.55,42.53-69.06L534.03,23.57c14.53-8.33,28.71-4.61,41.76,2.7l27.3,15.29-28.81,13.02-223.07,128.32c-30.21,17.38-48.11,52.07-48.09,87.27l.25,566.88ZM287.95,361.36l-.11-51.18c-.01-5.36-9.7-12.22-15.41-8.72l-.39,53.85c-.02,2.59,5.11,9.88,7.2,9.74s4.97-1.69,8.7-3.7ZM287.81,441.84l.08-50.17c0-6.24-9.75-12.76-15.46-9.28l-.36,54.54c-.02,2.85,4.33,8.86,6.05,10.5s9.69-2.81,9.69-5.6Z"/>
  <path class="b" d="M335.9,278.06c-.02-23.65,2.07-42.48,20.01-56.86l48.94-30.24,5.67,17.99c1.2,3.8,14.06,3.03,17.58,1.06l91.46-51.17c18.3-10.24,25.69-25.47,24.21-47.63l43.78-24.68c3.83-2.16,14.83-1.3,18.15.86s7.94,9.47,7.94,14.98l-.09,559.33c0,17.62-9.76,39.62-24.77,48.29l-222.92,128.74c-5.12,2.95-15.79,3.61-20.04,1.46s-9.55-10.77-9.55-17.41l-.37-544.72ZM584.54,222.25c9.21-14.12,5.79-33.06,1.43-47.53l-36.8,19.56c-4.35,16.25-3.8,32.59-.76,49.66,13.52-5.73,29.33-11.27,36.13-21.68ZM524.86,253.74c5.77-13.59,3-30.12.52-43.53-13.47,4.83-30.29,11.01-37.45,22.01-7.53,11.56-4.39,31.65-.88,44.97,13.15-4.27,32.7-11.39,37.82-23.45ZM463.47,293.91c3.75-17.24,3.55-31.56.56-48.78-13.49,4.51-30.59,10.77-37.57,21.95-8.06,12.91-4.64,31.67-.93,47.41l37.94-20.58ZM586.59,300.12c5.75-14.16,3.18-29.71.97-44.02-13.18,4.18-31.05,10.72-37.77,22.19-7.01,11.96-3.97,31.93.02,44.65,12.6-4.51,32.1-11.27,36.78-22.82ZM401.82,324.08c4.88-14.64,2.38-30.01.13-44.01-13.9,5.43-29.99,11.24-37.3,22.44s-4.06,31.53-.95,44.92c12.66-4.14,32.56-11.72,38.13-23.35ZM524.9,334.6c5.71-13.56,3.03-30.16.56-43.99-13.65,4.31-30.44,10.78-37.66,22.56-7.2,11.75-3.85,31.59-.85,45.78,13.42-4.73,32.66-11.77,37.95-24.35ZM461.93,372.01c7.81-12.74,5.24-32.25.57-46.32-13.58,5.61-28.21,12.64-37.01,21.66-5.59,14.3-4.03,32.4-.48,47.4,13.92-5.64,30.17-11.74,36.92-22.74ZM403.17,408.03c1.94-18.74,2.01-32.42-1.39-48.61-14.18,6.37-28.28,11.74-36.03,21.94-9.41,12.39-6.34,34.19.13,47.59l37.29-20.92ZM461.3,453.47c8.4-12.46,5.53-31.09,1.87-45.28-12.9,3.47-32.54,10.51-37.92,22.1-5.89,12.68-3.06,29.85-.79,44.16,13.35-4.01,29.36-9.89,36.84-20.98ZM400.58,487.03c7.51-13.61,4.41-31.25,1.37-45.35-13.86,5.24-30.24,11.3-37.33,22.27-7.86,12.17-4.66,31.52-.81,45.27,12.38-4.11,30.41-10.65,36.77-22.19ZM584.78,677.41c7.64-14,4.72-31.69,1-45.66-13.11,5.3-28.08,12.14-35.28,20.41-6.85,14.78-5.54,32.7-.84,47.51,12.33-5.14,29.24-11.48,35.12-22.26ZM522.64,713.89c8.68-12.42,5.05-32.13,2.55-46.58-13.9,3.81-32.38,11.04-38.36,23.9-5.95,12.81-3.49,30.08.03,44.12,12.71-4.79,28.3-10.75,35.77-21.44ZM462.03,747c7.29-13.24,4.52-31.43,1.29-45.1-13.04,5.2-30.4,11.45-36.75,22.3-7.23,12.34-4.47,30.51-1.08,44.77,12.6-3.59,29.94-9.97,36.55-21.97ZM403.26,784.34l-.42-47.81c-14.21,4.72-28.82,10.32-37,21.54-8.98,12.31-6.18,33.8-.27,47.74l37.69-21.46Z"/>
  <polygon class="b" points="493.32 152.47 451.06 176.41 447.72 169.41 488.15 144.42 493.32 152.47"/>
  <path class="b" d="M512.43,141.28l-5.59,6.08c-1.06,1.15-5.3-.37-5.22-1.94l.42-7.75c.1-1.92,4.93-4.58,6.73-5.24,2.41-.89,5.41,6.96,3.66,8.85Z"/>
  <path class="b" d="M287.81,441.84c0,2.78-7.97,7.25-9.69,5.6s-6.07-7.66-6.05-10.5l.36-54.54c5.71-3.48,15.47,3.04,15.46,9.28l-.08,50.17Z"/>
  <path class="b" d="M287.95,361.36c-3.73,2.01-6.61,3.56-8.7,3.7s-7.22-7.15-7.2-9.74l.39-53.85c5.7-3.5,15.4,3.36,15.41,8.72l.11,51.18Z"/>
  <path d="M463.47,293.91l-37.94,20.58c-3.72-15.74-7.14-34.5.93-47.41,6.98-11.18,24.08-17.43,37.57-21.95,3,17.22,3.2,31.54-.56,48.78Z"/>
  <path d="M524.9,334.6c-5.3,12.58-24.53,19.62-37.95,24.35-3-14.18-6.35-34.03.85-45.78,7.22-11.78,24.01-18.25,37.66-22.56,2.47,13.83,5.15,30.43-.56,43.99Z"/>
  <path d="M461.93,372.01c-6.74,11-22.99,17.1-36.92,22.74-3.55-15-5.11-33.1.48-47.4,8.8-9.03,23.42-16.05,37.01-21.66,4.67,14.08,7.24,33.58-.57,46.32Z"/>
  <path d="M522.64,713.89c-7.47,10.69-23.06,16.65-35.77,21.44-3.53-14.05-5.99-31.32-.03-44.12,5.98-12.86,24.46-20.09,38.36-23.9,2.49,14.45,6.12,34.17-2.55,46.58Z"/>
  <path d="M584.54,222.25c-6.79,10.42-22.61,15.96-36.13,21.68-3.04-17.07-3.59-33.41.76-49.66l36.8-19.56c4.37,14.47,7.78,33.41-1.43,47.53Z"/>
  <path d="M524.86,253.74c-5.12,12.06-24.67,19.18-37.82,23.45-3.51-13.32-6.65-33.4.88-44.97s23.98-17.18,37.45-22.01c2.48,13.41,5.26,29.93-.52,43.53Z"/>
  <path d="M403.17,408.03l-37.29,20.92c-6.47-13.4-9.54-35.21-.13-47.59,7.75-10.2,21.85-15.57,36.03-21.94,3.4,16.2,3.34,29.87,1.39,48.61Z"/>
  <path d="M403.26,784.34l-37.69,21.46c-5.91-13.94-8.71-35.43.27-47.74,8.19-11.22,22.79-16.81,37-21.54l.42,47.81Z"/>
  <path d="M586.59,300.12c-4.68,11.54-24.19,18.31-36.78,22.82-3.98-12.73-7.02-32.69-.02-44.65,6.72-11.47,24.59-18.01,37.77-22.19,2.21,14.31,4.78,29.86-.97,44.02Z"/>
  <path d="M462.03,747c-6.61,12-23.95,18.38-36.55,21.97-3.38-14.26-6.14-32.43,1.08-44.77,6.36-10.85,23.72-17.1,36.75-22.3,3.23,13.67,6,31.86-1.29,45.1Z"/>
  <path d="M400.58,487.03c-6.37,11.54-24.39,18.07-36.77,22.19-3.85-13.75-7.05-33.1.81-45.27,7.09-10.97,23.47-17.02,37.33-22.27,3.04,14.1,6.14,31.74-1.37,45.35Z"/>
  <path d="M401.82,324.08c-5.57,11.63-25.46,19.21-38.13,23.35-3.11-13.39-6.44-33.58.95-44.92s23.4-17.01,37.3-22.44c2.25,14,4.74,29.38-.13,44.01Z"/>
  <path d="M461.3,453.47c-7.48,11.09-23.49,16.97-36.84,20.98-2.28-14.31-5.1-31.48.79-44.16,5.38-11.59,25.02-18.62,37.92-22.1,3.66,14.2,6.53,32.83-1.87,45.28Z"/>
  <path d="M584.78,677.41c-5.89,10.78-22.79,17.12-35.12,22.26-4.7-14.81-6.01-32.73.84-47.51,7.2-8.27,22.17-15.11,35.28-20.41,3.72,13.97,6.65,31.66-1,45.66Z"/>
</svg>