<?xml version="1.0" encoding="UTF-8"?>
<svg id="a" data-name="Camada 1" xmlns="http://www.w3.org/2000/svg" viewBox="0 0 900 900">
  <defs>
    <style>
      .b {
        fill: #fff;
      }
    </style>
  </defs>
  <path d="M530.97,500.97l80.99-179.73,204.33,120.61-417.73,243.15L97.36,508.32l417.91-243.09,45.01,25-80.13,183.19c-4.8,10.98-9.26,72.04-4.3,75.48,1.86,1.29,9,.23,10.79-1.64l44.32-46.28Z"/>
  <path d="M819.56,451.57c3.33-1.94,8.33-7.39,7.39-9.3l-4.1-8.38-206.24-121.1,9.76-21.37,228.61,134.97c4.44,2.62,9.5,9.79,10.27,13.77s-3.91,12.86-8.49,15.52l-441.86,256.93c-21.57,12.54-41.9,9.83-62.27-2.08L42.89,529.31c-3.52-2.06-7.76-11.09-7.46-14.88.35-4.42,5.66-10.13,11.61-13.58L489.95,244.13c19.04-11.04,42.19-7.92,59.55,2.12l24.38,14.1-10.44,20.92-41.68-23.15c-4.03-2.24-15.58,1.2-20.32,3.95L92.74,499.63c-2.33,1.35-6.02,4.51-6.27,6.36-.33,2.46,1.91,6.5,4.15,10.02l292,170.78c10.3,6.71,20.78,7.16,31.8.74l405.13-235.96ZM244.52,617.7l-26.96-14.93c-3.93-2.18-13.94,2.22-15.52,6.29l28.12,16.51c3.15,1.85,11.48-3.31,14.35-7.87Z"/>
  <path d="M40.11,570.99c-8.43-8.83-7.14-25.32-4.26-33.5l309.25,180.46c26.21,15.3,50.42,17.63,77.23,2.05l442.33-257.05c2.5,9.15,3.52,28.56-6.43,34.35l-435.88,253.91c-25.44,14.82-50.3,13.9-75.39-.77L40.11,570.99Z"/>
  <path d="M524.11,490.82l-38.35,41.6c1.92-18.79-1.99-40.75,5.43-57.49l141.93-320.26,34.53,15.59-143.54,320.57Z"/>
  <path d="M674.69,154.87l-34.74-15.45,15.08-33.23c3.93-8.67,15.83-12.06,23.68-9.19,10.22,3.73,15.72,14.99,10.83,25.61l-14.85,32.26Z"/>
  <path class="b" d="M244.52,617.7c-2.88,4.55-11.2,9.72-14.35,7.87l-28.12-16.51c1.57-4.06,11.59-8.47,15.52-6.29l26.96,14.93Z"/>
</svg>