<?xml version="1.0" encoding="UTF-8"?>
<svg id="a" data-name="Camada 1" xmlns="http://www.w3.org/2000/svg" viewBox="0 0 900 900">
  <defs>
    <style>
      .b {
        fill: #fff;
      }
    </style>
  </defs>
  <path d="M715.87,509.56l-455.17,266.42-61.36-67.78c-10.25-11.32-19.2-23.36-19.54-39.44l-1.3-62.02c-.12-5.48-16.59-4.6-20.83-1.32-11.42,8.81-26.84,12.35-40.29,6.32v-52.77c.02-36.54,20.07-78.31,54.21-98.31L749.9,121.8c34.49-20.21,65.88-19.81,67.47-1.27l2.38,27.75c-8.52-.59-13.33-1.29-16.41.27-3.59,1.82-6.86,10.42-8.15,16.17-.91,4.06,4.45,16.43,8.01,14.52l16.17-8.69-1.19,55.62c-37.79,17.73-31.15,34.19-31.19,75.3.48,17.66.08,36.05-6.69,52.4l-64.43,155.69ZM796.13,143.21c.41-4.01-4.8-12.67-8.31-13.01-3.51-.34-9.17,3.35-12.83,6.83-7.6,7.25-9.38,24.23,3.09,26.6,8.07,1.53,16.92-9.5,18.05-20.42ZM751.59,152.81l-7.38-8.72c-9.35,5.69-17.6,12.51-21.14,20.2,10.27,7.37,22.86,2.9,28.52-11.48ZM771.99,177.96c-2.52-2.59-10.6-5.64-13.87-4.08-5.35,2.55-12.26,15.13-10.84,25.27.51,3.66,9.62,7.48,13.19,6.35,9.36-2.97,17.29-21.61,11.52-27.54ZM793.29,190.13c-1.93-.33-7.17-.63-9.25-.24-11.91,2.2-16.31,22.73-8.92,29.35,3.17,2.84,14.14,1.24,16.15-2,8.52-13.72,4.89-26.62,2.03-27.11ZM669.17,520.68l-1.25-331.45-369.46,216.31,1.06,331.13,369.65-215.99ZM738.56,255.5c13.81-16.77,12.23-31.83,1.04-46.85-3.64-4.88-8.4-12.04-12.46-14.35-3.56-2.02-13.87-.68-17.93,1.75-17.44,10.42-28.67,33.37-24.1,54.85,2.73,12.83,15.46,17.74,27.27,14.03,9.77,2.36,19.8-1.7,26.18-9.44ZM693.43,391.96l53.05-29.1c6.96-3.82,12.43-15.27,12.47-23.72l.33-59.65c.02-3.05-1.82-8.85-3.46-10.77-1.64-1.92-9.35-1.81-11.69-.54l-50.19,27.24c-7.23,3.93-12.97,13.02-12.95,21.14l.18,69.02c0,3.31,9.26,8.03,12.27,6.38ZM684.7,437.41l32.44-15.93c5.92-7.26,6.41-20.02-.85-24.13l-29.98,15.6c-5.74,2.99-7.78,18.8-1.61,24.46ZM721.06,438.69c-15.7,5.32-26.46,12.04-37.55,21.12,15.35-3.91,27.91-10.97,37.55-21.12ZM236.57,454.42c1.61-2.1.89-10.72-1.63-11.17-2.53-.45-7.14.49-10.52,1.87-8.52,3.5-16.94,12.45-9.57,22.32,6.08-.53,17.42-7.41,21.72-13.03ZM715.27,454.27c-13.42,3.32-24.26,9.67-33.44,18.31,13.74-4.26,23.18-9.6,33.44-18.31ZM289.69,512.08c7.68-14.32,4.68-24.91-3.09-37.39-3.32-5.34-6.64-13.66-10.8-16.22s-16.37-.8-20.55,1.85c-17.84,11.31-27.39,31.72-25.25,51.7,1.64,15.37,13.77,19.11,25.99,19.19,15.13.11,25.65-4.14,33.69-19.14ZM681.44,484.53c12.18-4.09,20.06-8.78,29.16-17.01-11.86,2.68-21.58,8.64-29.16,17.01ZM168.31,577.36c11.16-3.64,21.02-7.62,24.41-13.07,3.16-5.07,3.84-18.61,4.92-24.26,7.02-5.83,14.95-10.47,18.26-15.75,3.52-5.63,2.72-20.17-.95-25.19-2.63-3.6-15.42.01-17.82,1.52-1.56-5.51-4.22-14.32-6.16-17.8-9.44.25-24.54,9.69-25.08,17.24-1.1,15.61-1.47,21.01-15.36,28.56-9.01,4.9-8.54,25.23-1.61,33.47l16.39-5.72,3,21ZM223.54,664.94l54.95-31.62c4.8-2.76,9.39-15.5,9.33-21.12l-.68-62.12c-.03-2.99-4.07-9.14-6.66-9.7-1.94-.41-7.81.54-9.52,1.55l-49,28.69c-7.88,4.61-14.32,13.82-14.28,22.91l.29,61.81c.01,3.17,2.96,8.67,5.13,10.07,1.63,1.05,8.64.54,10.42-.48ZM272.96,678.78c5.56-2.77,11.76-9.69,14.17-14.06,1.93-3.5-.24-12.34-4.08-16.53l-29.37,16.51c-8.31,4.67-13.74,18.36-3.98,25.66l23.26-11.57ZM283.45,688.23l-35.26,21.14,2.75,4.58,35.26-21.14-2.75-4.58ZM286.56,697.56l-32.05,19.22,2.75,4.58,32.05-19.22-2.75-4.58ZM286.09,713.85l-5.14-1.94-20.1,14.31,4.49,1.49,20.76-13.85Z"/>
  <path d="M110.78,778.44c-61.29-62.6-11.36-158.78-32.76-222.88-5.08-15.22-8.15-28.82-6.73-44.09l14.97,13.5c15.34,13.84,19.7-49.69,65.44-77.91l52.9-32.64c2.66-1.64,5.56-9.16,3.97-11.18l-7.91-10L665.85,122.74c14.3,6.91,25.56,6.68,38.29-.4l53.97-30c12-6.67,29.6-5.87,38.53,5.17-11.07,1.49-25.39,2.36-36.88,9.04l-320.44,186.49-253.47,148.04c-42.54,24.84-76.36,63.47-76.6,116.03l-.87,189.18,2.4,32.14ZM634.83,164.32c-1.2-4.6-12.71-7.79-17.47-7.54-3.9.21-11.77,5.05-11.52,10.98.31,7.61,11.5,9.74,17.39,9.2,5.24-.48,13.39-5.77,11.6-12.65ZM580.93,195.09c-4.16-8.6-20.48-9.5-24.01,2.48,2.39,2.01,9.64,5.9,13.63,7.22,3.28,1.09,12.19-5.96,10.38-9.69ZM519.76,234.86c-5.57-7.37-10.12-8.65-16.48-7.5,4.13,5.05,11.73,8.8,16.48,7.5ZM506.4,245.57l-.82-6.42-17.11-6.33-.67,5.24,18.59,7.51ZM494.59,251.07c-4.67-5.93-11.02-8.9-19.36-8.33,4.69,5.91,11.01,8.87,19.36,8.33ZM463.84,246.15l-2.75,5.89,17.99,8.39,2.75-5.89-17.99-8.39ZM466.5,266.78c-2.36-9.92-10.51-14.51-18.07-8.91l18.07,8.91ZM437.37,261.81l-2.36,6.33,17.39,6.49,2.36-6.33-17.39-6.49ZM424.21,268.43l-2.73,5.74,17.13,8.13,2.73-5.74-17.13-8.13ZM426.35,287.76c-5.57-7.37-10.12-8.65-16.48-7.5,4.13,5.05,11.73,8.8,16.48,7.5ZM396.18,285.79l-3.11,6.22,15.57,7.78,3.11-6.22-15.57-7.78ZM355.68,326c1.31-1.97-3.72-7.9-6.07-7.03l-9.3,3.45c-3.73,1.38-11.28,8.84-10.58,12.21,6.66,6.91,21.38-1.45,25.95-8.63ZM306.16,353.7c0-3.55-2.88-6.43-6.43-6.43s-6.43,2.88-6.43,6.43,2.88,6.43,6.43,6.43,6.43-2.88,6.43-6.43ZM282.64,368.83c-1.63-3.16-8.24-7.02-10.86-6.9s-8.58,5.49-8.03,8.06c.67,3.12,7.76,6.86,10.91,7.37,2.51.4,9.17-6.21,7.98-8.53Z"/>
  <path d="M252.66,778.83c-37.93,25.76-97.75,46.81-124.2,12.24-7.6-9.93-11.86-28.06-11.84-41.41l.13-130.96c24.3,5.76,35.19-1.29,55.96-12.44l.61,62.49c.16,16.5,6.39,29.88,17.23,41.8l62.12,68.28Z"/>
  <path d="M727.3,501.41l55.6-135.83c4.77-11.65,9.83-26.76,10.06-38.74l1.39-71.98c.16-8.17,15.43-17.1,24.48-20.02l.04,97.78c.03,66.34-29.69,138.17-91.57,168.79Z"/>
  <path d="M90.97,519.71c-23.32-22.4-17.43-53.42-.55-73.93,14.3-17.37,30.31-26.55,54.14-24.19l30.67-15.8c9.83-5.06,18.04-6.08,27.16.39l-45.74,27.67c-32.23,19.5-52.32,47.84-65.68,85.86Z"/>
  <path d="M692.67,120.8c-4.94,2.74-14.3,1.05-19.84-3.13,15.95-8.09,20.12-18.75,23.35-31.7,19.43-15.1,49.71-13.47,67.75-4.72l-71.26,39.54Z"/>
  <path d="M803.02,171.91c-8.1-5.36.1-20.98,9.52-19.81.84,1.59,2.05,9.5,2.17,12.77.13,3.56-8.65,9.05-11.69,7.04Z"/>
  <path class="b" d="M669.17,520.68l-369.65,215.99-1.06-331.13,369.46-216.31,1.25,331.45ZM662.1,515.63l.34-285.58-2.76-27.29-353.62,207.4.21,313.71,355.83-208.23Z"/>
  <path class="b" d="M223.54,664.94c-1.78,1.02-8.8,1.53-10.42.48-2.17-1.4-5.12-6.9-5.13-10.07l-.29-61.81c-.04-9.09,6.4-18.3,14.28-22.91l49-28.69c1.71-1,7.58-1.96,9.52-1.55,2.59.55,6.62,6.71,6.66,9.7l.68,62.12c.06,5.62-4.53,18.36-9.33,21.12l-54.95,31.62ZM280.89,624.57l-.79-79.47-63.51,36.42c-3.15,27.75-4.54,52.53.98,79.79l63.32-36.74Z"/>
  <path class="b" d="M289.69,512.08c-8.04,15-18.56,19.25-33.69,19.14-12.22-.09-24.35-3.83-25.99-19.19-2.14-19.98,7.41-40.39,25.25-51.7,4.18-2.65,16.4-4.41,20.55-1.85s7.47,10.88,10.8,16.22c7.77,12.48,10.77,23.07,3.09,37.39ZM247.62,524.51c-7.2-26.81,5.1-49.31,29.79-54.47-3.09-4.96-10.92-7.83-15.61-6.01-19.74,7.66-29.7,32.01-24.81,50.45.89,3.35,8.66,9.62,10.63,10.03ZM272.09,479.14c-8.56.68-18.3,13.14-17.39,24.26l17.39-24.26ZM288.86,492.53c-.08-3.06-6.85-8.34-9.39-7.37-13.31,5.1-25.33,27.79-13.9,38.86,12.57.8,23.69-15.93,23.3-31.49Z"/>
  <path class="b" d="M693.43,391.96c-3.01,1.65-12.26-3.07-12.27-6.38l-.18-69.02c-.02-8.13,5.72-17.22,12.95-21.14l50.19-27.24c2.34-1.27,10.05-1.39,11.69.54,1.64,1.92,3.47,7.72,3.46,10.77l-.33,59.65c-.05,8.46-5.51,19.91-12.47,23.72l-53.05,29.1ZM752.7,352.54l.15-81.38-65.97,35.98.82,81.01,65-35.6Z"/>
  <path class="b" d="M738.56,255.5c-6.37,7.74-16.41,11.8-26.18,9.44-11.82,3.71-24.54-1.2-27.27-14.03-4.58-21.49,6.66-44.44,24.1-54.85,4.06-2.43,14.38-3.77,17.93-1.75,4.07,2.31,8.82,9.47,12.46,14.35,11.18,15.01,12.77,30.08-1.04,46.85ZM701.15,260.23c-2.9-15.49-3.38-26.2,4.15-38.38,4.97-8.04,14.66-13.1,26.19-16.1-5.95-7.85-16.44-7.79-23.79-2.06-12.4,9.65-20.01,24.1-19.35,40.82.25,6.24,8.33,14.46,12.8,15.72ZM720.16,217.18c-11.83,4.11-16.38,22.51-13.49,34.19l13.49-34.19ZM742.51,225.85c-.92-3.28-7.52-7.57-9.63-6.13l-7.74,5.31c-8.44,5.79-17.01,28.46-2.82,32.58,11.67,3.38,23.85-18.76,20.18-31.76Z"/>
  <path class="b" d="M168.31,577.36l-3-21-16.39,5.72c-6.92-8.24-7.39-28.57,1.61-33.47,13.89-7.56,14.26-12.95,15.36-28.56.53-7.55,15.64-16.99,25.08-17.24,1.94,3.48,4.6,12.28,6.16,17.8,2.4-1.51,15.18-5.13,17.82-1.52,3.66,5.02,4.47,19.55.95,25.19-3.31,5.28-11.24,9.92-18.26,15.75-1.08,5.66-1.76,19.2-4.92,24.26-3.4,5.45-13.26,9.43-24.41,13.07ZM173.97,569.9c6.8-1.53,18.19-9.36,17.92-15.16-.3-6.27-1.93-17.13,1.35-19.24l14.09-9.06c4.94-3.79,5.08-19.11,3.04-23.99l-18.54,8.12-2.77-19.57-14.49,6.47c-6.65,2.97,2.21,23.49-9.24,29.29-4.52,2.29-13.74,6.27-13.7,10.7l.17,18.89,19.5-9.9,2.69,23.45Z"/>
  <path class="b" d="M272.96,678.78l-23.26,11.57c-9.75-7.29-4.32-20.98,3.98-25.66l29.37-16.51c3.85,4.19,6.01,13.03,4.08,16.53-2.41,4.37-8.61,11.3-14.17,14.06ZM261.25,679.44c10.15-5.61,23.31-9.15,20.3-25.06l-30.49,18.94c-1.63,1.01-.17,11.85,1.51,10.92l8.68-4.8Z"/>
  <path class="b" d="M684.7,437.41c-6.17-5.65-4.13-21.47,1.61-24.46l29.98-15.6c7.26,4.11,6.77,16.86.85,24.13l-32.44,15.93ZM689.25,430.79l15.96-8.76c7.68-4.21,14.66-10.09,11.38-19.68l-29.02,16.26c-1.5.84-3.43,6.99-3.75,8.71-.21,1.14,4.36,3.38,5.43,3.47Z"/>
  <path class="b" d="M796.13,143.21c-1.12,10.92-9.98,21.96-18.05,20.42-12.47-2.37-10.69-19.36-3.09-26.6,3.65-3.49,9.32-7.18,12.83-6.83,3.51.34,8.72,9,8.31,13.01ZM788.45,137.14c-2.83-3.1-11.96,3.55-13.16,8.17-.98,3.8,1.16,11.99,4.62,12.85,7.71-1.27,13.13-15.75,8.53-21.03Z"/>
  <path class="b" d="M771.99,177.96c5.77,5.93-2.16,24.56-11.52,27.54-3.57,1.13-12.68-2.69-13.19-6.35-1.42-10.14,5.49-22.72,10.84-25.27,3.27-1.56,11.34,1.49,13.87,4.08ZM764.77,180.07c-3.01-2.47-12.11,4.25-12.1,8.14,0,3.29,1.78,10.84,3.58,12.52,7.58.28,18.15-12.75,8.53-20.66Z"/>
  <path class="b" d="M793.29,190.13c2.87.5,6.49,13.4-2.03,27.11-2.01,3.24-12.97,4.84-16.15,2-7.39-6.62-2.99-27.15,8.92-29.35,2.08-.39,7.33-.09,9.25.24ZM781.38,217.79l10.97-12.82c2.17-2.53-1.13-11.58-3.54-12.42-5.09,3.59-8.93,6.41-10.98,8.83s-.06,10.64,3.56,16.41Z"/>
  <path class="b" d="M236.57,454.42c-4.3,5.62-15.64,12.5-21.72,13.03-7.37-9.87,1.06-18.82,9.57-22.32,3.38-1.39,7.99-2.32,10.52-1.87,2.52.45,3.24,9.06,1.63,11.17ZM231.15,447.61l-15.11,9.06,3.02,5.03,15.11-9.06-3.02-5.03Z"/>
  <path class="b" d="M751.59,152.81c-5.65,14.38-18.25,18.85-28.52,11.48,3.54-7.69,11.79-14.51,21.14-20.2l7.38,8.72ZM744.54,150.33l-15.11,9.06,3.02,5.03,15.11-9.06-3.02-5.03Z"/>
  <path class="b" d="M721.06,438.69c-9.65,10.15-22.21,17.21-37.55,21.12,11.09-9.08,21.85-15.8,37.55-21.12Z"/>
  <rect class="b" x="246.64" y="698.42" width="41.11" height="5.34" transform="translate(-322.75 237.53) rotate(-30.98)"/>
  <rect class="b" x="253.22" y="706.79" width="37.37" height="5.34" transform="translate(-326.38 241.15) rotate(-30.98)"/>
  <path class="b" d="M715.27,454.27c-10.26,8.71-19.7,14.06-33.44,18.31,9.18-8.64,20.02-14.99,33.44-18.31Z"/>
  <path class="b" d="M681.44,484.53c7.58-8.36,17.3-14.32,29.16-17.01-9.1,8.22-16.98,12.92-29.16,17.01Z"/>
  <polygon class="b" points="286.09 713.85 265.34 727.7 260.85 726.21 280.95 711.9 286.09 713.85"/>
  <path class="b" d="M634.83,164.32c1.79,6.87-6.36,12.17-11.6,12.65-5.89.53-17.08-1.59-17.39-9.2-.25-5.93,7.62-10.77,11.52-10.98,4.75-.26,16.27,2.93,17.47,7.54ZM627.94,165.03c-2.41-3.5-15.92-2.24-17.85.31,2.72,8.83,17.88,8.88,17.85-.31Z"/>
  <path class="b" d="M355.68,326c-4.57,7.19-19.29,15.55-25.95,8.63-.69-3.37,6.86-10.83,10.58-12.21l9.3-3.45c2.35-.87,7.39,5.06,6.07,7.03Z"/>
  <path class="b" d="M580.93,195.09c1.8,3.73-7.1,10.78-10.38,9.69-3.98-1.32-11.23-5.21-13.63-7.22,3.53-11.98,19.85-11.08,24.01-2.48ZM574.76,198.23l-4.61-5.98c-1.25-1.62-6.64,4.14-7.61,5.75l12.21.22Z"/>
  <path class="b" d="M282.64,368.83c1.19,2.32-5.46,8.93-7.98,8.53-3.15-.5-10.24-4.25-10.91-7.37-.55-2.57,5.4-7.94,8.03-8.06s9.24,3.74,10.86,6.9Z"/>
  <circle class="b" cx="299.73" cy="353.7" r="6.43"/>
  <rect class="b" x="468.21" y="243.36" width="6.5" height="19.85" transform="translate(42.56 573.4) rotate(-64.98)"/>
  <polygon class="b" points="506.4 245.57 487.8 238.06 488.47 232.82 505.58 239.15 506.4 245.57"/>
  <rect class="b" x="441.5" y="258.94" width="6.75" height="18.56" transform="translate(38 591.18) rotate(-69.53)"/>
  <rect class="b" x="428.24" y="265.89" width="6.35" height="18.97" transform="translate(-2.29 547.11) rotate(-64.62)"/>
  <path class="b" d="M494.59,251.07c-8.34.53-14.67-2.43-19.36-8.33,8.34-.56,14.69,2.41,19.36,8.33Z"/>
  <rect class="b" x="398.92" y="284.09" width="6.96" height="17.4" transform="translate(-39.39 521.87) rotate(-63.45)"/>
  <path class="b" d="M466.5,266.78l-18.07-8.91c7.56-5.6,15.71-1,18.07,8.91Z"/>
  <path class="b" d="M519.76,234.86c-4.75,1.3-12.35-2.45-16.48-7.5,6.37-1.15,10.91.13,16.48,7.5Z"/>
  <path class="b" d="M426.35,287.76c-4.75,1.3-12.35-2.45-16.48-7.5,6.37-1.15,10.91.13,16.48,7.5Z"/>
  <path d="M662.1,515.63l-355.83,208.23-.21-313.71,353.62-207.4,2.76,27.29-.34,285.58ZM325.62,692.27l315.95-184.73-.42-273.52-234.58,137.98-81.28,47.17.34,273.09Z"/>
  <path d="M280.89,624.57l-63.32,36.74c-5.53-27.26-4.14-52.04-.98-79.79l63.51-36.42.79,79.47Z"/>
  <path d="M247.62,524.51c-1.97-.41-9.74-6.68-10.63-10.03-4.9-18.43,5.06-42.78,24.81-50.45,4.69-1.82,12.51,1.05,15.61,6.01-24.68,5.16-36.98,27.66-29.79,54.47Z"/>
  <path d="M288.86,492.53c.4,15.56-10.73,32.3-23.3,31.49-11.43-11.07.59-33.76,13.9-38.86,2.54-.97,9.32,4.31,9.39,7.37Z"/>
  <path d="M272.09,479.14l-17.39,24.26c-.91-11.12,8.83-23.58,17.39-24.26Z"/>
  <polygon points="752.7 352.54 687.7 388.14 686.88 307.14 752.85 271.16 752.7 352.54"/>
  <path d="M701.15,260.23c-4.46-1.27-12.55-9.49-12.8-15.72-.66-16.72,6.95-31.17,19.35-40.82,7.35-5.72,17.84-5.79,23.79,2.06-11.52,2.99-21.22,8.06-26.19,16.1-7.53,12.18-7.05,22.89-4.15,38.38Z"/>
  <path d="M742.51,225.85c3.67,13-8.51,35.15-20.18,31.76-14.19-4.11-5.63-26.78,2.82-32.58l7.74-5.31c2.1-1.44,8.7,2.85,9.63,6.13Z"/>
  <path d="M720.16,217.18l-13.49,34.19c-2.88-11.68,1.66-30.08,13.49-34.19Z"/>
  <path d="M173.97,569.9l-2.69-23.45-19.5,9.9-.17-18.89c-.04-4.43,9.18-8.42,13.7-10.7,11.46-5.79,2.59-26.32,9.24-29.29l14.49-6.47,2.77,19.57,18.54-8.12c2.05,4.88,1.9,20.2-3.04,23.99l-14.09,9.06c-3.28,2.11-1.65,12.97-1.35,19.24.28,5.8-11.11,13.62-17.92,15.16Z"/>
  <path d="M261.25,679.44l-8.68,4.8c-1.68.93-3.14-9.91-1.51-10.92l30.49-18.94c3.02,15.91-10.14,19.45-20.3,25.06Z"/>
  <path d="M689.25,430.79c-1.06-.09-5.64-2.33-5.43-3.47.32-1.72,2.24-7.87,3.75-8.71l29.02-16.26c3.28,9.59-3.71,15.47-11.38,19.68l-15.96,8.76Z"/>
  <path d="M788.45,137.14c4.6,5.27-.82,19.76-8.53,21.03-3.46-.86-5.6-9.06-4.62-12.85,1.2-4.63,10.33-11.27,13.16-8.17Z"/>
  <path d="M764.77,180.07c9.63,7.9-.95,20.93-8.53,20.66-1.8-1.68-3.57-9.23-3.58-12.52,0-3.89,9.09-10.61,12.1-8.14Z"/>
  <path d="M781.38,217.79c-3.61-5.77-5.6-13.99-3.56-16.41s5.89-5.24,10.98-8.83c2.42.84,5.71,9.88,3.54,12.42l-10.97,12.82Z"/>
  <rect x="216.3" y="451.72" width="17.62" height="5.87" transform="translate(-201.91 180.72) rotate(-30.98)"/>
  <rect x="729.68" y="154.45" width="17.62" height="5.87" transform="translate(24.33 402.56) rotate(-30.98)"/>
  <path d="M627.94,165.03c.03,9.19-15.13,9.14-17.85.31,1.93-2.54,15.44-3.81,17.85-.31Z"/>
  <path d="M574.76,198.23l-12.21-.22c.97-1.61,6.35-7.38,7.61-5.75l4.61,5.98Z"/>
  <polygon class="b" points="325.62 692.27 325.29 419.18 406.57 372.01 641.15 234.02 641.57 507.54 325.62 692.27"/>
</svg>