<?xml version="1.0" encoding="UTF-8"?>
<svg id="a" data-name="Camada 1" xmlns="http://www.w3.org/2000/svg" viewBox="0 0 900 900">
  <defs>
    <style>
      .b {
        fill: #fff;
      }
    </style>
  </defs>
  <path d="M413.17,681.02l-36.97,6.11c2.09-10.39,11.51-23.05,22.36-25.83,4.8-1.23,11.77,9.91,14.61,19.72Z"/>
  <path d="M367.13,599.61c-1.83,15.48-11.22,21.52-23.25,23.22l-5.67,13.41c-1.46,3.45-10,4.18-16.67,5l-11.7,20.38-11.64.09c-5.78.05-5.62,27.35-25.95,22.13l-10.24,19.07c-13.09.03-20.71,7.23-23.39,19.52-13.46,6.06-24.31,17.14-34.65,30.49-4.38.9-15.87,1.65-18.06,5.44l-9.44,16.35c-1.16,2.01-8.28.57-10.56,1.03-7.32,1.5-7.7,19.16-12.73,19.9l-15.11,2.23-13.33,22.98c-10.96-15.57-27.04-36.43-22.61-56.92,3.78-17.5,22.7-31.02,35.28-44.29l262.51-276.77,105.15-109.62,97.14-101.25,22.7,70.31,58.32,1.07-10.4,39.89c-6.93,1.25-18.07,2.26-19.87,6.41l-6.55,15.09c-1.58,3.64-12.78-.1-15.85.49l-7.09,16.14c-1.75,3.98-11.05,5.4-17.82,6.87l-10.72,20-24.03-10.53-104.05,61.66-.99,56.53c-.06,3.56-1.28,13.08-4.25,13.86l-17.56,4.58-8.99,20-14.47.03c-3.2,0-5.88,8.55-7.09,13.43-1.93,7.8-8.9,10.76-20.11,10.83l-10.71,20.49-15.58.46ZM147.26,750.49c.58-4.47-14.32-3.83-15,.2l-2.81,16.49c7.85.33,16.35-5.38,17.81-16.69Z"/>
  <path d="M455.16,562.28c-26.81-22,18.63-11.3,19.64-36.51l2.12-52.99,163.08,94.09-1.98,102.48-182.86-107.06Z"/>
  <path d="M817.86,176.21c5.75,6.02-.22,21.22-7.97,28.91l-89.01,88.35-88.26,1.02-19.31-58.8,161.21-159.53-4.21,46.92,23.14,32.81c7.36,10.44,8.86,15.47,24.41,20.32ZM767.62,193.91c-28.3-30.9-28.28-60.21-46.6-42.24l-28.62,28.09c-10.94,10.73-8.3,27.38,2.01,37.8l37.47,37.87c28.85-13.44,53.27-42.38,35.75-61.51Z"/>
  <path d="M674.18,541.45l-51.04-40.03c10.58,19.59,23.25,28.28,41.58,43.54l-22.21,12.49-162.37-94.56,91.95-54.71,163.7,95.17-15.81,9.51-69.74-30.26c18.82,15.97,37.11,23.39,61.13,35.11l-37.19,23.74ZM582.71,494.65c-5.95-15.05-19.01-28.66-37.33-30.78l37.33,30.78Z"/>
  <path d="M321.15,369.94l43.91-25.95,64.28,32.34c-16.46-16.1-34.89-23.47-57.61-35.36,4.43-4.24,19.09-13.19,25-10.65l33.14,15.61-28.01-22.67c3.08-2.86,15.34-5.29,19.92-2.58l51.59,30.48-49.68,51.79-38.67-15.93,31.49,22.47-10.58,8.57-84.78-48.1Z"/>
  <polygon points="337.54 493.09 316.57 480.28 317.04 377.99 401.87 426.51 337.54 493.09"/>
  <rect x="564.1" y="133.79" width="227.76" height="21.23" transform="translate(95.89 520.81) rotate(-44.91)"/>
  <path d="M691.89,605.62c14.82-21.21,22.66-47.33,25.97-75.76,4.85-5.69,15.43-12.63,23.49-15.82.18,41.31-15.06,76.01-32.74,108.71l3.93,2.33,27.16-51.37.6,42.63-30.45,15.32-3.69-7.51c-3.19,4.64-10.48,16.75-16.42,20.35l-39.48,23.98c-6.3-16.2,1.24-24.85,13.41-35.38l26.14-22.62-1.88-3.93-37.91,30.4-.72-28.85c21.09-15.5,31.9-34.38,35.13-60.6l25.45-15.67c-1.62,27.59-8.97,47.1-20,70.57l1.99,3.22Z"/>
  <path d="M518.78,704.31c-8.79,3.29,8.92-21.68,6.6-24.04-2.2-2.23-8.25-5.94-11.48-6.73l-10.57-2.57c-2.04-.5.43-9.23,2.5-9.63,7.25-1.4,22.39,2.3,26.89,8.15,5.76,7.48,4.94,27.75-3.16,30.78l-10.78,4.04Z"/>
  <path d="M474.41,631.76c-2.52-3.35-9.72-9.73-13.92-10.08-4.89-.4-13.39,4.9-17.64,8.17l-8.31,6.39c-1.89,1.45-3.03-10.86-1.64-12.78,4.54-6.31,18.82-13.34,27.51-13.19,10.75.19,23.5,11.33,24.42,19.68.24,2.2-3.31,11.22-4.47,9.69l-5.94-7.89Z"/>
  <path d="M650.36,598.39l-.39-33.73,25.15-13.18c.08,20.5-6.83,34.78-24.76,46.91Z"/>
  <path d="M470.05,718.74c-8.94,6.95-22.44,6.31-33.41-.28l17.74-15.09c3.81-3.24,14.51,9.28,15.68,15.37Z"/>
  <path class="b" d="M147.26,750.49c-1.46,11.31-9.96,17.02-17.81,16.69l2.81-16.49c.69-4.03,15.58-4.67,15-.2Z"/>
  <path class="b" d="M767.62,193.91c17.52,19.13-6.9,48.07-35.75,61.51l-37.47-37.87c-10.3-10.41-12.94-27.06-2.01-37.8l28.62-28.09c18.31-17.97,18.3,11.34,46.6,42.24ZM739.5,176.34l-8.11-21.94c-3.19,6.42-3.91,14.36-1.08,16.14l9.19,5.8ZM747.34,234.96c6.75-4.73,22.33-22.26,17.09-28.7l-21.08-25.91c14.96,34.06-25.51,44.42-21.34,53.78,1.5,3.37,8.61,12.56,11.67,10.42l13.66-9.57Z"/>
  <path class="b" d="M582.71,494.65l-37.33-30.78c18.32,2.12,31.38,15.72,37.33,30.78Z"/>
  <path d="M747.34,234.96l-13.66,9.57c-3.06,2.14-10.17-7.04-11.67-10.42-4.18-9.36,36.3-19.71,21.34-53.78l21.08,25.91c5.24,6.45-10.34,23.97-17.09,28.7Z"/>
</svg>