<?xml version="1.0" encoding="UTF-8"?>
<svg id="a" data-name="Camada 1" xmlns="http://www.w3.org/2000/svg" viewBox="0 0 900 900">
  <defs>
    <style>
      .b {
        fill: #fff;
      }
    </style>
  </defs>
  <path d="M229.93,655.98c-17.83-9.67-34.78-18.79-49.27-32.02-31.11-28.39-38.12-88.04-29.9-130.29,14.52-74.65,51.7-142.53,107.89-193.27,59.47-53.7,141.67-78.78,199.42-19.33-41.88,1.01-73.73,10.76-105.86,32.32-78.35,52.56-130.55,139.36-142.31,233.42-4.86,38.86,1.78,72.09,20.03,109.18Z"/>
  <path d="M437.26,647.37c-43.19-19.34-64.67-44.88-73.52-88.12-26.32-128.55,78.93-300.7,203.92-339.24,47.68-14.71,86.27-7.16,127.26,22.35-96.14-7.19-176.53,61.78-225.07,138.07-49.8,78.28-81.96,188.87-32.59,266.95Z"/>
  <path d="M677.82,600.53c-45.46,50.07-119.79,96.16-185.73,76.28-62.01-18.7-79.35-94.6-66.65-160.77,15.44-80.43,56.46-154.33,117.97-207.94,32.88-28.66,69.83-49.28,112.01-56,48.1-7.67,90.25,16.24,107.17,61.52,34.52,92.38-17.79,213.15-84.76,286.91ZM558.16,650.73c126.68-27.76,221.98-209.25,182.54-315.37-14.39-38.71-49.99-60.16-91.56-55.02-116.11,14.35-224.51,179.28-198.78,300.72,10.7,50.52,56.09,81.01,107.8,69.68Z"/>
  <path d="M252.45,620.73c28.86,52.7,92.25,50.78,142.73,16.44,5.86.8,13.86,4.88,18.32,8.7-27.55,24.22-58.84,37.54-93.82,40.95-41.41,4.04-77.01-18.54-91.94-57.34-10.7-27.79-12.78-57.74-8.16-88.76,13.1-88.17,62.1-168.43,135.17-218.68,27.5-18.91,56.54-30.37,90.09-30.49l-18.83,24.38c-29.57,5.48-56.9,16.42-81.27,36.01-56.82,45.67-95.97,110.16-105.75,182.76-4.12,30.58-.84,59.88,13.47,86.01Z"/>
  <path d="M327.62,653.78c-28.01.56-50.62-8.98-65.76-33.34,36.21-6.42,67.55-23.86,94.22-48.57,7.64,23.77,19.25,41.83,35.47,58.92-19.83,11.51-40.23,19.37-63.92,22.99Z"/>
  <path class="b" d="M558.16,650.73c-51.71,11.33-97.09-19.16-107.8-69.68-25.73-121.43,82.67-286.37,198.78-300.72,41.57-5.14,77.17,16.31,91.56,55.02,39.44,106.12-55.86,287.61-182.54,315.37ZM666.71,570.77c43.33-50.95,70.82-111.17,74.08-178.81,2.24-46.46-19.56-94.97-64.91-101.65,11.58,29.85,15.44,56.58,11.03,86.44-15.78,106.83-96.6,224.51-209.36,239.51,11.86,16.94,29.51,26.72,50.7,27.8,53.68,2.75,103.88-32.64,138.45-73.29ZM459.16,574.41c-.32,5.28,3.22,16.97,5.06,19.51,50.78-61.9,86.02-151.97,66.68-231.54l-17.91,22.89c13.2,64.84-14.29,134.34-53.83,189.15ZM504.76,394.01c-33.05,50.87-53.53,106.3-48.22,167.93,34.44-48.79,58.53-111.37,48.22-167.93Z"/>
  <path d="M666.71,570.77c-34.57,40.65-84.77,76.04-138.45,73.29-21.19-1.09-38.84-10.86-50.7-27.8,112.76-15.01,193.58-132.69,209.36-239.51,4.41-29.85.55-56.59-11.03-86.44,45.35,6.69,67.15,55.19,64.91,101.65-3.26,67.64-30.75,127.86-74.08,178.81Z"/>
  <path d="M459.16,574.41c39.54-54.8,67.03-124.31,53.83-189.15l17.91-22.89c19.34,79.58-15.89,169.64-66.68,231.54-1.84-2.53-5.37-14.23-5.06-19.51Z"/>
  <path d="M504.76,394.01c10.31,56.56-13.78,119.14-48.22,167.93-5.31-61.63,15.17-117.06,48.22-167.93Z"/>
</svg>