<?xml version="1.0" encoding="UTF-8"?>
<svg id="a" data-name="Camada 1" xmlns="http://www.w3.org/2000/svg" viewBox="0 0 900 900">
  <defs>
    <style>
      .b {
        fill: #fff;
      }
    </style>
  </defs>
  <polygon points="566.28 394.15 530.86 401.05 530.94 373.49 566.28 394.15"/>
  <path d="M419.71,354.68c-7.02,11.25-19.4,5.14-25.66-1.86,6-3.61,20.08-3.33,25.66,1.86Z"/>
  <path d="M351.84,812.14c-6.08-30.35-1.3-60.69,9.57-88.14l29.23-73.81c7.64-19.28,7.99-39.83.08-59.31-24.7-60.76,13.41-109.09,67.57-141.95l1.6,75.74,71.59-36.36-.24-77.42c13.52-4.25,28.32-6.98,42.31-5.68,39.72,3.69,34.77,50.88,22.59,92.53-18.28,62.52,40.74,77.49,44.34,143.17,5.13,93.69-77.62,157.82-158.23,194.63-23.99,10.95-49.35,18.56-75.45,19.08s-49.49-15.11-54.97-42.48ZM542.71,551.01c-.74-9.43-7.02-20.11-12.74-24.05-7.12-4.91-21.72-7.1-30.02-3.58-32.79,13.89-53.01,47.89-50.81,83.36.77,12.38,9.35,24.14,18.13,28.25,30.4,14.23,79.61-30.7,75.44-83.98ZM442.21,762.91l109.37-57.73c3.02-13.21,3.44-25.16-.68-40.37l-110.17,57.45c-1.6,13.3-2.03,23.32,1.48,40.65Z"/>
  <path d="M347.16,831.44l-69.26-40.58c-32.75-19.19-31.75-78.22-16.45-116.87l33.57-84.83c7.54-19.05,7.46-38.43-.35-57.43-23.65-57.48,18.62-113.21,74.02-140.43l83.72,49.24-51.37,42.64c-24.64,30.97-35.34,68.59-20.57,106.02,8.59,21.77,7.46,43.56-1.28,65.64l-29.08,73.51c-13.16,33.27-13.75,68.09-2.95,103.09Z"/>
  <polygon points="523.06 481.6 468.4 510.78 468.36 199.84 518.83 172.71 523.06 481.6"/>
  <path d="M521.78,160.53l-54,28.46c-7.12-1.16-12.06-12.82-12.42-20.45l-4.11-87.83,77.23-43.28,2.01,96.55c.14,6.47-5.81,19.41-8.72,26.55Z"/>
  <path d="M376.5,385.28c-2.36-6.73.46-18.51,4.75-24.17l21.1,7.08c4.33,1.45,14.09,1.74,17.85-.29,4.29-2.32,9.72-11.53,9.79-17.06l2.16-170.89,27.04,16.91-.26,236.88-82.43-48.44Z"/>
  <path d="M446.42,178.33l-30.78-20.19-6.97-94.77c13.7,5.51,23.34,11.45,33.17,19.33l4.59,95.64Z"/>
  <polygon points="446.84 73.04 414.74 52.7 486.54 11.9 519.99 31.13 446.84 73.04"/>
  <path class="b" d="M542.71,551.01c4.17,53.28-45.04,98.22-75.44,83.98-8.78-4.11-17.36-15.87-18.13-28.25-2.2-35.47,18.02-69.47,50.81-83.36,8.3-3.52,22.9-1.32,30.02,3.58,5.72,3.94,12,14.62,12.74,24.05ZM533.04,551.37c-1-7.66-6.91-16.36-12.19-18.57-5-2.09-17.85-1.53-22.59,1.03-41.45,22.38-50.93,78.7-27.87,91.65,21.31,11.97,69.04-25.3,62.65-74.11Z"/>
  <path class="b" d="M442.21,762.91c-3.51-17.33-3.07-27.34-1.48-40.65l110.17-57.45c4.12,15.2,3.69,27.16.68,40.37l-109.37,57.73ZM449.46,749.66l95.17-50.64.12-20.96-95.12,50.3-.18,21.29Z"/>
  <path class="b" d="M533.04,551.37c6.39,48.81-41.35,86.08-62.65,74.11-23.05-12.95-13.57-69.27,27.87-91.65,4.74-2.56,17.59-3.12,22.59-1.03,5.28,2.21,11.19,10.91,12.19,18.57Z"/>
  <polygon class="b" points="449.46 749.66 449.64 728.37 544.75 678.07 544.63 699.02 449.46 749.66"/>
</svg>