<?xml version="1.0" encoding="UTF-8"?>
<svg id="a" data-name="Camada 1" xmlns="http://www.w3.org/2000/svg" viewBox="0 0 900 900">
  <defs>
    <style>
      .b {
        fill: #fff;
      }
    </style>
  </defs>
  <path d="M582.26,693.2c-.03,33.56-52.24,69.09-93.57,80.6-77.69,21.63-183.92,14.73-240.55-44.42-11.29-11.79-18.37-25.68-18.36-42.26l.36-316.02c18.45,20.67,35.49,35.7,59.88,46.11,76.73,32.75,164.51,32.61,240.05-2.9,21.63-10.17,37.47-24.04,52.48-42.29l-.29,321.19Z"/>
  <path d="M568.36,371.97c-58.61,72.56-244.33,83.39-321.89.97-21.09-22.42-21.44-55.36-.15-78.42,16.87-18.27,39.1-30.76,63.34-39.23,59.23-20.69,122.86-22.37,182.97-4.09,27,8.21,52.61,20.46,71.68,39.82,22.92,23.26,24.72,55.36,4.05,80.96ZM543.34,364.84c18.42-20.77,15.94-50.84-5.19-69.07-62.1-53.59-198.11-54.62-262.81-.08-20.79,17.52-23.89,46.53-6.38,67.46,15.63,18.67,37.13,31.56,61.09,38.48,69.13,19.99,166.07,16.43,213.29-36.79Z"/>
  <path d="M591.67,598.73c63.4-27.98,85.44-103.36,72.43-169.73-4.14-21.09-23.7-36.98-44.24-28.24l-28.47,12.11.31-30.33c14.66-11.14,31.47-18.95,49.86-17.91,24.47,1.38,43.56,20.08,49.1,44.03,19.6,84.73-13.31,189.5-98.15,220.83l-.84-30.76Z"/>
  <path d="M654.2,429.54c12.65,58.5-6.18,131.4-61.84,158.26l-.56-34.88c34.92-39.65,44.67-93.38,35.38-145.44,12.99-.47,24.06,8.37,27.02,22.06Z"/>
  <path d="M414.12,199.08c-1.57,1.95-8.49,3.69-10.62,3.13-9.57-2.51,17.35-28.7-5.02-55.61-13.54-16.29-14.03-39.16-1.11-55.63,1.66-2.12,8.2-3.92,10.26-2.36,9.33,7.07-16.39,25.55,4.02,50.98,13.29,16.56,16.31,42.29,2.48,59.49Z"/>
  <path d="M362.72,204.37c-1.46,1.74-8.76,3.35-10.61,2.16-7.9-5.11,13.54-25.27-2.47-42.33-19.91-21.22-10.86-55.57,4.35-55.71,12.74-.11-10.39,25.97,6.2,44.89,12.3,14.03,15.42,35.56,2.52,51Z"/>
  <path d="M467.16,203.39c-1.65,2.47-9.62,4.4-11.32,2.53-8.01-8.79,14.15-24-4.23-44.19-12.4-13.62-13.39-36.25-2.69-49.29,1.72-2.09,7.84-3.87,9.81-2.64,8.42,5.28-11.89,25.3,4.47,43.18,12.51,13.68,15.06,33.79,3.97,50.4Z"/>
  <path d="M592.84,366.73l-.67-24.28c19.78-8.16,34.24,2.56,50.48,10.71l-49.81,13.57Z"/>
  <path class="b" d="M543.34,364.84c-47.21,53.22-144.16,56.78-213.29,36.79-23.95-6.93-45.46-19.81-61.09-38.48-17.52-20.93-14.41-49.94,6.38-67.46,64.7-54.54,200.71-53.51,262.81.08,21.13,18.24,23.61,48.31,5.19,69.07ZM539.56,352.39c10.06-16.76,6.07-36.26-8.98-49.17-58.81-50.45-188.92-50.51-247.54-.05-15.09,12.98-19.21,32.14-8.9,49.18,23.34-19.19,47.79-31.25,76.3-37.59,63.93-13.5,137.85-6.22,189.11,37.64ZM533.25,361.8c-61.98-57.44-193.24-57.27-252.57.96,65.6,53.84,193.28,52.55,252.57-.96Z"/>
  <path d="M533.25,361.8c-59.29,53.52-186.98,54.8-252.57.96,59.33-58.24,190.59-58.4,252.57-.96Z"/>
  <path class="b" d="M539.56,352.39c-51.26-43.85-125.19-51.13-189.11-37.64-28.51,6.34-52.96,18.4-76.3,37.59-10.32-17.04-6.19-36.2,8.9-49.18,58.63-50.45,188.74-50.39,247.54.05,15.05,12.91,19.03,32.41,8.98,49.17Z"/>
  <g>
    <path class="b" d="M453.47,666.97l.53,20.54c-40.45,19.96-85.21,10.16-108.79-28.61-8.03-13.21-13.65-27.52-18.54-42.49l11.98-27.59c16.85-49.13,53.73-83.65,106.12-90.35,4.68,17.35,5.95,35.55-1.85,51.76-5.44-13.09-15.05-19.31-28.01-18.09-10.39,1.32-19.79,6.18-27.87,13.96-26.31,25.31-33.16,66.75-17.17,99.63,15.46,31.78,53.55,42.37,83.6,21.25Z"/>
    <path class="b" d="M557.43,669.2c1.6,14.55-10.91,31.66-22.78,40.7-15.54,11.83-29.08-12.5-39.46-26.39l-21.49-28.76c-12.59-14.37-30.42-21.41-49.49-17.87l-.07,35.41c-8.32.5-16.03-.66-23.96-3.85l.17-125.06c6.81-5.13,15.58-7.37,23.8-4.77l.05,75.2c31.25-2.11,53.23,8.19,71.93,32.6l22.22,26.75c6.3,7.58,17.22,9.98,25.58,4.65l13.49-8.61Z"/>
    <path class="b" d="M498.13,577.29c7.57-16.35,7.53-34.01,3-50.51-6.04-21.99-24.12-36.08-47.41-35.65-19.03.35-36.81,7.01-53.93,15.39-1.08-18.28-13.59-24.62-12.97-28.81.18-1.22,3.47-2.08,4.68-1.78,12.24,3.03,23.65,2.53,35.89.19l27.92-5.34c28.85-3.36,55.5,10.81,69.29,36.25l13.18,30.38c-3.65,4.92-6.95,10.04-8.61,15.84-4.74,16.47-11.52,31.41-23.27,44.03l-18.46,3.12,10.7-23.11Z"/>
    <path class="b" d="M545.72,585.16c7.33,19.82,2.25,44.81-15.49,56.75-.31-5.77-.58-10.69-2.67-14.33-1.57-2.73-7.31-5.08-11.19-4.44l-29.85,4.91c-8.12-6.93-16.04-12.07-26.47-16.07l-.22-66.42c-.03-10.21-4.38-20.09-7.24-29.57,12.55,1.12,23.86,0,36.34-2.82,4.41,5.93,6.83,12.72,8.64,21.17l-13.97,1.88.31,70.41,44.75-8.53c7.4-1.41,12.41-6.68,17.05-12.93Z"/>
    <path class="b" d="M495.83,719.87c-13.57,6.78-29.71,9.65-44.06,2.5,5.35-8.68,7.53-18.06,8.06-27.81l.22-44.59c9.87,7.91,17.77,16.88,23.39,26.99l1.24,25.65c2.96,6.39,5.63,10.75,11.14,17.26Z"/>
    <path class="b" d="M557.33,534.49c-2.63-7.79-10.01-9.97-17.53-7.95l-9.8-20.93,26.44-6.14c7.94-1.84,11.83-8.49,16.43-16.16,9.49,22.25,4.55,49.46-13.91,63.29-.31-4.01-.46-8.62-1.64-12.12Z"/>
    <path class="b" d="M437.23,733.47c-14.59,7.93-33.03,8.95-48.02,1.29,8.47-9.58,10.82-21.41,11.32-32.63l23.28.39c-.1,11.03,3.6,21.57,13.42,30.95Z"/>
  </g>
</svg>