<?xml version="1.0" encoding="UTF-8"?>
<svg id="a" data-name="Camada 1" xmlns="http://www.w3.org/2000/svg" viewBox="0 0 900 900">
  <defs>
    <style>
      .b {
        fill: #fff;
      }
    </style>
  </defs>
  <path d="M310.78,856.47c-6.52,3.79-14.31,4.22-17.96,2.61-4.62-2.03-10.48-10.06-10.49-16.63l-.91-531.33c-.04-24.91,9.43-50.33,31.89-63.27l313.43-180.54c4-2.3,13.03-3.19,16.34-1.52,3.86,1.95,9.64,9.41,9.65,15.19l.16,534.46c0,21.13-5.91,45.53-24.96,56.61l-317.15,184.4ZM611.37,592.28c5.72-5.03,9.52-11.09,9.51-17.49l-1.3-462.69-294.72,169.16c-8.74,5.02-11.18,16.63-10.15,26.7l.48,441.3c0,1.67,1.86,6.68,3.32,6.79l7.79.56,285.08-164.32ZM428.03,752.14l79.24-45.3c7.6-4.35,10.31-16.63,3.04-21.15l-78.66,44.94c-8.18,4.68-11.87,17.16-3.62,21.51Z"/>
  <path d="M271.06,847.53l-31.64-17.29c-5.99-3.27-12.1-14.88-12.1-22.48l.08-530.47c0-7.98,2.49-15.58,5.17-23.06l42.94,24.92c-2.56,10.46-4.57,18.47-4.56,28.94l.11,539.44Z"/>
  <path d="M326.06,227.83c-20.09,11.56-34.5,21.9-46.18,40.99l-42.81-24.46c5.28-12.76,13.64-23.24,26.64-30.69L569.74,38.25c5.58-3.2,17.42-6.08,22.07-3.08l32.5,20.96-298.26,171.69Z"/>
  <path class="b" d="M428.03,752.14c-8.25-4.35-4.56-16.83,3.62-21.51l78.66-44.94c7.27,4.53,4.56,16.8-3.04,21.15l-79.24,45.3Z"/>
  <path class="b" d="M611.37,592.28l-285.08,164.32-7.79-.56c-1.46-.1-3.32-5.12-3.32-6.79l-.48-441.3c-1.03-10.07,1.41-21.68,10.15-26.7l294.72-169.16,1.3,462.69c.02,6.4-3.78,12.46-9.51,17.49ZM566.84,289.79c-1.45-6.78-2.34-22.69,2.56-27.2,8.44-5.47,15.39-9.01,13.64-19.09l-16.98,7.3c0-8.24-.19-18.47,1.81-22.45,2.76-5.51,21.78-8.56,19.95-15.68l-2.08-8.07-32.6,19,.08,87.16,31.38-17.45c2.43-1.35,3.27-10.83,2.9-13.71l-20.67,10.19ZM545.62,315.52c2.05-1.16,2.26-13.78,1.58-13.47l-19.95,9.97-.35-73.16-10.97,5.16c-2.75,1.29-1.99,10.27-1.95,13.59l.94,75.32,30.7-17.41ZM505.63,267.81c-.12-2.48-3.09-7.92-5.25-8.87s-8.63-.51-10.74.6l-22.66,11.87.53,86.99c45.79-14.82,40.43-41.48,38.12-90.58ZM430.08,376.35l-.91-54.43,15.91,49.01,13.44-7.72-1.4-84.64c-3.05.44-11.13,5.86-11.14,9.17l-.12,42.71-12.62-38.38c-3.66-.05-15.3,6.99-15.27,13.29l.44,80.25c5.28-.6,11.73-6.06,11.68-9.27ZM409.01,391.08l-.63-85.38-12.99,8.45.44,84.7,13.18-7.77ZM366.06,379.64l10.91,31.26,12.03-9.68-14.53-43.05,14.23-41.33c-8.44,3.51-12.88,8.7-15.45,15.74l-10.69,29.28-2.12-29.99-12.16,7.79.72,85.05c20.66-2.78,6.99-22.84,17.06-45.08ZM352.24,492.85l225.96-128.64c9.53-4.68,13.12-15.27,6.33-24.34l-229.15,130.69c-8.98,4.26-13.03,16.21-3.14,22.28ZM518.12,445.46l67.44-37.9c2.2-5.77,2.36-14.18.05-20.8l-67.62,38.75c-2.21,5.31-2.27,15.1.13,19.95ZM352.08,588l233.24-132.88c3.82-3.87,3.02-16.77-.42-20.61l-228.4,130.63c-3.98,2.27-8.03,6.33-9.52,9.16-1.64,3.1,1.1,11.9,5.09,13.7ZM351.84,540.5l140.06-79.59c2.05-5.83,2.04-14.28-.02-20.53l-140.25,79.82c-6.66,3.79-6.26,16.56.21,20.29ZM434.9,588.31l149.28-84.74c4.11-5.98,4.79-13.41.9-21.4l-150.96,86.17c-6.06,3.46-5.63,20.05.78,19.98ZM515.88,589.73c2.09-6.19,2.03-13.75-.29-20.61l-165.8,95.04c-5.4,3.1-2.38,19.71,2.47,19.31l163.62-93.73ZM351.85,635.86l59.9-34.31-.93-19.99-56.05,32.21c-7.49,4.3-12.09,16.36-2.92,22.1Z"/>
  <path d="M352.08,588c-4-1.8-6.73-10.6-5.09-13.7,1.5-2.83,5.54-6.89,9.52-9.16l228.4-130.63c3.44,3.84,4.23,16.74.42,20.61l-233.24,132.88Z"/>
  <path d="M352.24,492.85c-9.89-6.07-5.85-18.03,3.14-22.28l229.15-130.69c6.79,9.07,3.2,19.65-6.33,24.34l-225.96,128.64Z"/>
  <path d="M515.88,589.73l-163.62,93.73c-4.85.4-7.87-16.21-2.47-19.31l165.8-95.04c2.32,6.86,2.38,14.42.29,20.61Z"/>
  <path d="M434.9,588.31c-6.41.08-6.84-16.52-.78-19.98l150.96-86.17c3.89,7.99,3.22,15.42-.9,21.4l-149.28,84.74Z"/>
  <path d="M351.84,540.5c-6.47-3.73-6.87-16.5-.21-20.29l140.25-79.82c2.06,6.25,2.07,14.7.02,20.53l-140.06,79.59Z"/>
  <path d="M505.63,267.81c2.31,49.1,7.68,75.76-38.12,90.58l-.53-86.99,22.66-11.87c2.11-1.11,8.59-1.55,10.74-.6s5.13,6.39,5.25,8.87ZM493.44,318.29l-.95-42.22c-.05-2.31-8.81-2.45-9.98-.46-.88,1.5-2.92,6.27-2.88,8.29l1.11,54.58c8.71-3.14,12.93-10.06,12.7-20.19Z"/>
  <path d="M430.08,376.35c.05,3.2-6.39,8.67-11.68,9.27l-.44-80.25c-.03-6.3,11.61-13.34,15.27-13.29l12.62,38.38.12-42.71c0-3.31,8.1-8.73,11.14-9.17l1.4,84.64-13.44,7.72-15.91-49.01.91,54.43Z"/>
  <path d="M366.06,379.64c-10.07,22.24,3.6,42.3-17.06,45.08l-.72-85.05,12.16-7.79,2.12,29.99,10.69-29.28c2.57-7.04,7.01-12.22,15.45-15.74l-14.23,41.33,14.53,43.05-12.03,9.68-10.91-31.26Z"/>
  <path d="M566.84,289.79l20.67-10.19c.37,2.88-.47,12.36-2.9,13.71l-31.38,17.45-.08-87.16,32.6-19,2.08,8.07c1.83,7.13-17.19,10.18-19.95,15.68-1.99,3.98-1.8,14.21-1.81,22.45l16.98-7.3c1.74,10.08-5.2,13.62-13.64,19.09-4.9,4.5-4.02,20.41-2.56,27.2Z"/>
  <path d="M545.62,315.52l-30.7,17.41-.94-75.32c-.04-3.31-.8-12.29,1.95-13.59l10.97-5.16.35,73.16,19.95-9.97c.68-.32.47,12.31-1.58,13.47Z"/>
  <path d="M518.12,445.46c-2.4-4.86-2.34-14.65-.13-19.95l67.62-38.75c2.31,6.62,2.16,15.03-.05,20.8l-67.44,37.9Z"/>
  <polygon points="409.01 391.08 395.84 398.85 395.4 314.15 408.38 305.7 409.01 391.08"/>
  <path d="M351.85,635.86c-9.17-5.74-4.57-17.79,2.92-22.1l56.05-32.21.93,19.99-59.9,34.31Z"/>
  <path class="b" d="M493.44,318.29c.23,10.12-3.99,17.05-12.7,20.19l-1.11-54.58c-.04-2.02,2-6.8,2.88-8.29,1.17-2,9.93-1.86,9.98.46l.95,42.22Z"/>
</svg>